<svg width="785" height="333" viewBox="0 0 785 333" fill="none" xmlns="http://www.w3.org/2000/svg">
<path fill-rule="evenodd" clip-rule="evenodd" d="M177.647 172.502C177.102 172.356 176.537 172.379 176.307 172.112C175.539 171.224 174.496 170.741 173.576 170.092C172.448 169.295 171.088 168.769 170.034 167.954C168.586 166.833 167.055 165.8 165.542 164.829C163.984 163.827 162.587 162.578 160.91 161.736C160.159 161.359 159.603 160.6 158.943 160.032C158.872 159.971 158.702 160.024 158.544 160.025C158.484 160.185 158.422 160.356 158.342 160.574C159.284 161.164 160.372 161.587 161.073 162.36C161.703 163.054 162.714 163.105 163.138 163.722C163.648 164.463 164.64 164.392 164.972 165.058C165.362 165.843 166.324 165.603 166.693 166.262C167.134 167.05 168.168 166.915 168.657 167.475C169.343 168.263 170.568 168.327 171.036 169.045C171.67 170.019 173.096 169.723 173.441 170.889C174.513 171.106 175.182 171.979 176.067 172.5C177.067 173.089 178.199 173.54 179.021 174.318C179.722 174.982 180.74 175.141 181.253 175.777C181.728 176.367 182.465 176.386 182.809 176.867C183.273 177.516 183.951 177.682 184.542 178.058C185.034 178.371 185.518 178.711 185.987 179.07C186.851 179.73 187.653 180.52 188.762 180.808C189.019 180.874 189.434 180.979 189.47 181.137C189.694 182.119 190.835 181.839 191.271 182.53C191.766 183.316 192.739 183.348 193.468 183.774C193.699 183.909 194.093 183.933 194.177 184.117C194.495 184.804 195.316 184.806 195.685 185.258C196.194 185.879 196.912 185.63 197.447 185.986C198.247 186.515 199.067 187.018 199.888 187.517C200.589 187.943 201.303 188.347 202.097 188.812C202.133 188.801 202.307 188.75 202.405 188.721C202.739 189.136 203.036 189.506 203.259 189.786C204.197 189.747 204.88 190.014 205.376 190.692C205.923 191.44 206.76 191.241 207.486 191.327C208.323 191.427 208.384 192.754 209.589 192.428C210.193 192.265 211.009 192.88 211.81 193.174C210.932 191.968 209.797 191.31 208.55 190.97C207.266 190.622 206.544 189.252 205.126 189.236C204.658 188.411 203.861 188.506 203.065 188.538C202.876 188.121 202.691 187.713 202.48 187.245C202.002 187.224 201.573 187.206 201.122 187.186C200.752 186.571 200.308 186.057 199.467 186.421C199.338 186.086 199.218 185.773 199.077 185.405C197.727 184.722 196.187 184.304 195.026 183.168C194.535 182.688 193.933 182.294 193.325 181.966C192.184 181.353 191.026 180.807 189.922 180.089C188.743 179.323 187.695 178.25 186.246 177.886C186.011 177.827 185.864 177.419 185.667 177.158C185.442 177.223 185.202 177.38 185.083 177.315C184.13 176.8 183.191 176.255 182.269 175.687C182.129 175.6 182.093 175.343 182.008 175.164C181.833 175.222 181.649 175.282 181.368 175.376C181.012 174.934 180.632 174.464 180.252 173.992C180.192 174.016 180.122 174.071 180.068 174.059C179.197 173.865 178.715 172.963 177.806 172.809C177.695 172.79 177.634 172.474 177.647 172.502ZM105.756 122.143C105.805 121.866 105.837 121.681 105.887 121.394C105.691 121.437 105.537 121.472 105.364 121.512C104.676 120.595 104 119.643 103.271 118.735C102.293 117.517 101.244 116.38 100.381 115.042C99.6487 113.907 98.5144 112.938 98.0414 111.672C97.5926 110.476 96.2353 109.986 96.0636 108.684C94.8887 107.96 94.797 106.509 93.9681 105.542C93.7242 105.258 93.6353 104.898 93.2287 104.689C92.8193 104.476 92.8695 104.378 92.7934 103.283C92.6726 103.207 92.5167 103.103 92.3535 103.012C92.2378 102.947 92.0069 102.9 92.0055 102.842C91.9747 101.418 90.2914 101.022 90.0765 99.7224C90.0558 99.5999 90.0965 99.3996 90.0325 99.3598C88.2084 98.2409 87.7965 96.0344 86.3682 94.6225C85.8338 94.0933 85.8724 93.3073 85.3849 92.7763C85.1766 92.5484 85.0092 92.2814 84.7998 92.0013C84.8546 91.6803 84.9851 91.3056 84.9615 90.9408C84.9378 90.5743 84.7614 90.2167 84.6001 89.687C85.7825 89.6894 86.5527 90.4466 87.5904 90.3724C86.9268 90.0388 86.2632 89.7053 85.5522 89.3474C85.5784 89.1795 85.6075 88.9943 85.6357 88.8111C88.3051 89.1036 88.3727 89.039 90.6137 91.3815C92.1985 93.0394 94.0559 94.4886 95.0973 96.6203C96.5304 97.6889 97.3314 99.2906 98.4396 100.631C99.9504 102.459 101.273 104.439 102.744 106.301C104.595 108.644 106.499 110.946 108.409 113.242C110.196 115.391 112.132 117.399 114.1 119.39C115.398 120.704 116.632 122.118 117.922 123.459C119.212 124.801 120.548 126.099 121.873 127.408C122.846 128.367 123.732 129.458 124.843 130.221C126.018 131.028 126.574 132.359 127.726 133.147C128.452 133.645 128.928 134.485 129.857 134.717C129.986 134.748 130.162 134.789 130.218 134.882C131.143 136.447 132.779 137.244 134.054 138.428C135.38 139.657 136.789 140.799 138.191 141.944C138.966 142.577 139.817 143.103 140.508 143.853C141.324 144.737 142.485 145.179 143.379 146.001C144.484 147.014 145.712 147.916 146.924 148.78C148.109 149.624 149.276 150.494 150.418 151.387C152.646 153.129 155.105 154.565 157.173 156.521C157.72 157.039 158.484 157.206 159.071 157.797C159.863 158.595 161.282 158.827 161.943 159.681C162.672 160.623 164.087 160.443 164.512 161.617C166.437 162.41 167.871 163.996 169.76 164.86C170.322 165.115 170.781 165.593 171.293 165.96C171.859 166.366 172.423 166.775 173.003 167.159C173.53 167.508 174.335 167.475 174.524 168.283C175.545 168.583 176.271 169.388 177.172 169.858C178.327 170.461 179.178 171.564 180.517 171.834C180.856 172.883 182.293 172.614 182.684 173.641C182.753 173.82 183.141 173.876 183.38 173.993C184.073 174.329 184.771 174.582 185.307 175.248C185.766 175.818 186.731 175.708 187.224 176.524C187.508 176.993 188.386 177.103 188.97 177.363C189.104 177.714 189.225 178.027 189.348 178.351C190.657 178.115 191.285 178.94 191.814 179.933C192.61 179.543 193.397 180.01 193.753 180.481C194.212 181.085 194.796 181.256 195.365 181.521C197.027 182.297 198.408 183.569 200.183 184.169C200.639 184.323 200.924 184.981 201.278 185.395C201.541 185.408 201.855 185.385 202.15 185.448C202.974 185.624 203.518 186.333 204.409 186.517C205.147 186.671 205.864 187.314 206.397 187.912C206.69 188.241 206.928 188.046 207.096 188.139C208.047 188.671 209.309 188.641 209.957 189.767C210.121 190.049 210.663 190.113 211.031 190.277C213.669 191.452 216.311 192.618 218.942 193.808C219.536 194.076 220.184 194.327 220.642 194.76C221.112 195.205 221.734 194.711 222.152 195.21C222.422 195.533 222.835 195.737 223.242 196.037C223.679 196.14 224.26 196.194 224.771 196.411C226.748 197.253 228.759 198.042 230.652 199.048C233.008 200.301 235.611 200.834 238.067 201.794C239.836 202.485 241.858 202.532 243.917 202.894C244.202 203.17 244.634 203.59 245.099 204.041C245.19 204.013 245.372 203.955 245.594 203.885C245.749 204.437 245.904 204.987 246.085 205.631C244.925 205.434 243.951 205.267 242.81 205.072C242.909 205.562 242.972 205.868 243.046 206.236L244.944 207.081C245.075 207.425 245.171 207.676 245.342 208.12C244.779 208.246 244.217 208.373 243.569 208.519C243.871 208.824 244.046 208.999 244.237 209.192C244.006 210.311 243.066 210.625 242.175 210.985C242.234 211.165 242.291 211.345 242.305 211.39C241.667 211.63 241.051 211.861 240.316 212.138C239.881 211.805 239.559 210.898 238.585 211.134C238.642 211.316 238.701 211.498 238.81 211.841C238.064 211.354 237.415 210.929 236.766 210.505C236.703 210.587 236.638 210.672 236.573 210.755C236.877 210.988 237.18 211.22 237.58 211.527C237.015 211.561 236.556 211.589 235.962 211.625C235.954 211.364 235.947 211.14 235.932 210.706C235.647 210.558 235.207 210.33 234.67 210.052C234.662 210.486 234.656 210.803 234.645 211.383C234.196 211.183 233.9 211.075 233.626 210.925C231.648 209.839 229.35 209.652 227.341 208.605C225.32 207.551 223.155 206.775 221.12 205.745C220.687 205.526 220.109 206.094 219.814 205.359C219.723 205.131 218.931 205.188 218.837 204.958C218.495 204.13 217.905 204.895 217.444 204.648C216.644 204.218 216.108 203.485 215.218 203.129C212.539 202.056 209.912 200.848 207.296 199.624C206.311 199.163 205.439 198.464 204.47 197.961C203.476 197.444 202.427 197.035 201.439 196.506C203.128 196.756 206.649 198.381 208.153 199.317C207.915 199.112 207.678 198.908 207.44 198.703C207.56 198.651 207.681 198.599 207.802 198.546C206.701 198.055 205.622 197.502 204.493 197.089C202.874 196.497 201.726 195.073 200.029 194.643C199.696 193.908 198.74 193.904 198.372 193.404C197.785 192.607 196.753 193.148 196.16 192.312C195.712 191.681 194.749 191.415 193.858 190.895C193.812 190.803 193.675 190.533 193.538 190.263C193.613 190.199 193.687 190.135 193.761 190.071C195.454 191.049 197.147 192.027 198.924 193.054C198.998 193.031 199.25 192.954 199.502 192.877C199.393 192.593 199.297 192.343 199.2 192.093C198.962 192.146 198.724 192.199 198.209 192.315C198.293 191.845 198.371 191.408 198.449 190.972L197.925 191.124C197.721 191.133 197.516 191.142 197.258 191.152C197.302 190.95 197.342 190.766 197.4 190.502C196.746 189.996 196.049 189.457 195.344 188.912C195.036 189.178 194.805 189.376 194.543 189.602C194.004 189.082 193.478 188.574 192.97 188.084C192.742 188.11 192.495 188.14 192.151 188.18C191.99 187.546 191.843 186.969 191.696 186.391C191.405 186.502 191.279 186.551 191.095 186.621C190.85 186.328 190.592 186.021 190.319 185.694C190.584 185.597 190.835 185.505 191.109 185.405C191.183 185.562 191.26 185.729 191.379 185.985C191.757 185.982 192.184 185.977 192.66 185.973C192.633 186.307 192.612 186.554 192.59 186.817C193.184 186.872 193.772 186.926 194.424 186.986C194.886 187.879 196.03 187.818 196.867 188.438C196.981 188.713 197.131 189.075 197.282 189.437C198.091 188.996 198.627 189.805 199.439 189.878C199.522 189.719 199.628 189.516 199.816 189.153C199.464 189.241 199.302 189.28 199.006 189.354C198.946 189.006 198.879 188.627 198.809 188.226C198.351 188.417 198.043 188.546 197.69 188.693C197.39 188.321 197.094 187.953 196.782 187.565C196.01 187.854 195.618 187.319 195.147 186.758C194.752 186.286 194.183 185.959 193.657 185.542C193.631 185.274 193.598 184.941 193.532 184.276C193.075 184.712 192.869 184.908 192.558 185.203C192.056 184.886 191.52 184.548 190.986 184.208C190.446 183.865 189.727 183.636 189.412 183.148C188.99 182.491 188.217 183.23 187.822 182.482C187.558 181.98 186.832 181.721 186.317 181.357C185.891 181.619 185.572 181.816 184.973 182.185C185.685 182.428 186.117 182.576 186.771 182.798C186.751 182.75 186.848 182.977 186.972 183.266C186.825 183.345 186.679 183.422 186.49 183.525C186.53 183.671 186.576 183.841 186.622 184.006C186.529 184.043 186.391 184.15 186.328 184.116C185.808 183.838 185.318 183.501 184.788 183.249C184.217 182.979 183.375 182.944 183.078 182.512C182.629 181.856 181.925 181.898 181.389 181.439C181.265 181.139 181.114 180.771 180.917 180.296C180.559 180.37 180.191 180.446 179.634 180.561C181.096 182.283 182.986 183.222 184.92 184.606C183.802 184.462 183.055 184.06 182.38 183.647C181.978 183.402 181.736 182.899 181.208 182.71C180.788 182.561 180.356 181.983 180.053 182.063C179.28 182.267 179.441 181.489 179.064 181.331C178.568 181.125 178.054 180.942 177.598 180.667C177.059 180.344 176.593 179.903 176.061 179.567C175.578 179.261 175.12 178.966 174.676 178.579C173.964 177.96 172.925 177.719 171.89 177.601C172.48 177.925 173.068 178.248 173.919 178.716C171.881 178.702 170.976 177.094 169.509 176.638C169.402 176.146 169.373 175.623 169.161 175.189C169.053 174.971 168.613 174.916 167.937 174.615C168.407 175.178 168.588 175.394 168.771 175.613C168.652 175.65 168.508 175.747 168.439 175.709C167.715 175.306 166.871 175.185 166.315 174.382C165.906 173.791 164.968 173.828 164.379 173.146C163.698 172.359 162.547 171.996 161.663 171.362C160.794 170.737 159.89 170.167 159.055 169.484C157.832 168.486 156.433 167.705 155.204 166.714C153.978 165.725 152.415 165.203 151.424 163.887C150.925 163.224 150.042 163.088 149.412 162.466C148.079 161.155 146.458 160.138 144.98 158.969C144.19 158.346 143.52 157.588 142.585 157.13C141.466 156.582 140.946 155.747 140.883 154.61C140.634 154.818 140.421 154.997 140.191 155.19C140.109 155.008 140.032 154.837 139.955 154.666C139.781 154.722 139.6 154.781 139.605 154.778C139.024 154.256 138.588 153.631 137.995 153.388C137.186 153.054 136.952 152.3 136.008 151.632C134.234 151.245 133.286 148.998 131.277 148.094C131.374 147.745 131.474 147.383 131.669 146.681C131.154 147.057 130.847 147.282 130.763 147.343C129.224 146.356 128.217 145.187 127.305 143.919L127.532 143.409C127.196 143.423 126.922 143.49 126.68 143.43C126.359 143.35 126.063 143.172 125.702 143.011C125.617 142.731 125.52 142.413 125.409 142.048L123.788 141.326C123.812 141.018 123.832 140.77 123.856 140.462C123.621 140.496 123.399 140.529 123.038 140.583C122.823 140.099 122.592 139.579 122.408 139.164C122.545 138.74 122.64 138.444 122.811 137.913C122.159 138.325 121.738 138.59 121.292 138.872C120.385 137.948 119.671 136.858 118.539 136.089C117.54 135.412 117.027 134.162 116.04 133.336C115.495 132.88 115.284 131.996 114.417 131.808C114.31 131.025 113.66 130.668 113.175 130.164C112.568 129.534 111.511 129.287 111.294 128.382C111.074 127.469 109.838 127.384 109.872 126.37C109.15 125.945 108.775 125.141 108.162 124.672C107.455 124.133 106.99 123.54 106.63 122.765C106.514 122.516 106.125 122.395 105.756 122.143Z" fill="white"/>
<path fill-rule="evenodd" clip-rule="evenodd" d="M263.929 208.379C263.784 208.511 263.438 208.68 263.439 208.845C263.457 210.586 262.417 211.836 261.496 213.135C260.738 214.205 260.009 215.355 258.868 216.033C256.756 217.288 254.95 219.19 252.273 219.315C251.69 220.454 250.086 219.528 249.509 220.68C248.028 220.729 246.776 221.556 245.382 221.897C244.506 222.111 243.641 222.35 242.782 222.627C242.453 222.733 242.043 222.593 241.544 222.557C241.288 222.772 240.907 223.089 240.428 223.49C239.838 223.577 239.102 223.686 238.258 223.811C238.101 224.115 237.895 224.518 237.675 224.947C237.429 224.93 237.182 224.913 236.935 224.896C236.266 225.45 237.102 225.592 237.219 225.931C236.351 226.694 235.295 226.954 234.131 227.082C233.742 226.369 233.347 225.647 232.914 224.853L234.012 222.389C233.877 222.01 233.744 221.636 233.604 221.243C234.276 220.146 234.443 218.788 235.528 217.864C236.05 217.42 236.427 216.786 237.131 216.591C237.581 216.466 237.742 215.764 238.432 216.031C238.584 216.09 238.997 215.443 239.304 215.135C239.914 214.523 240.767 214.342 241.514 214.013C243.293 213.228 245.097 212.443 246.966 211.933C248.82 211.428 250.614 210.656 252.572 210.521C253.145 210.481 253.697 210.17 254.264 210.007C254.813 209.848 255.372 209.719 256.077 209.538C255.552 208.968 255.023 208.395 254.418 207.738C254.215 207.945 254.052 208.113 253.881 208.288C252.344 207.425 251.357 205.864 249.838 204.808L250.204 203.987C249.124 203.037 248.099 202.137 247.074 201.236C246.653 200.855 245.868 201.388 245.484 200.539C245.794 200.533 246.09 200.527 246.386 200.522C245.432 200.292 245.345 198.454 243.825 199.343C243.268 197.465 240.865 197.166 240.607 195.116C240.473 195.16 240.293 195.219 240.047 195.3C239.282 194.54 238.567 193.645 237.673 192.996C236.746 192.32 236.902 191.099 235.784 190.279C234.48 189.925 233.251 188.962 232.513 187.461C232.574 186.857 232.631 186.3 232.69 185.707C232.852 185.593 233.044 185.457 233.234 185.321C233.115 185.008 232.994 184.694 232.858 184.34C233.465 184.311 234.059 184.284 234.658 184.256C234.53 183.924 234.41 183.611 234.259 183.217C234.666 183.172 235.058 183.129 235.568 183.072C235.91 184.305 237.369 184.162 238.188 185.079C239.339 186.367 240.964 187.22 242.317 188.342C243.899 189.652 245.402 191.057 246.948 192.41C248.593 193.85 250.23 195.295 251.97 196.629C253.397 197.723 254.547 199.161 256.04 200.199C256.29 201.118 257.567 200.928 257.818 201.847C259.266 202.322 259.963 203.818 261.318 204.433C261.587 204.555 261.768 204.864 262.022 205.037C263.162 205.813 264.182 206.653 263.929 208.379Z" fill="white"/>
<path d="M94.2114 48.5344C91.433 48.5344 89.2355 48.1049 87.6189 47.2458C86.0024 46.3362 84.8152 45.1486 84.0574 43.6831C83.2997 42.1671 82.7945 40.4742 82.5419 38.6044C82.3399 36.7347 82.2388 34.8144 82.2388 32.8435V10.7854H89.8164V34.4354C89.8164 37.0631 90.3974 38.8318 91.5593 39.7415C92.7717 40.6511 94.1862 41.1059 95.8027 41.1059C97.4698 41.1059 99.1116 40.7774 100.728 40.1205C102.395 39.4635 103.885 38.5792 105.199 37.4674C106.563 36.3051 107.573 35.067 108.23 33.7532V37.998H107.018V10.7854H114.595V47.7764H108.836L107.245 41.2575L109.139 41.0301C107.826 42.5966 106.361 43.961 104.744 45.1233C103.128 46.2351 101.435 47.0942 99.6673 47.7006C97.8992 48.2565 96.0806 48.5344 94.2114 48.5344Z" fill="#F3F1FC"/>
<path d="M55.9102 48.5344C52.0448 48.5344 48.6235 47.7391 45.6462 46.1486C42.7211 44.5067 40.4489 42.2235 38.8296 39.2989C37.2104 36.3743 36.4008 32.9623 36.4008 29.0628C36.4008 25.112 37.2104 21.6744 38.8296 18.7498C40.4489 15.8252 42.7211 13.5419 45.6462 11.9001C48.6235 10.2582 52.0448 9.43726 55.9102 9.43726C59.8277 9.43726 63.249 10.2582 66.1742 11.9001C69.0993 13.5419 71.3714 15.8252 72.9907 18.7498C74.6622 21.6744 75.4979 25.112 75.4979 29.0628C75.4979 32.9623 74.6622 36.3743 72.9907 39.2989C71.3714 42.2235 69.0993 44.5067 66.1742 46.1486C63.249 47.7391 59.8277 48.5344 55.9102 48.5344ZM55.9102 41.146C59.4098 41.146 62.2044 40.0428 64.2937 37.8366C66.4353 35.579 67.5061 32.6544 67.5061 29.0628C67.5061 25.4199 66.4353 22.4696 64.2937 20.2121C62.2044 17.9545 59.4098 16.8257 55.9102 16.8257C52.4627 16.8257 49.6682 17.9545 47.5266 20.2121C45.4372 22.4183 44.3926 25.3429 44.3926 28.9858C44.3926 32.6287 45.4372 35.579 47.5266 37.8366C49.6682 40.0428 52.4627 41.146 55.9102 41.146Z" fill="#F3F1FC"/>
<path d="M15.2417 43.8217L0 10.7854H8.29214L21.7965 40.0218L15.2417 43.8217ZM5.13323 63.3644L29.4568 10.7854H37.749L13.4254 63.3644H5.13323Z" fill="#F3F1FC"/>
<path d="M762.936 285.146L748.239 252.109H756.235L769.257 281.346L762.936 285.146ZM753.189 304.688L776.644 252.109H784.64L761.185 304.688H753.189Z" fill="#F3F1FC"/>
<path d="M741.199 289.858C739.945 289.858 738.835 289.552 737.87 288.938C736.905 288.274 736.132 287.329 735.553 286.103C735.022 284.876 734.757 283.369 734.757 281.581V237.279H741.851V278.898C741.851 280.482 742.213 281.555 742.937 282.117C743.709 282.679 744.577 282.96 745.543 282.96V289.092C744.915 289.347 744.24 289.526 743.516 289.628C742.792 289.782 742.02 289.858 741.199 289.858Z" fill="#F3F1FC"/>
<path d="M705.566 291.206C701.993 291.206 698.848 290.374 696.128 288.709C693.409 287.044 691.303 284.729 689.81 281.763C688.317 278.746 687.571 275.26 687.571 271.306C687.571 267.352 688.317 263.892 689.81 260.926C691.303 257.96 693.409 255.671 696.128 254.058C698.848 252.393 701.993 251.561 705.566 251.561C709.085 251.561 712.15 252.393 714.763 254.058C717.375 255.671 719.402 257.96 720.841 260.926C722.334 263.892 723.08 267.352 723.08 271.306C723.08 275.26 722.334 278.746 720.841 281.763C719.402 284.729 717.375 287.044 714.763 288.709C712.15 290.374 709.085 291.206 705.566 291.206ZM706.765 284.495C710.071 284.495 712.71 283.298 714.683 280.905C716.709 278.512 717.722 275.338 717.722 271.384C717.722 267.43 716.709 264.256 714.683 261.863C712.71 259.469 710.071 258.273 706.765 258.273C703.459 258.273 700.794 259.469 698.768 261.863C696.741 264.256 695.728 267.404 695.728 271.306C695.728 275.26 696.741 278.46 698.768 280.905C700.794 283.298 703.459 284.495 706.765 284.495ZM719.242 290.426L717.322 282.778H718.122V261.082H717.322V237.279H725.32V290.426H719.242Z" fill="#F3F1FC"/>
<path d="M664.001 291.206C661.041 291.206 658.496 290.68 656.366 289.627C654.237 288.573 652.601 287.072 651.458 285.124C650.367 283.123 649.822 280.753 649.822 278.014C649.822 275.486 650.393 273.248 651.536 271.3C652.678 269.299 654.315 267.719 656.444 266.56C658.574 265.401 661.093 264.822 664.001 264.822C667.637 264.822 670.546 265.665 672.727 267.35C674.961 268.983 676.519 271.247 677.402 274.144H673.039V264.269C673.039 262.637 672.494 261.136 671.403 259.767C670.312 258.397 668.39 257.713 665.637 257.713C664.183 257.713 662.573 257.897 660.807 258.266C659.093 258.582 657.301 259.161 655.431 260.003L653.094 253.921C655.224 252.868 657.431 252.078 659.716 251.551C662.002 251.024 664.235 250.761 666.417 250.761C669.689 250.761 672.39 251.367 674.519 252.578C676.649 253.789 678.233 255.422 679.272 257.476C680.31 259.477 680.83 261.741 680.83 264.269V290.101H675.22L673.273 283.07L677.402 281.885C676.467 284.992 674.805 287.336 672.416 288.916C670.026 290.443 667.222 291.206 664.001 291.206ZM665.404 284.176C667.689 284.176 669.533 283.649 670.935 282.596C672.338 281.49 673.039 279.963 673.039 278.014C673.039 276.013 672.338 274.486 670.935 273.433C669.533 272.379 667.689 271.853 665.404 271.853C663.118 271.853 661.275 272.379 659.872 273.433C658.47 274.486 657.769 276.013 657.769 278.014C657.769 279.963 658.47 281.49 659.872 282.596C661.275 283.649 663.118 284.176 665.404 284.176Z" fill="#F3F1FC"/>
<path d="M629.131 291.206C625.612 291.206 622.546 290.374 619.933 288.709C617.321 287.044 615.268 284.729 613.775 281.763C612.336 278.746 611.616 275.26 611.616 271.306C611.616 267.352 612.336 263.892 613.775 260.926C615.268 257.96 617.321 255.671 619.933 254.058C622.546 252.393 625.612 251.561 629.131 251.561C632.756 251.561 635.902 252.393 638.568 254.058C641.287 255.671 643.393 257.96 644.886 260.926C646.379 263.892 647.125 267.352 647.125 271.306C647.125 275.26 646.379 278.746 644.886 281.763C643.393 284.729 641.287 287.044 638.568 288.709C635.902 290.374 632.756 291.206 629.131 291.206ZM609.376 290.426V237.279H617.374V261.082H616.574V282.778H617.374L615.455 290.426H609.376ZM627.931 284.495C631.237 284.495 633.903 283.298 635.929 280.905C637.955 278.46 638.968 275.26 638.968 271.306C638.968 267.404 637.955 264.256 635.929 261.863C633.903 259.469 631.237 258.273 627.931 258.273C624.679 258.273 622.039 259.469 620.013 261.863C617.987 264.256 616.974 267.43 616.974 271.384C616.974 275.338 617.987 278.512 620.013 280.905C622.039 283.298 624.679 284.495 627.931 284.495Z" fill="#F3F1FC"/>
<path d="M563.501 291.206C559.769 291.206 556.465 290.384 553.591 288.738C550.766 287.04 548.572 284.678 547.009 281.652C545.446 278.627 544.664 275.097 544.664 271.063C544.664 266.976 545.446 263.42 547.009 260.395C548.572 257.369 550.766 255.007 553.591 253.309C556.465 251.61 559.769 250.761 563.501 250.761C567.283 250.761 570.586 251.61 573.411 253.309C576.235 255.007 578.429 257.369 579.992 260.395C581.606 263.42 582.413 266.976 582.413 271.063C582.413 275.097 581.606 278.627 579.992 281.652C578.429 284.678 576.235 287.04 573.411 288.738C570.586 290.384 567.283 291.206 563.501 291.206ZM563.501 283.563C566.88 283.563 569.578 282.422 571.595 280.14C573.663 277.804 574.697 274.779 574.697 271.063C574.697 267.295 573.663 264.243 571.595 261.907C569.578 259.572 566.88 258.404 563.501 258.404C560.172 258.404 557.474 259.572 555.406 261.907C553.389 264.19 552.38 267.215 552.38 270.984C552.38 274.752 553.389 277.804 555.406 280.14C557.474 282.422 560.172 283.563 563.501 283.563Z" fill="#F3F1FC"/>
<path d="M525.433 291.206C522.73 291.206 520.052 290.57 517.401 289.296C514.803 288.022 512.656 285.846 510.959 282.767L517.004 278.786C518.488 280.75 519.893 282.183 521.219 283.086C522.544 283.935 524.267 284.359 526.388 284.359C528.084 284.359 529.383 283.935 530.285 283.086C531.239 282.183 531.716 281.095 531.716 279.821C531.716 278.972 531.478 278.229 531 277.592C530.576 276.955 529.807 276.371 528.694 275.84C527.581 275.257 525.99 274.699 523.922 274.168C520.105 273.16 517.163 271.833 515.095 270.188C513.027 268.542 511.993 265.941 511.993 262.385C511.993 260.262 512.524 258.325 513.584 256.573C514.644 254.822 516.182 253.415 518.196 252.353C520.211 251.292 522.597 250.761 525.354 250.761C528.641 250.761 531.451 251.451 533.784 252.831C536.117 254.158 537.946 255.75 539.271 257.608L533.148 262.146C532.405 261.191 531.318 260.262 529.887 259.36C528.455 258.404 526.653 257.927 524.479 257.927C523.154 257.927 521.934 258.298 520.821 259.041C519.707 259.784 519.151 260.819 519.151 262.146C519.151 263.473 519.654 264.561 520.662 265.411C521.722 266.207 523.631 266.923 526.388 267.56C531.053 268.675 534.367 270.135 536.329 271.939C538.29 273.691 539.271 276.026 539.271 278.945C539.271 281.493 538.608 283.696 537.283 285.554C536.011 287.358 534.314 288.765 532.193 289.773C530.126 290.729 527.872 291.206 525.433 291.206Z" fill="#F3F1FC"/>
<path d="M480.319 289.858C477.02 289.858 474.391 288.927 472.432 287.064C470.525 285.151 469.572 282.206 469.572 278.229V252.78V252.327L471.041 244.02H477.303V278.38C477.303 279.79 477.664 280.847 478.386 281.552C479.159 282.256 480.112 282.609 481.246 282.609C482.123 282.609 482.896 282.558 483.566 282.458C484.236 282.357 484.829 282.231 485.344 282.08V289.103C484.674 289.305 483.927 289.481 483.102 289.632C482.329 289.783 481.401 289.858 480.319 289.858ZM463.773 259.274V252.327H485.344V259.274H463.773Z" fill="#F3F1FC"/>
<path d="M445.817 250.761C448.444 250.761 450.516 251.232 452.031 252.174C453.547 253.064 454.658 254.294 455.365 255.864C456.072 257.382 456.527 259.109 456.729 261.046C456.931 262.982 457.032 264.971 457.032 267.012V289.858H449.455V265.364C449.455 262.642 448.849 260.81 447.636 259.868C446.474 258.926 445.085 258.455 443.468 258.455C441.852 258.455 440.21 258.795 438.543 259.476C436.876 260.156 435.386 261.072 434.072 262.223C432.759 263.375 431.748 264.657 431.041 266.07V261.674H432.254V289.858H424.676V251.546H430.435L432.026 258.298L430.132 258.533C431.546 256.859 433.087 255.445 434.754 254.294C436.421 253.143 438.189 252.279 440.059 251.703C441.928 251.075 443.847 250.761 445.817 250.761Z" fill="#F3F1FC"/>
<path d="M398.41 291.206C395.45 291.206 392.905 290.68 390.775 289.627C388.646 288.573 387.009 287.072 385.867 285.124C384.776 283.123 384.231 280.753 384.231 278.014C384.231 275.486 384.802 273.248 385.945 271.3C387.087 269.299 388.724 267.719 390.853 266.56C392.983 265.401 395.502 264.822 398.41 264.822C402.046 264.822 404.955 265.665 407.136 267.35C409.37 268.983 410.928 271.247 411.811 274.144H407.448V264.269C407.448 262.637 406.902 261.136 405.812 259.767C404.721 258.397 402.799 257.713 400.046 257.713C398.592 257.713 396.982 257.897 395.216 258.266C393.502 258.582 391.71 259.161 389.84 260.003L387.503 253.921C389.632 252.868 391.84 252.078 394.125 251.551C396.411 251.024 398.644 250.761 400.825 250.761C404.098 250.761 406.799 251.367 408.928 252.578C411.058 253.789 412.642 255.422 413.681 257.476C414.719 259.477 415.239 261.741 415.239 264.269V290.101H409.629L407.682 283.07L411.811 281.885C410.876 284.992 409.214 287.336 406.825 288.916C404.435 290.443 401.631 291.206 398.41 291.206ZM399.813 284.176C402.098 284.176 403.942 283.649 405.344 282.596C406.747 281.49 407.448 279.963 407.448 278.014C407.448 276.013 406.747 274.486 405.344 273.433C403.942 272.379 402.098 271.853 399.813 271.853C397.527 271.853 395.683 272.379 394.281 273.433C392.879 274.486 392.178 276.013 392.178 278.014C392.178 279.963 392.879 281.49 394.281 282.596C395.683 283.649 397.527 284.176 399.813 284.176Z" fill="#F3F1FC"/>
<path d="M341.064 289.858L328.955 252.109H336.818L344.76 279.88H344.052L353.016 252.109H360.171L369.134 279.88H368.427L376.368 252.109H384.231L372.122 289.858H365.439L355.925 260.386H357.261L347.747 289.858H341.064Z" fill="#F3F1FC"/>
<path d="M702.24 208.968C699.461 208.968 697.264 208.538 695.647 207.679C694.031 206.769 692.844 205.582 692.086 204.116C691.328 202.6 690.823 200.907 690.57 199.038C690.368 197.168 690.267 195.248 690.267 193.277V171.219H697.845V194.869C697.845 197.496 698.426 199.265 699.588 200.175C700.8 201.084 702.215 201.539 703.831 201.539C705.498 201.539 707.14 201.211 708.757 200.554C710.424 199.897 711.914 199.012 713.227 197.901C714.591 196.738 715.602 195.5 716.258 194.186V198.431H715.046V171.219H722.623V208.21H716.865L715.273 201.691L717.168 201.463C715.854 203.03 714.389 204.394 712.773 205.557C711.156 206.668 709.464 207.527 707.696 208.134C705.928 208.69 704.109 208.968 702.24 208.968Z" fill="#F3F1FC"/>
<path d="M663.938 208.968C660.073 208.968 656.652 208.172 653.674 206.582C650.749 204.94 648.477 202.657 646.858 199.732C645.239 196.808 644.429 193.395 644.429 189.496C644.429 185.545 645.239 182.108 646.858 179.183C648.477 176.258 650.749 173.975 653.674 172.333C656.652 170.691 660.073 169.87 663.938 169.87C667.856 169.87 671.277 170.691 674.202 172.333C677.128 173.975 679.4 176.258 681.019 179.183C682.69 182.108 683.526 185.545 683.526 189.496C683.526 193.395 682.69 196.808 681.019 199.732C679.4 202.657 677.128 204.94 674.202 206.582C671.277 208.172 667.856 208.968 663.938 208.968ZM663.938 201.579C667.438 201.579 670.233 200.476 672.322 198.27C674.464 196.012 675.534 193.088 675.534 189.496C675.534 185.853 674.464 182.903 672.322 180.645C670.233 178.388 667.438 177.259 663.938 177.259C660.491 177.259 657.697 178.388 655.555 180.645C653.466 182.852 652.421 185.776 652.421 189.419C652.421 193.062 653.466 196.012 655.555 198.27C657.697 200.476 660.491 201.579 663.938 201.579Z" fill="#F3F1FC"/>
<path d="M622.726 204.255L608.028 171.219H616.024L629.046 200.455L622.726 204.255ZM612.978 223.798L636.433 171.219H644.429L620.974 223.798H612.978Z" fill="#F3F1FC"/>
<path d="M567.115 208.968C563.596 208.968 560.53 208.156 557.917 206.533C555.305 204.909 553.252 202.652 551.759 199.761C550.319 196.818 549.6 193.42 549.6 189.564C549.6 185.709 550.319 182.336 551.759 179.444C553.252 176.553 555.305 174.321 557.917 172.748C560.53 171.125 563.596 170.313 567.115 170.313C570.74 170.313 573.886 171.125 576.552 172.748C579.271 174.321 581.377 176.553 582.87 179.444C584.363 182.336 585.109 185.709 585.109 189.564C585.109 193.42 584.363 196.818 582.87 199.761C581.377 202.652 579.271 204.909 576.552 206.533C573.886 208.156 570.74 208.968 567.115 208.968ZM547.36 208.207V156.389H555.358V179.596H554.558V200.75H555.358L553.439 208.207H547.36ZM565.915 202.424C569.221 202.424 571.887 201.257 573.913 198.924C575.939 196.539 576.952 193.42 576.952 189.564C576.952 185.76 575.939 182.691 573.913 180.357C571.887 178.024 569.221 176.857 565.915 176.857C562.663 176.857 560.023 178.024 557.997 180.357C555.971 182.691 554.958 185.785 554.958 189.64C554.958 193.496 555.971 196.59 557.997 198.924C560.023 201.257 562.663 202.424 565.915 202.424Z" fill="#F3F1FC"/>
<path d="M521.707 208.968C517.975 208.968 514.672 208.172 511.797 206.582C508.973 204.94 506.779 202.657 505.215 199.732C503.652 196.808 502.87 193.395 502.87 189.496C502.87 185.545 503.652 182.108 505.215 179.183C506.779 176.258 508.973 173.975 511.797 172.333C514.672 170.691 517.975 169.87 521.707 169.87C525.489 169.87 528.793 170.691 531.617 172.333C534.441 173.975 536.635 176.258 538.199 179.183C539.812 182.108 540.619 185.545 540.619 189.496C540.619 193.395 539.812 196.808 538.199 199.732C536.635 202.657 534.441 204.94 531.617 206.582C528.793 208.172 525.489 208.968 521.707 208.968ZM521.707 201.579C525.086 201.579 527.784 200.476 529.802 198.27C531.869 196.012 532.903 193.088 532.903 189.496C532.903 185.853 531.869 182.903 529.802 180.645C527.784 178.388 525.086 177.259 521.707 177.259C518.378 177.259 515.68 178.388 513.613 180.645C511.595 182.852 510.587 185.776 510.587 189.419C510.587 193.062 511.595 196.012 513.613 198.27C515.68 200.476 518.378 201.579 521.707 201.579Z" fill="#F3F1FC"/>
<path d="M486.083 223.798C484.755 223.798 483.691 223.667 482.894 223.407C482.097 223.199 481.565 223.043 481.3 222.939V216.381C481.565 216.433 481.911 216.511 482.336 216.615C482.761 216.719 483.24 216.771 483.771 216.771C484.834 216.771 485.632 216.433 486.163 215.757C486.695 215.08 486.96 214.169 486.96 213.024V170.555H494.934V212.79C494.934 214.768 494.615 216.589 493.977 218.255C493.392 219.972 492.435 221.325 491.106 222.314C489.831 223.303 488.156 223.798 486.083 223.798ZM485.764 158.845C485.764 157.335 486.216 156.112 487.12 155.176C488.077 154.187 489.352 153.692 490.947 153.692C492.488 153.692 493.738 154.187 494.694 155.176C495.651 156.112 496.13 157.335 496.13 158.845C496.13 160.302 495.651 161.525 494.694 162.514C493.738 163.451 492.488 163.919 490.947 163.919C489.352 163.919 488.077 163.451 487.12 162.514C486.216 161.525 485.764 160.302 485.764 158.845Z" fill="#F3F1FC"/>
<path d="M453.355 208.968C450.056 208.968 447.428 208.009 445.469 206.091C443.562 204.122 442.608 201.09 442.608 196.996V170.799V170.332L444.077 161.781H450.34V197.152C450.34 198.603 450.701 199.691 451.422 200.417C452.195 201.142 453.149 201.505 454.283 201.505C455.159 201.505 455.932 201.453 456.602 201.349C457.272 201.246 457.865 201.116 458.381 200.961V208.19C457.71 208.398 456.963 208.579 456.138 208.734C455.365 208.89 454.437 208.968 453.355 208.968ZM436.81 177.484V170.332H458.381V177.484H436.81Z" fill="#F3F1FC"/>
<path d="M414.589 210.316C411.628 210.316 409.083 209.789 406.953 208.736C404.824 207.683 403.188 206.182 402.045 204.233C400.954 202.232 400.409 199.862 400.409 197.124C400.409 194.596 400.98 192.358 402.123 190.409C403.266 188.408 404.902 186.828 407.031 185.669C409.161 184.511 411.68 183.932 414.589 183.932C418.224 183.932 421.133 184.774 423.314 186.459C425.548 188.092 427.106 190.356 427.989 193.253H423.626V183.379C423.626 181.746 423.081 180.245 421.99 178.876C420.899 177.507 418.977 176.822 416.225 176.822C414.77 176.822 413.16 177.006 411.394 177.375C409.68 177.691 407.888 178.27 406.018 179.113L403.681 173.03C405.811 171.977 408.018 171.187 410.303 170.66C412.589 170.134 414.822 169.87 417.004 169.87C420.276 169.87 422.977 170.476 425.106 171.687C427.236 172.899 428.82 174.531 429.859 176.585C430.898 178.586 431.417 180.851 431.417 183.379V209.21H425.808L423.86 202.179L427.989 200.994C427.054 204.102 425.392 206.445 423.003 208.025C420.614 209.552 417.809 210.316 414.589 210.316ZM415.991 203.285C418.276 203.285 420.12 202.759 421.522 201.705C422.925 200.599 423.626 199.072 423.626 197.124C423.626 195.122 422.925 193.595 421.522 192.542C420.12 191.489 418.276 190.962 415.991 190.962C413.706 190.962 411.862 191.489 410.459 192.542C409.057 193.595 408.356 195.122 408.356 197.124C408.356 199.072 409.057 200.599 410.459 201.705C411.862 202.759 413.706 203.285 415.991 203.285Z" fill="#F3F1FC"/>
<path d="M361.312 208.968V156.389H368.889V208.968H361.312ZM386.09 208.968V184.879C386.09 182.202 385.484 180.4 384.272 179.474C383.11 178.547 381.721 178.084 380.104 178.084C378.488 178.084 376.846 178.419 375.179 179.088C373.512 179.757 372.021 180.658 370.708 181.79C369.395 182.923 368.384 184.184 367.677 185.573L366.768 178.161C368.182 176.514 369.723 175.125 371.39 173.992C373.057 172.86 374.825 172.011 376.694 171.444C378.563 170.827 380.483 170.518 382.453 170.518C385.08 170.518 387.151 170.981 388.667 171.908C390.182 172.783 391.294 173.992 392.001 175.536C392.708 177.029 393.163 178.728 393.365 180.632C393.567 182.537 393.668 184.493 393.668 186.5V208.968H386.09Z" fill="#F3F1FC"/>
<path d="M346.849 208.968C343.55 208.968 340.921 208.009 338.963 206.091C337.056 204.122 336.102 201.09 336.102 196.996V170.799V170.332L337.571 161.781H343.834V197.152C343.834 198.603 344.194 199.691 344.916 200.417C345.689 201.142 346.643 201.505 347.777 201.505C348.653 201.505 349.426 201.453 350.096 201.349C350.766 201.246 351.359 201.116 351.874 200.961V208.19C351.204 208.398 350.457 208.579 349.632 208.734C348.859 208.89 347.931 208.968 346.849 208.968ZM330.304 177.484V170.332H351.874V177.484H330.304Z" fill="#F3F1FC"/>
<path fill-rule="evenodd" clip-rule="evenodd" d="M316.07 24.8609C315.767 26.191 315.117 26.733 314.059 26.9635C313.856 26.6844 313.624 26.363 313.437 26.1057C312.42 25.4664 311.427 24.8425 310.492 24.2554C310.492 23.7634 310.586 23.4053 310.473 23.1409C310.253 22.6299 309.957 22.1139 310.136 21.5747C310.414 20.7408 310.707 19.8759 311.184 19.1569C311.896 18.082 312.773 17.1219 313.527 16.1781H314.514C315.36 16.9316 316.14 17.4709 316.715 18.1842C317.294 18.9032 317.669 19.7956 318.17 20.6746C316.955 22.0385 315.898 23.3686 316.07 24.8609Z" fill="#4D9EAF"/>
<path fill-rule="evenodd" clip-rule="evenodd" d="M279.014 0.706661C279.181 1.49988 280.24 1.88398 280.299 2.82597C280.326 3.26349 280.588 3.61783 280.25 4.0966C279.881 4.62204 279.709 5.24755 279.452 5.82775C279.364 5.76284 279.262 5.68777 279.162 5.61271C278.462 6.08337 278.352 6.1963 277.863 7.27015C276.745 7.51562 275.523 7.78409 274.135 8.08907C273.306 7.60759 272.14 7.48587 271.186 6.9388C270.962 5.57552 269.111 4.6599 269.781 3.03019C270.078 2.77052 270.429 2.46486 270.855 2.09226C271.07 2.20045 271.284 2.33908 271.524 2.42496C272.561 2.79621 273.411 2.36207 274.15 1.85017C274.926 1.31256 275.588 0.653915 276.355 0H277.881C277.565 0.416558 277.272 0.802685 276.959 1.21451C278.002 1.83394 278.112 0.637009 279.014 0.706661Z" fill="#4D9EAF"/>
<path fill-rule="evenodd" clip-rule="evenodd" d="M321.36 44.2821H322.002C322.486 44.8586 322.958 45.4197 323.502 46.0679C323.599 47.0417 323.702 48.141 322.752 49.0171C322.832 49.8187 322.188 50.4684 322.288 51.3181C322.362 51.935 322.143 52.6306 321.874 53.2169C321.73 53.5333 321.206 53.695 320.853 53.9271C319.507 53.0649 318.302 52.2926 317.498 51.7775C316.27 49.8069 316.994 48.3124 317.491 46.7984C318.127 44.8565 318.643 44.2326 320.616 43.1417C320.845 43.4937 321.076 43.8464 321.36 44.2821Z" fill="#4D9EAF"/>
<path fill-rule="evenodd" clip-rule="evenodd" d="M235.899 29.6453C236.11 31.1521 235.271 32.6581 233.799 33.6455C233.716 33.5442 233.611 33.4146 233.514 33.2952C233.388 33.4452 233.277 33.5788 233.171 33.7045C232.546 33.3525 231.937 33.01 231.188 32.5889C231.03 32.2008 230.796 31.6274 230.538 30.995C230.749 30.7255 230.904 30.4278 231.112 30.2879C231.275 30.1795 231.504 30.2667 231.722 30.2667C231.818 29.6029 231.912 28.9619 232.005 28.3256C231.648 27.4512 231.249 26.4794 230.826 25.4448C231.157 25.0143 231.445 24.6396 231.731 24.2672H232.5C233.745 25.5454 235.231 26.4849 235.899 29.6453Z" fill="#4D9EAF"/>
<path fill-rule="evenodd" clip-rule="evenodd" d="M263.041 73.1781C263.335 72.756 263.542 72.4567 263.87 71.9856C264.173 71.8709 264.685 71.6776 265.276 71.4535C265.359 71.9138 265.419 72.2474 265.506 72.7225C265.759 72.6433 265.997 72.5688 266.235 72.4943C266.984 72.2762 266.55 73.3989 267.284 73.4855C267.606 73.523 267.852 74.2565 268.227 74.8142C268.41 75.6127 268.174 76.471 267.567 77.2635C267.662 77.3736 267.77 77.4997 267.895 77.6454C267.728 77.799 267.556 77.9581 267.361 78.1386C267.265 78.0513 267.057 77.8359 267.04 77.8514C266.115 78.6701 265.39 77.8017 264.62 77.5273C263.955 77.2904 263.332 76.928 262.708 76.6307C262.342 75.8738 261.976 75.1181 261.556 74.2505C261.505 72.6681 261.616 72.3829 262.782 71.4917C262.867 72.0447 262.941 72.5252 263.041 73.1781Z" fill="#4D9EAF"/>
<path fill-rule="evenodd" clip-rule="evenodd" d="M293.23 70.1053C292.323 69.8126 291.649 69.5957 291.001 69.387V68.9368C289.96 68.6478 288.927 68.3618 287.836 68.0595C287.579 66.8798 287.353 65.8375 287.162 64.9572C287.952 64.1453 289.086 64.0881 289.388 63.083C289.507 62.6833 290.421 62.4597 291.228 62.0162C291.386 62.3513 291.538 62.6714 291.722 63.06C291.708 63.0897 291.571 63.4024 291.433 63.7152C291.547 63.7761 291.663 63.837 291.777 63.8979C292.011 63.5711 292.245 63.2442 292.585 62.7695C293.426 63.7375 294.413 64.4387 294.672 65.3019C294.909 66.0879 295.52 66.8478 295.117 67.8945C294.714 68.9383 293.135 68.8239 293.23 70.1053Z" fill="#4D9EAF"/>
<path fill-rule="evenodd" clip-rule="evenodd" d="M249.413 47.9487H247.191C246.701 48.5544 247.548 49.521 245.759 49.8826C244.197 49.8305 242.451 49.0912 241.324 47.3817V45.8319C241.935 45.2958 242.335 44.9448 242.804 44.5347C242.888 44.5923 243.097 44.7359 243.307 44.8801C243.935 44.2146 244.774 44.6226 245.332 44.5318C247.09 45.3036 248.75 45.9817 249.413 47.9487Z" fill="#4D9EAF"/>
<path fill-rule="evenodd" clip-rule="evenodd" d="M237.069 80.8906H238.021C238.101 81.102 238.188 81.3286 238.325 81.6886C239.202 81.584 240.387 81.6237 240.771 82.2745C241.243 83.0732 242.446 83.0141 242.672 84.1959V87.4003C241.191 88.2307 240.243 86.5366 238.94 86.8093C238.012 86.2934 237.642 85.3814 236.738 84.8525C236.249 84.5668 235.876 83.9001 235.938 83.219C235.98 82.768 235.946 82.312 235.946 81.8748L237.069 80.8906Z" fill="#4D9EAF"/>
<path fill-rule="evenodd" clip-rule="evenodd" d="M221.95 59.2471C222.262 58.1964 220.655 57.7615 221.224 56.7042C221.675 56.2958 222.162 55.8545 222.802 55.2753C223.759 55.7089 224.872 56.1218 225.876 56.6926C226.906 57.2789 227.261 58.3503 227.842 59.2852C227.654 59.7226 227.481 60.1253 227.285 60.5814C225.357 60.9461 223.777 60.0931 221.95 59.2471Z" fill="#4D9EAF"/>
<path fill-rule="evenodd" clip-rule="evenodd" d="M284.086 91.6762C283.354 90.8876 282.339 90.8663 281.365 90.6075C281.115 90.3119 280.814 89.9538 280.421 89.4883V87.0192C280.666 86.8689 281.019 86.6531 281.622 86.2834C282.051 86.3546 282.806 86.4774 283.461 86.5853C285.093 87.2632 285.106 88.64 285.814 89.8235C285.27 90.406 284.689 91.0299 284.086 91.6762Z" fill="#4D9EAF"/>
<path fill-rule="evenodd" clip-rule="evenodd" d="M248.622 67.5011C248.778 67.5447 248.909 67.5812 249.096 67.6329V69.147C248.833 69.5343 248.608 69.8654 248.446 70.1052C247.584 69.8503 246.846 69.6319 246.022 69.3886C245.991 69.1917 245.945 68.9013 245.896 68.5958C245.761 68.5633 245.63 68.5314 245.468 68.493C245.044 67.2787 246.103 66.5202 246.279 65.4888C246.916 65.5224 247.091 64.3685 247.918 64.8157C247.937 64.8813 247.975 65.0218 248.049 65.2948C248.233 65.3244 248.491 65.3656 248.758 65.4086L249.413 66.1235C249.155 66.573 248.89 67.0359 248.622 67.5011Z" fill="#4D9EAF"/>
<path fill-rule="evenodd" clip-rule="evenodd" d="M301.774 44.6587C302.111 44.4709 302.363 44.33 302.621 44.1855C303.398 45.8797 304.911 47.2106 304.661 49.7936C304.023 50.2472 303.309 50.755 302.64 51.2308C302.12 50.8896 301.604 50.5521 301.184 50.2765C300.695 49.4825 300.252 48.7639 299.76 47.9647C299.617 46.8597 299.46 45.6511 299.296 44.3814C299.695 43.9853 300.038 43.6459 300.547 43.1417H301.606C301.657 43.6025 301.706 44.0482 301.774 44.6587Z" fill="#4D9EAF"/>
<path fill-rule="evenodd" clip-rule="evenodd" d="M306.703 77.0972C306.536 77.3702 306.369 77.6425 306.159 77.9866C306.906 78.3339 307.502 78.4397 308.091 77.6488C308.161 78.0537 308.268 78.2668 308.216 78.4412C308.082 78.8832 307.876 79.307 307.674 79.7987C308.513 79.3812 308.579 79.3212 309.074 78.4531C309.471 79.4175 309.984 80.1941 310.07 81.0071C310.15 81.7616 309.774 82.5548 309.595 83.3472C309.31 83.2367 308.956 83.0212 308.878 83.082C308.166 83.6423 307.457 83.5595 306.737 83.1491C306.013 82.7379 305.414 82.9225 304.935 83.5871C304.553 83.3148 304.319 83.1483 304.036 82.9454C304.163 82.4837 304.295 82.0078 304.433 81.5035C304.05 81.3409 303.724 81.2028 303.34 81.0402C303.554 80.187 303.767 79.3355 304.028 78.2944C304.712 77.8872 305.588 77.3671 306.463 76.8462L306.703 77.0972Z" fill="#4D9EAF"/>
<path fill-rule="evenodd" clip-rule="evenodd" d="M282.339 25.6154C281.77 25.3039 281.327 25.0451 280.867 24.8134C279.678 24.2142 279.68 24.2174 279.265 23.0138C279.159 22.7081 279.042 22.3991 278.876 22.1185C278.65 21.7368 278.335 21.397 278.126 21.0088C277.946 20.6748 277.861 20.2983 277.725 19.9159C278.087 19.486 278.469 19.0618 278.969 18.8745C281.513 20.2828 281.5 19.867 283.117 23.8647C282.856 24.453 282.592 25.0451 282.339 25.6154Z" fill="#4D9EAF"/>
<path fill-rule="evenodd" clip-rule="evenodd" d="M298.008 5.37943C298.199 5.40135 298.522 5.43839 298.857 5.47618C300.057 7.01439 300.952 8.63271 300.543 10.5405C299.912 10.6267 299.361 10.7031 298.76 10.7854C298.273 10.2533 297.766 9.70077 297.476 9.3833C296.769 9.1006 296.179 9.05449 295.981 8.74988C295.28 7.67275 295.129 6.43388 295.337 5.05214C295.828 4.76112 296.376 4.43459 297.033 4.04456C297.364 4.49808 297.657 4.89869 298.008 5.37943Z" fill="#4D9EAF"/>
<path fill-rule="evenodd" clip-rule="evenodd" d="M297.567 24.2699V25.2623C298.03 25.3046 298.497 25.3475 299.036 25.397V26.2098C300.87 26.8212 300.65 28.2058 300.62 29.595C298.418 29.9628 297.078 28.7023 295.806 27.459C295.621 26.746 295.452 26.0929 295.251 25.3158C295.682 24.5459 296.439 24.2343 297.567 24.2699Z" fill="#4D9EAF"/>
<path fill-rule="evenodd" clip-rule="evenodd" d="M254.812 26.5744C255.306 26.2181 255.721 25.9189 256.142 25.6154C257.316 26.8285 258.993 27.3357 259.691 28.8558C259.892 29.6035 260.02 30.0792 260.198 30.7441C260.071 31.0502 259.861 31.5557 259.718 31.8993C259.381 32.086 259.166 32.2054 258.895 32.3562C258.343 32.0775 257.71 31.7586 257.077 31.4398C255.675 30.3724 254.721 28.9001 254.812 26.5744Z" fill="#4D9EAF"/>
<path fill-rule="evenodd" clip-rule="evenodd" d="M252.076 97.9171C251.633 97.174 251.179 96.4148 250.761 95.7139C250.866 95.2903 250.953 94.9384 251.04 94.5866C250.959 94.5472 250.876 94.5077 250.795 94.4682C251.42 93.5178 252.045 92.5673 252.632 91.6761C254.965 92.2658 255.48 94.47 256.154 96.3241C255.844 97.0269 255.516 97.7709 255.232 98.417C254.28 98.2663 253.278 98.1074 252.076 97.9171Z" fill="#4D9EAF"/>
<path fill-rule="evenodd" clip-rule="evenodd" d="M245.371 12.0608C245.915 11.5526 246.306 11.1888 246.737 10.7854C247.887 10.8481 248.944 10.7194 249.936 11.923C251.091 13.3247 251.623 13.4509 251.948 14.4161C251.969 14.4796 252.054 14.5225 252.109 14.5753C251.509 15.0951 251.675 16.3639 250.098 16.1551C249.572 15.6511 248.761 15.3318 247.728 15.2015C246.908 15.0975 246.202 14.1983 245.368 13.5986C245.613 13.2686 245.78 13.0425 245.955 12.8058C245.81 12.6201 245.64 12.4032 245.371 12.0608Z" fill="#4D9EAF"/>
<path fill-rule="evenodd" clip-rule="evenodd" d="M112.388 261.033C111.519 261.578 110.567 261.929 109.622 262.316C109.095 262.53 108.538 262.235 108.128 262.478C107.504 262.85 106.63 262.581 106.219 263.016C105.624 263.647 104.993 263.605 104.293 263.631C103.988 263.642 103.702 263.607 103.377 263.782C102.298 264.366 102.016 265.368 101.803 266.434C101.706 266.924 101.922 267.42 101.639 267.932C101.381 268.398 102.094 268.926 101.792 269.423C100.883 270.915 101.959 272.71 101.019 274.182C102.076 274.925 100.649 275.994 101.381 276.847C101.635 277.145 100.735 277.559 101.034 278.015C101.597 278.875 101.297 279.85 101.489 280.91C102.429 280.67 103.309 280.473 104.17 280.212C104.569 280.092 104.914 279.754 105.313 279.682C105.696 279.614 106.073 279.639 106.318 279.272C106.797 279.967 106.983 279.254 107.288 279.077C107.655 278.867 108.033 278.672 108.412 278.485C110.089 277.654 111.859 276.993 113.452 276.019C115.627 274.689 117.862 273.425 119.609 271.493C120.525 270.479 121.522 269.537 122.51 268.589C123.737 267.41 124.553 265.952 125.418 264.517C127.398 261.235 127.877 257.535 128.446 253.86C128.487 253.594 128.636 253.192 128.163 253.067C128.041 253.09 127.893 253.078 127.803 253.144C125.822 254.584 123.821 255.956 121.6 257.055C119.881 257.905 117.939 258.354 116.51 259.698C115.755 259.279 115.739 259.268 115.532 259.543C115.468 259.628 115.515 259.794 115.511 259.922C114.689 259.863 114.035 260.972 113.109 260.25C112.785 259.997 112.407 260.039 112.051 260.235C112.091 260.537 112.541 260.658 112.388 261.033ZM129.351 276.91C131.175 275.485 132.435 273.638 133.729 271.824C134.493 272.451 133.209 272.687 133.554 273.205C131.714 275.221 130.117 277.455 127.794 279.031C127.09 279.509 126.334 280.009 125.699 280.632C125.238 281.084 124.767 280.905 124.368 280.463C123.913 280.7 124.296 281.165 124.089 281.471C123.489 281.753 122.813 281.912 122.342 282.435C121.971 282.849 121.17 282.265 120.957 283.034C120.222 282.986 119.945 283.708 119.41 284.009C118.861 284.318 118.19 284.186 117.708 284.672C117.436 284.946 117.136 284.614 116.924 284.371C115.873 285.346 114.758 286.019 113.292 285.195C113.146 285.607 113.032 286.041 112.717 286.215C111.835 286.527 110.908 285.89 110.235 286.69C109.835 286.406 109.576 286.017 109.529 285.473C109.13 285.761 109.398 286.407 108.763 286.31C108.516 286.273 108.298 286.334 108.056 286.495C106.946 287.232 106.934 287.214 105.895 286.323C105.576 286.576 105.786 286.93 105.686 287.382C103.913 287.28 102.904 288.475 102.084 289.858C101.723 289.677 101.872 289.355 101.724 289.156C100.653 289.09 100.205 288.2 99.5762 287.541C99.2923 287.815 99.569 288.169 99.3764 288.502C99.173 288.604 98.8884 288.718 98.6369 288.883C97.9988 289.301 97.4066 289.031 97.2011 288.496C96.9761 287.912 96.5809 287.549 96.182 287.161C95.4202 286.421 94.9826 285.569 95.1608 284.499C94.3962 284.369 94.0426 283.804 93.5769 283.376V282.02C93.919 281.746 94.3717 281.381 94.8187 281.022C93.7875 278.536 92.7648 276.162 91.6437 273.822C90.8625 272.193 90.1784 270.522 89.311 268.925C88.1202 266.735 86.9581 264.534 85.551 262.472C85.0336 261.714 84.8194 260.894 84.9962 259.867C86.0699 258.702 87.3598 257.952 89.0329 258.934C89.51 259.214 89.6681 258.227 90.1468 258.808C90.4055 259.122 90.8841 258.924 91.2585 258.919C91.6832 258.914 92.1317 259.073 92.5284 258.653C92.6908 258.481 93.1443 258.501 93.4439 258.554C94.869 258.802 96.2632 258.363 97.5697 258.055C98.7742 257.772 100.164 257.886 101.233 256.995C101.506 256.767 101.78 257.167 102.015 257.349C102.411 257.042 102.727 256.733 103.259 256.539C105.92 255.569 108.604 254.656 111.197 253.49C112.528 252.891 113.758 252.123 115.07 251.503C116.403 250.873 117.579 249.933 118.853 249.275C120.942 248.197 122.493 246.495 124.398 245.256C125.846 244.315 126.785 242.824 128.332 242.021C129.06 241.644 129.719 241.174 130.67 241.37C130.866 242.792 132.015 242.5 132.965 242.508C133.183 242.725 133.335 242.992 133.558 243.081C135.13 243.706 135.916 245.094 136.832 246.361C136.941 246.512 137.111 246.609 137.086 246.844C136.954 248.118 137.568 249.292 137.51 250.591C137.391 253.255 137.523 255.93 137.46 258.598C137.406 260.894 136.953 263.15 136.278 265.334C135.391 268.208 133.862 270.756 132.064 273.172C131.257 274.257 130.346 275.217 129.405 276.165C129.18 276.391 129.218 276.601 129.351 276.91Z" fill="#5B4DAF"/>
<path fill-rule="evenodd" clip-rule="evenodd" d="M741.695 301.994C743.535 303.029 745.27 304.156 747.131 305.011C749.095 305.914 751.154 306.609 753.295 307.074C755.063 307.458 756.791 308.003 758.633 307.822C760.02 308.546 761.514 308.132 762.957 308.185C763.549 308.206 764.148 307.858 764.745 307.847C765.391 307.836 765.967 307.518 766.537 307.48C768.647 307.34 770.556 306.369 772.637 306.158C772.79 306.143 772.924 305.951 773.123 305.798C773.69 306.17 774.23 306.524 774.902 306.963C774.327 307.386 773.915 307.689 773.251 308.176H775.202C774.984 308.682 774.85 308.993 774.668 309.414C774.738 309.526 774.865 309.73 775.079 310.074C774.803 310.771 774.647 311.735 774.11 312.389C773.362 313.298 772.368 314.029 771.398 314.726C770.985 315.024 770.363 315.183 769.845 315.161C768.694 315.114 767.666 315.854 766.491 315.599C766.319 315.561 766.083 315.813 765.845 315.949C765.769 315.733 765.69 315.509 765.608 315.279H758.31C759.032 315.669 759.792 315.555 760.536 315.573C761.38 315.593 762.227 315.572 763.071 315.579C763.821 315.586 764.572 315.606 765.32 315.965C763.849 315.965 762.376 315.973 760.904 315.963C759.155 315.952 757.372 316.151 755.765 315.193C754.009 315.219 752.424 314.55 750.777 314.075C749.933 313.832 749.316 313.44 748.741 312.863C748.648 312.954 748.558 313.046 748.388 313.216C747.222 312.591 746.077 311.823 744.819 311.356C743.949 311.035 743.608 310.092 742.68 309.922C742.34 309.86 742.035 309.61 741.53 309.352C740.964 309.167 740.048 309.775 739.372 308.992C739.279 309.083 739.188 309.175 739.041 309.32C738.888 309.234 738.717 309.135 738.538 309.033C738.447 309.257 738.357 309.478 738.258 309.723H737.612C737.765 309.473 737.866 309.305 737.97 309.136C737.86 309.086 737.717 308.964 737.648 308.998C737.16 309.234 736.684 309.497 736.211 309.763C735.788 310.002 735.373 310.257 734.857 310.562C734.724 310.477 734.522 310.347 734.288 310.196C734.182 310.416 734.061 310.666 733.937 310.925C733.834 310.83 733.742 310.746 733.64 310.653C733.24 310.975 732.865 311.523 732.428 311.579C731.23 311.732 730.357 312.558 729.256 312.897C728.698 313.068 728.216 313.553 727.755 313.958C726.227 315.304 724.555 316.409 722.672 317.174C722.491 317.005 722.351 316.876 722.208 316.744C721.983 316.969 721.755 317.199 721.461 317.494H719.788C719.546 317.889 719.325 318.252 719.076 318.657H718.392C718.168 318.938 718.013 319.34 717.748 319.43C716.523 319.848 715.402 320.709 713.919 319.9C713.288 319.556 712.306 319.842 711.48 320.162C712.262 320.209 713.043 320.256 713.825 320.304L713.815 320.529H711.196C711.115 320.299 711.035 320.074 710.901 319.695C709.984 320.57 709.045 320.231 708.132 319.837C706.849 319.28 705.608 318.706 704.481 317.799C703.024 316.626 701.477 315.51 699.702 314.797C699.533 314.73 699.392 314.596 699.102 314.402H696.819C696.744 314.288 696.681 314.231 696.692 314.199C696.711 314.144 696.782 314.109 696.821 314.059C696.888 313.972 696.947 313.879 697.062 313.712H695.666C695.571 313.433 695.495 313.209 695.4 312.932C695.251 312.907 695.073 312.878 694.599 312.8C694.837 313.137 694.945 313.29 695.064 313.459C694.964 313.567 694.84 313.703 694.654 313.908C695.09 313.994 695.482 314.071 695.874 314.149C693.319 314.555 690.875 315.564 688.281 315.137C687.811 316.456 686.822 316.785 685.553 316.739C683.896 318.256 682.242 319.845 680.505 321.338C678.694 322.894 676.634 324.181 674.323 324.712C672.375 325.159 670.313 325.892 668.265 324.894C668.107 324.817 667.879 324.876 667.685 324.885C665.706 324.981 663.998 324.119 662.296 323.311C661.584 322.973 661.029 322.312 660.324 321.951C659.356 321.456 658.292 321.219 657.224 320.95C655.315 320.47 653.42 320.693 651.521 320.627C649.767 320.566 648.053 320.85 646.381 321.386C646.204 321.443 645.976 321.442 645.803 321.381C645.635 321.32 645.509 321.147 645.322 320.988C645.244 321.219 645.17 321.439 645.041 321.82C644.733 321.704 644.431 321.589 644.093 321.462C644.059 321.592 644.013 321.766 643.935 322.062C642.353 322.512 641.059 324.02 639.126 323.715L638.548 324.288C638.671 324.424 638.794 324.561 638.964 324.749C638.037 325.437 636.986 326.004 636.229 326.836C635.424 327.72 634.68 328.622 633.507 329.419C633.408 329.629 633.204 330.06 632.962 330.573C632.688 330.729 632.318 330.941 631.986 331.13C631.877 332.299 631.877 332.299 631.291 333L629.599 331.319V327.93C629.684 327.871 630.251 327.672 630.271 327.428C630.354 326.431 631.389 326.128 631.675 325.31C631.977 324.441 632.732 323.923 633.32 323.272C634.121 322.384 634.909 321.483 635.664 320.554C637.365 318.464 640.883 316.298 644.088 315.565C644.845 315.392 645.555 315.026 646.305 314.812C647.014 314.61 647.791 315.074 648.518 314.457C648.819 314.202 649.522 314.415 649.593 314.415C650.18 314.714 650.471 314.862 650.812 315.035C650.557 315.387 650.416 315.582 650.213 315.862H652.597C651.962 315.642 651.736 315.564 651.366 315.435C652.435 314.322 653.458 313.476 655.053 314.341C655.205 314.424 655.421 314.409 655.607 314.412C658.02 314.446 660.122 315.263 662.104 316.637C662.906 317.193 663.967 317.643 665.037 317.495C666.086 317.35 667.003 317.853 667.999 317.902C671.023 318.051 673.649 316.936 676.066 315.278C677.347 314.4 678.602 313.454 679.735 312.396C681.704 310.56 684.067 309.452 686.558 308.628C688.348 308.036 690.262 307.822 692.093 307.376C694.013 306.91 695.907 307.24 697.795 307.025C699.019 306.886 699.984 307.438 700.903 308.005C702.933 309.256 704.86 310.668 706.877 311.941C707.806 312.526 708.93 312.692 710.002 312.844C711.965 313.122 713.853 312.6 715.671 311.963C717.14 311.449 718.534 310.721 719.95 310.067C722.327 308.968 724.496 307.528 726.713 306.147C728.946 304.757 731.341 303.553 734.038 303.148C734.862 303.024 735.658 302.676 736.45 302.389C738.182 301.76 739.974 302.093 741.695 301.994Z" fill="#4D9EAF"/>
</svg>
