<svg width="81" height="90" viewBox="0 0 81 90" fill="none" xmlns="http://www.w3.org/2000/svg">
<path fill-rule="evenodd" clip-rule="evenodd" d="M42.7468 68.7631C49.2145 62.1361 54.5818 54.7175 58.8118 46.4806C63.0502 38.2276 66.1051 29.6032 66.9467 20.2942C63.8634 38.9581 54.9464 54.6767 42.7468 68.7631ZM61.7979 19.7299C61.1728 21.0368 60.9841 22.4207 61.075 23.854C60.5853 24.0056 60.7125 24.47 60.623 24.8043C60.1061 26.7365 59.7304 28.7063 59.0602 30.5977C58.9988 30.7713 58.8229 30.9907 59.1587 31.2272C59.8941 28.7601 60.7697 26.3767 61.0375 23.8291C61.4536 22.4869 61.7218 21.1182 61.7658 19.7063C62.0784 18.4114 62.1793 17.0952 62.1724 15.7681C62.0792 17.0913 61.4787 18.3668 61.7979 19.7299ZM60.8604 10.7923C60.8437 22.868 57.2285 34.0035 51.7384 44.6541C51.9247 44.3507 52.1263 44.0555 52.296 43.7432C57.5605 34.0536 60.8735 23.7815 61.5381 12.7077C61.7488 9.20103 61.8383 5.68452 62.2847 2.19434C62.3697 1.53124 62.1577 0.729028 63.4334 1.12855C64.045 1.32018 64.7965 0.649326 65.5319 0.461459C66.1294 0.308577 66.1313 0.112519 66.3134 0.664236C66.4503 1.0781 66.9692 1.17884 66.9524 1.67496C67.2756 1.48353 67.0343 0.919274 67.4263 0.951371C67.8582 0.986703 67.9759 1.39252 68.0667 1.80464C68.836 5.28527 69.2349 8.80634 69.3689 12.367C69.6459 19.7288 68.6388 26.9142 66.4319 33.9251C63.5436 43.1004 59.1537 51.5184 53.6316 59.3733C47.066 68.7119 38.8506 76.3083 29.4224 82.6393C26.022 84.923 22.5328 87.0544 18.5682 88.251C18.1613 88.3739 17.7527 88.497 17.3384 88.5912C17.0044 88.6671 16.5712 88.8235 16.7578 88.1614C16.8209 87.9364 16.7213 87.692 16.4997 87.8174C15.5686 88.3427 14.9139 87.5811 14.1292 87.4035C13.209 87.1952 12.9141 86.3879 12.6104 85.784C12.2456 85.0591 12.6881 84.4257 13.5183 83.9676C21.353 79.6419 27.9275 73.7288 34.0575 67.297C43.0044 57.9088 50.1831 47.3225 55.2253 35.3271C58.0532 28.5998 59.7994 21.5957 60.4833 14.3249C60.5944 13.146 60.734 11.97 60.8604 10.7923Z" fill="white"/>
<path fill-rule="evenodd" clip-rule="evenodd" d="M46.6054 16.8676C47.1028 15.7674 47.2055 14.5872 47.0416 13.3838C46.8963 14.545 46.7507 15.7064 46.6054 16.8676ZM44.6171 12.6296C44.4074 14.1768 43.8036 15.6594 43.9755 17.24C44.3499 15.7192 44.6897 14.1953 44.6171 12.6296ZM44.0577 9.21986C42.9132 13.8337 42.1531 18.5337 40.6952 23.0774C42.8024 18.6864 43.3635 13.9366 44.0577 9.21986ZM44.258 33.5043C48.8282 26.9356 50.8124 17.4101 50.002 12.0512C49.4822 19.704 49.3408 20.2277 44.258 33.5043ZM26.1206 45.8276C25.7996 46.2321 25.5487 46.5478 25.0816 47.1359C25.1892 46.0669 25.5701 45.469 25.9515 44.8749C27.7427 42.0891 29.6842 39.4083 31.6939 36.7728C35.1622 32.2249 38.2289 27.4488 40.2251 22.0649C41.4942 18.6416 42.1613 15.0743 42.9166 11.5259C43.1308 10.5195 43.3099 9.45893 43.7879 8.57168C44.053 8.07922 44.8083 7.80001 45.0326 7.1504C45.5449 7.32873 45.1449 7.84611 45.4886 8.03114C46.1374 7.54649 46.5886 6.51853 47.6989 7.29772C47.8514 7.40483 47.9313 6.97995 48.0376 6.80095C48.2799 6.39351 48.615 6.1874 49.092 6.27686C49.5744 6.36712 49.8955 6.58244 50.0542 7.11781C50.2745 7.85937 50.0063 8.60737 50.1573 9.47853C50.7121 9.01788 50.4467 8.48217 50.5837 8.06303C50.6798 7.76998 50.5248 7.28439 51.0199 7.23496C51.4758 7.18915 51.7134 7.53177 51.8454 7.90932C51.9583 8.23201 52.0466 8.5708 52.0895 8.90956C53.2183 17.8346 51.6491 26.2584 47.1986 34.1474C44.9061 38.2118 42.3596 42.0952 39.0476 45.4419C37.4234 47.0828 35.4963 48.2802 33.4168 49.2542C32.7445 49.5689 32.0538 49.8159 31.3296 49.3171C31.1658 49.2042 30.8826 49.2084 30.6632 49.2344C28.847 49.4518 27.4192 48.5174 26.0377 47.611C25.4609 47.2329 26.3082 46.5853 26.1206 45.8276Z" fill="white"/>
<path fill-rule="evenodd" clip-rule="evenodd" d="M62.0793 1.98523C61.6553 4.3607 61.8653 6.7665 61.2897 9.2177C60.9451 8.2806 61.4638 3.28856 62.0793 1.98523Z" fill="white"/>
</svg>
