<svg width="173" height="240" viewBox="0 0 173 240" fill="none" xmlns="http://www.w3.org/2000/svg">
<path fill-rule="evenodd" clip-rule="evenodd" d="M6.26861 76.0268C6.16431 75.6364 5.96504 75.4261 5.59737 75.4972C4.96459 75.619 4.61033 76.0082 4.5742 76.6619C4.55439 77.0203 4.76532 77.0896 5.06365 77.0366C5.67662 76.9276 5.96096 76.4493 6.26861 76.0268ZM3.03183 191.136C3.65704 189.378 4.06199 187.564 4.58756 185.782C3.5574 187.415 2.99978 189.19 3.03183 191.136ZM7.66526 72.381C10.2733 69.5691 12.9949 66.8684 15.7591 64.2097C12.4 66.2834 9.80541 69.1082 7.66526 72.381ZM59.065 44.5503C64.4494 42.1148 68.9278 38.4661 73.2023 34.5342C68.7431 37.8846 64.2898 41.2384 59.5293 44.16C59.3592 44.2648 59.2194 44.4192 59.065 44.5503ZM120.646 179.87C119.081 185.217 115.974 189.751 114.41 194.942C116.377 193.554 121.456 181.611 120.646 179.87ZM57.4906 233.029C58.5406 233.029 59.6005 233.12 60.6394 233.012C64.8964 232.575 69.0974 231.767 73.2979 230.972C79.5301 229.792 85.2788 227.144 91.1766 224.97C93.8976 223.967 96.5004 222.599 98.344 220.185C104.436 212.208 109.341 203.62 112.823 194.141C115.603 186.576 119.219 179.323 122.189 171.823C124.31 166.469 125.664 160.86 126.27 155.103C126.775 150.308 126.492 145.499 126.526 140.693C126.554 136.742 126.484 132.793 126.733 128.828C126.908 126.036 126.281 123.128 126.042 120.267C125.619 115.231 125.696 110.256 127.226 105.371C128.639 100.863 130.553 96.5712 132.931 92.5164C137.743 84.3066 143.775 76.9929 150.103 69.9315C153.502 66.1395 156.835 62.3102 159.646 58.0596C164.817 50.2384 167.298 41.6003 167.084 32.2473C166.917 24.9353 163.714 19.2584 157.406 15.4011C146.441 8.69688 134.865 6.55148 122.437 10.6343C112.813 13.7964 104.244 18.8208 96.4043 25.2022C91.5151 29.1824 87.0513 33.6381 82.1755 37.63C75.5348 43.068 68.788 48.3441 60.9668 52.0418C54.9141 54.9038 48.5519 56.917 42.153 58.8095C36.6904 60.4252 31.4814 62.6062 26.5601 65.4688C20.8803 68.7726 16.0837 72.9993 12.7637 78.7578C12.3692 79.4436 12.354 79.4349 11.4556 79.4535C11.1829 79.4593 11.166 79.686 11.0745 79.8678C10.2436 81.5255 9.70113 83.2549 9.67899 85.1293C9.66384 86.3954 10.1527 88.2064 9.7192 88.8159C8.3272 90.7713 9.37542 92.6656 9.63179 94.3134C9.95052 96.3574 10.486 98.4783 11.1124 100.526C12.6838 105.668 14.4895 110.717 17.0504 115.44C19.3985 119.773 21.6733 124.144 22.3509 129.052C22.5467 130.474 24.2609 132.098 22.4313 133.617C22.4307 133.617 22.5595 133.759 22.6143 133.843C23.5856 135.34 24.0762 137.03 24.1502 138.766C24.2219 140.424 24.8144 141.974 24.8855 143.613C25.0003 146.258 25.9815 148.83 25.4146 151.547C25.1571 152.783 25.2171 154.095 25.2147 155.373C25.2095 158.217 24.2458 160.927 24.0966 163.778C24.0407 164.846 23.1078 166.203 22.5939 167.426C20.7515 171.81 17.4833 175.149 14.616 178.807C11.9182 182.248 8.88714 185.621 8.60338 190.338C8.48918 192.241 7.92282 194.25 8.90462 196.035C11.5459 200.835 12.935 206.276 16.5586 210.579C19.3787 213.928 21.2724 217.986 24.7084 220.896C28.0687 223.741 31.2768 226.805 35.1586 228.907C37.0639 229.939 38.9961 230.996 41.2329 231.489C46.6075 232.676 52.0141 233.104 57.4906 233.029ZM101.971 11.5345C102.267 11.4448 102.588 11.3999 102.857 11.2571C109.566 7.68885 116.559 4.8629 123.975 3.12771C124.243 3.06478 124.611 3.0741 124.77 2.66215C124.268 2.73382 123.797 2.78976 123.33 2.87075C117.172 3.9417 111.464 6.29161 105.92 9.07445C104.54 9.76724 103.03 10.305 101.999 11.5671C100.345 11.6825 99.3363 13.0774 97.9058 13.6513C97.6553 13.7515 97.3849 14.2072 97.7672 14.5941C97.8942 14.7223 98.0696 14.805 98.1482 14.6541C98.9809 13.0663 101 12.9422 101.971 11.5345ZM83.2272 35.6873C85.1465 34.4934 86.6737 32.8626 88.198 31.2299C86.5566 32.7314 84.5732 33.8578 83.2581 35.72C81.8568 36.2164 80.9612 37.3544 79.9608 38.3577C81.2321 37.6946 82.3235 36.8066 83.2272 35.6873ZM125.579 188.366C124.465 191.414 123.398 194.443 121.143 196.953C119.78 198.469 118.694 200.294 117.795 202.133C117.469 202.801 116.871 203.002 116.53 203.599C115.734 204.992 115.443 206.566 114.424 207.92C112.128 210.97 109.862 214.035 107.466 217.014C105.884 218.98 104.404 221.046 102.761 222.966C99.6993 226.542 95.7914 228.941 91.4534 230.649C86.4407 232.622 81.4751 234.764 76.3511 236.401C66.8023 239.45 57.056 240.678 46.9694 239.475C40.8927 238.75 34.9745 237.603 29.7666 234.499C21.4379 229.535 14.5717 222.925 9.72214 214.397C9.54035 214.078 9.3067 213.788 9.08819 213.49C7.10595 210.794 5.31657 208.009 4.40643 204.726C3.95545 203.102 3.28945 201.543 2.55412 200.01C0.373187 195.466 0.792128 190.889 2.55354 186.331C4.32661 181.743 7.28774 177.848 10.5979 174.394C15.0209 169.78 17.0964 164.428 17.7572 158.242C18.3719 152.489 17.3621 146.917 16.3372 141.324C15.7085 137.892 15.1462 134.446 14.4709 131.023C13.3813 125.506 10.8432 120.588 8.23691 115.658C4.84402 109.239 2.25055 102.481 0.682586 95.3552C-0.629589 89.3921 0.0171755 83.5368 2.04778 77.9147C3.21779 74.6756 4.73856 71.4965 7.20325 68.8728C9.60269 66.3178 12.0237 63.8158 14.8852 61.7753C21.7624 56.8698 29.3442 53.4285 37.3827 50.9236C46.5603 48.0639 55.4985 44.6803 63.3401 38.9194C69.1505 34.6508 74.6789 30.0442 79.9887 25.1707C87.2191 18.5347 94.7921 12.3572 103.544 7.78848C112.027 3.36018 120.888 -0.086897 130.586 0.00166895C145.181 0.135101 157.679 5.2929 166.532 17.2983C173.079 26.1782 174.14 36.3533 172.001 46.9766C171.614 48.8947 171.223 50.8123 170.775 52.7165C169.623 57.608 167.634 62.1056 164.711 66.2309C163.008 68.635 161.172 70.9372 159.467 73.3156C157.466 76.1072 155.238 78.6651 152.935 81.159C150.268 84.0473 147.904 87.1465 145.658 90.3553C144.876 91.4728 143.635 92.1511 142.878 93.3537C140.017 97.9014 137.042 102.382 134.999 107.384C133.896 110.084 132.771 112.717 132.554 115.76C132.422 117.625 132.535 119.485 132.373 121.339C132.129 124.116 132.608 126.853 133.05 129.567C133.219 130.608 131.956 131.452 132.228 131.524C133.701 131.915 132.665 132.743 132.695 133.344C132.713 133.7 132.487 134.09 132.568 134.416C133.935 139.963 133.344 145.627 133.46 151.229C133.569 156.43 134.023 161.728 132.617 166.826C132.104 168.684 131.73 170.593 131.189 172.451C130.539 174.68 129.34 176.771 129.141 179.096C128.859 182.371 127.204 185.116 126.012 188.044C125.946 188.205 125.705 188.295 125.543 188.422C125.695 186.678 127.123 185.378 127.173 183.585C125.95 186.185 124.422 188.649 123.788 191.516C124.385 190.466 124.982 189.416 125.579 188.366Z" fill="#5B4DAF"/>
<path fill-rule="evenodd" clip-rule="evenodd" d="M71.8243 61.1516C75.2428 59.1455 78.0146 56.3964 80.6092 53.4458C77.6918 56.0276 74.8239 58.6648 71.8243 61.1516ZM91.5849 43.982C91.4713 43.8608 91.3577 43.7396 91.2441 43.6184C88.2486 46.3552 85.0037 48.8129 82.4026 51.9914L91.5849 43.982ZM22.722 188.999C20.9664 190.742 20.167 196.147 21.3189 197.259C21.6475 194.523 21.6563 191.683 22.722 188.999ZM36.0122 80.1257C31.8933 82.9173 28.2172 86.1196 26.4377 90.9931C29.2701 87.0525 32.3816 83.3653 36.0122 80.1257ZM97.2094 39.0171C104.096 33.6227 111.318 28.8343 119.398 25.4362C114.105 26.1372 99.4212 35.8404 97.2094 39.0171ZM94.7873 167.678C93.1418 170.965 92.1222 174.485 91.1532 177.997C90.1621 181.588 88.8242 185.055 87.6636 188.581C86.5664 191.914 84.9809 195.087 83.6105 198.33C89.4757 188.871 91.663 178.113 94.7873 167.678ZM35.8671 114.92C35.8945 114.718 35.8496 114.427 35.965 114.333C36.1736 114.163 36.2814 114.422 36.4201 114.576C36.8128 115.007 36.6292 115.658 37.1676 116.089C38.1611 116.885 38.8446 117.886 39.3392 119.15C39.7611 120.228 40.9125 121.012 41.6973 121.961C41.8727 122.173 42.0924 122.531 41.8663 122.831C41.4462 123.389 41.783 123.572 42.2456 123.703C42.8172 123.864 43.1196 124.296 43.3136 124.794C44.014 126.589 44.9463 128.293 45.1549 130.27C45.2895 131.546 45.4952 133.07 45.9677 134.001C47.2834 136.593 47.3312 139.327 47.2065 141.924C47.0934 144.276 46.6413 146.685 46.7496 149.041C46.8429 151.076 45.8191 152.735 45.5342 154.63C45.1893 156.925 43.5986 158.927 43.2851 161.312C43.0916 162.777 41.5452 163.89 41.5586 165.05C41.5889 167.732 39.2134 169.175 38.7939 171.594C38.6604 172.363 38.3452 173.515 37.6763 174.247C36.3018 175.749 35.8997 177.828 34.4763 179.324C32.684 181.209 31.7534 183.732 29.8423 185.602C28.6944 186.726 27.7971 188.176 26.7926 189.469C25.8825 190.639 25.964 192.454 25.6634 194.001C25.2275 196.24 26.5123 197.984 27.0921 199.951C28.4777 204.651 31.3654 208.536 34.746 211.671C41.3483 217.793 49.2557 219.805 58.0476 216.601C58.9403 216.275 59.8318 215.948 60.732 215.646C66.011 213.873 70.5716 210.943 74.8076 207.348C80.3511 202.642 82.976 196.08 86.0473 189.869C87.1217 187.697 87.5395 185.033 88.3506 182.621C88.9059 180.97 89.5037 179.321 89.8859 177.626C90.2711 175.917 90.7961 174.256 91.3076 172.59C91.8181 170.927 92.5371 169.321 92.9415 167.636C93.3015 166.137 94.0386 164.798 94.3492 163.245C94.7641 161.168 95.4417 159.1 96.0057 157.027C98.0334 149.574 99.5501 142.022 100.464 134.347C100.97 130.094 101.339 125.8 102.22 121.619C105.066 108.105 111.289 96.1649 119.86 85.4338C123.691 80.6379 127.755 76.0266 131.765 71.3763C137.508 64.7181 140.624 56.7932 142.972 48.4797C144.432 43.3108 144.179 38.2043 142.282 33.216C141.2 30.3732 139.588 27.9994 136.188 27.4383C133.022 26.9156 129.932 27.6655 126.939 28.2191C125.158 28.5488 123.219 29.3955 121.433 30.2596C117.147 32.3333 112.801 34.2917 109.074 37.3099C108.187 38.0277 107.082 38.1239 106.195 38.8411C105.06 39.7589 104.267 40.9982 103.029 41.8227C102.318 42.2952 101.467 42.3412 100.811 42.9472C96.6542 46.787 91.9556 50.0168 88.2038 54.3215C86.9015 55.8167 85.2927 57.0409 83.8739 58.4393C78.5466 63.6874 72.347 67.614 65.3631 70.1795C56.8013 73.3248 48.8111 77.541 41.3366 82.6924C38.4786 84.6618 35.4173 86.5193 33.368 89.5137C32.18 91.2506 30.6522 93.0214 30.4669 95.0112C30.1919 97.9543 29.8924 101.028 30.8946 103.96C31.1364 104.667 30.7052 105.653 30.8556 105.895C31.4353 106.823 31.7849 107.873 32.413 108.763C33.7695 110.688 35.6399 112.333 35.8671 114.92ZM34.2414 171.679C34.6923 171.509 34.8042 171.058 34.9598 170.697C36.4409 167.268 38.0421 163.88 39.0332 160.263C39.613 158.146 40.6303 156.129 40.5971 153.859C39.5734 157.873 37.7892 161.616 36.5219 165.54C35.8495 167.622 34.5915 169.495 34.2752 171.71C32.4648 174.098 31.5762 176.966 30.1126 179.534C31.6607 177.005 33.4804 174.614 34.2414 171.679ZM101.44 162.137C101.377 161.751 101.438 161.408 101.053 161.214C100.985 161.808 100.506 162.376 101.293 162.896C101.75 163.199 101.32 163.691 101.203 164.057C100.149 167.347 99.1241 170.652 98.1062 173.949C97.1378 177.087 95.9812 180.182 95.2552 183.396C94.891 185.009 94.1085 186.46 93.5159 187.982C93.2432 188.681 93.0137 189.348 93.0137 190.108C93.0131 191.654 92.9059 191.694 91.4772 190.882C91.3577 190.814 91.1771 190.855 90.9842 190.842C90.9842 191.014 90.9312 191.184 90.9918 191.286C91.9031 192.799 91.7102 194.613 90.6399 196.07C89.9337 197.032 89.291 198.004 88.9857 199.267C88.5271 201.169 87.2237 202.665 85.7099 203.915C85.5724 204.029 85.2595 203.976 85.2449 204.241C85.1598 205.808 83.8984 206.56 82.9469 207.493C82.0385 208.384 80.9186 209.035 80.065 210.014C78.6042 211.689 76.9611 213.077 74.959 214.192C74.0349 214.708 73.0962 215.686 72.0672 216.089C68.2653 217.579 64.5374 219.247 60.6865 220.636C54.1798 222.984 47.7739 222.295 41.3162 220.728C37.5172 219.806 34.0829 218.107 30.9435 215.773C29.7432 214.88 28.7719 213.793 27.7854 212.69C24.0161 208.478 21.3737 203.656 20.0464 198.174C19.1963 194.664 19.7323 191.231 21.4908 188.071C21.9535 187.239 22.3095 186.149 23.8705 186.337C24.5504 186.419 25.2252 185.154 25.7525 184.352C29.481 178.676 32.5126 172.647 34.954 166.313C37.5242 159.646 39.7669 152.909 40.6327 145.752C41.2614 140.557 40.5593 135.575 39.2932 130.562C38.2793 126.546 36.184 123.19 33.7916 119.921C31.9987 117.472 30.3952 114.886 28.625 112.419C27.9975 111.545 28.7894 110.987 28.9752 109.863C28.0063 111.181 27.8472 110.916 27.4347 109.833C27.0221 108.749 26.2658 107.738 25.6686 106.688C24.3914 104.44 23.6613 101.989 23.6368 99.464C23.6275 98.5061 23.127 97.7066 23.2563 96.8C23.4189 95.6568 23.4987 94.4845 23.8221 93.385C24.3931 91.4406 24.7515 89.3907 26.6521 88.0704C27.1771 87.7057 26.8654 86.5741 27.462 85.9338C30.0153 83.1923 32.4194 80.2708 35.6124 78.2378C43.2093 73.4005 51.1663 69.2804 59.5014 65.8089C65.3048 63.3914 70.8454 60.3376 75.4193 55.8464C82.1503 49.2377 89.2304 43.0171 96.5143 37.0314C103.42 31.3573 110.818 26.4879 119.303 23.4412C122.866 22.1622 126.518 21.403 130.294 21.1425C135.682 20.7708 139.717 23.2232 142.848 27.2967C148.86 35.1202 150.271 43.9249 147.958 53.3933C146.403 59.7614 144.112 65.8677 140.882 71.5837C139.365 74.2664 137.92 76.9816 135.419 79.0227C134.225 79.9963 133.586 81.6406 132.669 82.9621C129.533 87.4802 125.587 91.3543 122.465 95.8998C121.075 97.9234 119.899 100.058 118.589 102.119C115.729 106.615 113.777 111.578 111.627 116.417C109.74 120.663 109.058 125.302 108.378 129.901C107.646 134.855 106.871 139.805 106.027 144.742C105.54 147.593 105.2 150.537 104.186 153.209C103.481 155.065 103.455 157.042 102.612 158.842C102.128 159.874 102.648 161.287 101.44 162.137Z" fill="#5B4DAF"/>
<path fill-rule="evenodd" clip-rule="evenodd" d="M83.8878 141.815C84.0463 141.898 84.2054 141.982 84.3639 142.066C84.8731 140.714 86.3205 139.754 85.6545 137.908C85.0654 139.211 84.4769 140.513 83.8878 141.815ZM53.5436 90.9992C50.2392 91.6198 46.8504 94.7312 47.1948 96.8393C48.7948 94.2266 51.1138 92.5526 53.5436 90.9992ZM81.5426 71.0282C81.4459 70.8994 81.3486 70.7712 81.2519 70.6436C76.8492 74.4595 72.446 78.276 68.0439 82.0925C68.1371 82.2015 68.2309 82.3104 68.3247 82.42L81.5426 71.0282ZM94.2529 58.8859C98.3916 55.8298 102.645 52.9508 107.217 50.5561C111.838 48.1351 116.513 45.8329 121.253 43.6858C111.622 47.6194 102.104 51.7651 94.2529 58.8859ZM64.5147 182.467C65.6282 180.652 66.9794 179.052 67.8878 177.067C69.944 172.577 72.3306 168.236 74.2872 163.69C77.2035 156.917 80.2724 150.216 83.8704 143.771C84.0953 143.367 84.3045 142.961 83.7073 142.375C76.5509 155.489 71.463 169.428 64.5147 182.467ZM94.6708 65.882C92.8051 66.717 91.8827 68.5215 90.5437 69.8984C88.7852 70.9204 87.8127 72.761 86.2477 73.9957C83.5493 76.1242 80.7793 78.1845 78.2552 80.5082C73.0316 85.3182 67.2637 89.2465 60.8677 92.3382C58.4933 93.4866 55.7233 93.732 53.6945 95.7177C52.4534 96.932 50.9448 97.9138 50.833 99.8156C50.6669 102.633 51.1074 105.356 52.465 107.889C54.9752 112.571 58.3564 116.665 61.3117 121.046C64.383 125.599 67.1273 130.232 67.8266 135.902C68.4943 141.325 68.0923 146.701 67.7735 152.086C67.7089 153.177 66.9706 154.217 66.9304 155.48C66.875 157.244 66.857 159.206 65.7365 160.651C63.7152 163.26 63.0452 166.443 61.7219 169.339C61.2884 170.288 61.5541 171.688 60.7203 172.415C59.6074 173.385 59.3079 174.662 58.7753 175.882C58.5679 176.358 58.2795 176.836 57.9142 177.199C56.7086 178.398 55.9494 179.98 55.1098 181.348C53.4614 184.033 51.6266 186.41 49.311 188.517C48.6439 189.125 47.5898 189.051 47.1889 189.998C46.7881 190.944 46.051 191.644 45.2784 192.296C44.4894 192.962 44.0862 193.833 43.7727 194.852C44.3513 195.018 44.7248 194.782 45.1059 194.642C47.503 193.764 49.5528 192.216 51.8678 191.163C55.9284 189.316 59.3539 186.636 62.0663 183.054C64.0957 180.373 65.4731 177.341 66.9257 174.349C69.8041 168.42 72.7291 162.51 75.4287 156.5C76.9407 153.132 78.5133 149.799 80.1867 146.517C82.9673 141.063 85.4448 135.469 87.8594 129.854C89.7932 125.357 91.3938 120.721 92.4415 115.914C93.3551 111.717 94.9481 107.739 96.5056 103.754C99.4708 96.1664 102.487 88.6091 107.376 81.9737C111.768 76.0118 116.217 70.0901 120.186 63.8264C123.148 59.151 125.72 54.3119 126.982 48.8762C127.117 48.293 127.549 47.5279 127.053 47.0991C126.633 46.7355 125.948 47.2133 125.417 47.423C119.851 49.6255 114.494 52.2481 109.31 55.2483C108.373 55.7902 107.541 57.0155 106.109 56.4165C105.906 56.3321 105.484 56.6158 105.607 56.8588C106.041 57.7177 105.198 57.7072 104.876 57.9204C102.837 59.2681 100.824 60.6485 98.8357 62.0708C97.28 63.1831 96.1991 64.7686 94.6708 65.882ZM53.589 175.773C54.0383 175.741 54.167 175.377 54.3319 175.054C56.4179 170.96 57.9649 166.628 59.8592 162.452C60.7675 160.447 60.457 158.041 61.983 156.258C62.244 155.953 62.1619 155.652 61.7977 155.496C61.3199 155.291 61.0629 155.61 61.0093 156C60.8019 157.523 60.0747 158.858 59.5696 160.276C58.2679 163.927 57.1526 167.632 55.411 171.133C54.6874 172.589 53.885 174.122 53.6257 175.808C52.3386 177.513 51.4197 179.412 50.7013 181.415C51.6027 179.503 53.3315 178.016 53.589 175.773ZM110.123 87.0208C110.688 87.9775 110.496 88.5782 110.116 89.5047C109.19 91.7637 107.3 93.5385 106.942 96.0586C106.815 96.9582 106.117 97.6376 105.689 98.3945C104.6 100.321 104.391 102.562 103.411 104.439C102.482 106.22 102.083 108.17 101.136 109.911C100.633 110.835 100.81 111.986 100.154 112.882C99.712 113.486 98.6189 117.243 98.4919 117.966C98.1732 119.788 97.8026 121.601 97.4349 123.413C97.372 123.724 97.2322 124.044 96.8086 123.977C96.3716 123.908 96.1601 124.107 96.3279 124.495C96.956 125.95 96.2061 127.252 95.6473 128.394C94.0222 131.713 92.611 135.125 91.184 138.522C90.9014 139.196 89.5887 139.013 90.0566 140.355C90.2926 141.033 89.5298 142.207 89.0019 143.083C88.488 143.938 88.1425 144.893 87.6769 145.78C84.2479 152.317 81.0968 158.984 78.1112 165.736C76.4553 169.481 74.4789 173.084 72.7344 176.792C72.2939 177.729 72.0054 178.78 71.7094 179.783C71.4373 180.703 71.0382 182.023 69.9136 182.602C69.705 182.709 69.5751 182.804 69.5069 183.018C68.1318 187.348 64.4377 189.613 61.1433 192.15C58.7846 193.966 55.908 195.039 53.2318 196.294C51.5758 197.07 50.0527 198.305 48.1235 198.578C46.1896 198.852 44.2686 199.201 42.3079 199.24C40.406 199.279 38.6475 198.834 37.0726 197.74C36.2475 197.168 36.1222 196.441 36.4823 195.522C37.3744 193.243 38.7198 191.336 40.7918 189.981C41.5854 189.461 42.4337 189.011 42.9622 188.163C43.3392 187.558 43.9778 188.32 44.6782 187.631C47.1563 185.194 48.6998 182.23 50.2893 179.251C53.5814 173.079 56.0321 166.555 58.3919 159.994C59.4128 157.155 59.9441 154.195 60.4085 151.218C60.7022 149.339 60.8997 147.459 61.0256 145.564C61.0833 144.685 61.4369 143.963 62.5155 144.498C63.1587 144.818 63.3569 144.35 63.6587 144.019C63.8731 143.783 63.8294 143.514 63.6231 143.316C63.2467 142.956 62.9198 143.331 62.6256 143.475C61.4183 144.062 61.0238 143.712 61.085 142.391C61.2552 138.753 61.3472 135.114 60.4021 131.537C59.9319 129.755 59.2717 128.045 58.4111 126.43C55.8958 121.706 52.6468 117.448 49.7736 112.951C47.6719 109.659 45.5102 106.367 45.0686 102.349C44.9654 101.414 44.2231 100.274 45.5166 99.515C45.5883 99.4736 45.6512 99.3408 45.6454 99.2557C45.3949 95.5802 45.5085 95.4881 48.0064 92.9121C49.6274 91.2405 51.6044 90.0775 53.6187 89.1516C61.0302 85.7435 67.2759 80.785 73.3899 75.4786C80.8323 69.0186 87.6129 61.8109 95.3449 55.7168C103.816 49.0417 113.505 44.4677 123.79 41.3079C129.218 39.6403 133.241 43.6916 132.057 49.3255C130.876 54.9506 128.742 60.2156 125.909 65.2248C122.656 70.9746 118.928 76.422 115.322 81.941C114.332 83.4554 113.493 85.098 112.287 86.4952C111.661 87.2195 111.196 87.8557 110.123 87.0208Z" fill="#5B4DAF"/>
<path fill-rule="evenodd" clip-rule="evenodd" d="M94.6708 65.8822C93.7356 67.6727 92.2637 68.9138 90.5437 69.8985C91.8827 68.5217 92.805 66.7171 94.6708 65.8822Z" fill="#5B4DAF"/>
</svg>
