<svg width="279" height="219" viewBox="0 0 279 219" fill="none" xmlns="http://www.w3.org/2000/svg">
<path fill-rule="evenodd" clip-rule="evenodd" d="M255.311 173.998C258.341 173.189 264.934 167.547 265.299 165.293C262.258 168.91 258.915 171.611 255.311 173.998ZM49.4788 19.7399C49.1962 19.2906 49.5755 18.8615 49.5477 18.3786C48.887 19.0358 47.6589 19.0485 47.4939 20.4793C48.2634 20.0862 48.7787 19.5181 49.5233 19.6936C48.6843 20.964 47.1424 21.6003 46.6537 23.2638C46.3891 24.1636 44.9525 24.357 44.4627 25.3315C43.1981 24.4028 43.5108 25.5099 43.4668 26.115C43.4216 26.7444 42.8987 26.9777 42.4946 27.2661C42.0215 27.6025 41.7048 28.0275 41.3406 28.4675C39.4819 30.7089 37.5057 32.8525 35.6065 35.0609C34.8937 35.8895 34.0009 36.6399 33.434 37.4685C32.8283 38.3538 32.3176 39.3873 31.6848 40.3132C29.3467 43.7306 26.7683 47.0142 24.7527 50.6123C22.3405 54.9197 19.82 59.1865 17.8067 63.7156C16.105 67.5447 14.1097 71.2586 12.9059 75.2863C12.1421 77.8427 10.7994 80.1692 10.3408 82.8616C9.79592 86.0665 8.67088 89.1481 8.18971 92.3976C7.591 96.4426 6.82437 100.48 6.56381 104.548C6.1996 110.24 5.74391 115.929 5.57657 121.639C5.32586 130.181 5.52736 138.66 7.50357 147.02C8.57592 151.558 9.83877 156.052 11.8323 160.268C16.5114 170.163 22.8263 179.05 29.2482 187.854C36.2863 197.503 45.3677 204.284 56.9071 207.763C65.1309 210.242 73.488 211.946 81.9747 213.197C90.3005 214.425 98.4978 214.078 106.718 212.333C117.239 210.1 127.104 206.111 136.769 201.545C149.32 195.617 161.797 189.529 175.016 185.15C183.453 182.356 192.037 180.448 200.958 180.263C205.706 180.164 210.398 180.861 215.102 181.296C226.982 182.396 238.223 179.981 249.077 175.364C254.492 173.06 259.431 169.992 263.345 165.51C269.302 158.692 271.498 150.483 271.813 141.675C272.14 132.551 269.107 124.405 263.981 117.01C257.24 107.287 250.307 97.691 244.044 87.6473C237.56 77.248 228.968 69.0316 218.606 62.5941C212.057 58.5247 205.539 54.4142 199.336 49.8161C193.497 45.4874 188.017 40.715 182.302 36.2374C176.009 31.3076 169.572 26.5654 162.06 23.5956C155.701 21.0809 149.301 18.6716 142.902 16.2594C136.79 13.9549 130.48 12.2462 124.289 10.1779C122.183 9.47438 119.923 9.0789 117.776 8.86814C115.707 8.6649 114.144 7.28451 111.801 7.42463C109.528 7.56128 106.874 6.67306 104.438 5.94522C103.657 5.71188 102.337 5.70782 101.256 5.71825C99.1787 5.73793 97.0711 5.6974 95.0288 5.36215C93.1186 5.04889 90.8089 6.35112 89.3017 3.97828C89.8223 4.76286 89.8657 5.52138 89.3515 6.09635C88.8669 6.6389 88.073 6.55436 87.417 6.35575C86.1721 5.97939 84.9434 6.18204 83.6881 6.22026C81.7796 6.27932 80.2174 7.57344 78.2806 7.52249C77.7288 7.50801 77.1526 7.00021 76.5707 7.51264C75.6564 8.31864 74.36 8.17099 73.3907 8.62726C71.583 9.47843 69.6473 9.02158 67.861 9.63592C66.6619 10.0488 65.5478 10.5687 64.4419 11.2068C63.4726 11.7656 62.4269 12.3747 61.2335 12.4552C60.625 12.4963 60.2886 13.201 59.6267 13.0852C59.7032 14.4777 58.4478 14.2583 57.7131 14.6873C56.7907 15.2252 55.7195 15.414 54.8544 16.1227C53.1822 17.4921 51.5407 18.9333 49.4788 19.7399ZM50.4092 15.2883C53.0519 13.2287 55.9088 11.4968 58.8254 9.86628C60.6516 8.84604 62.5497 7.9555 64.3927 6.96422C65.1321 6.56643 65.7175 6.38056 66.0568 7.65036C65.6903 6.29892 66.5015 6.02851 67.2942 5.74074C68.3306 5.36495 69.4059 5.06733 70.3908 4.58501C71.3074 4.13684 71.6797 4.37829 71.7544 5.53808C72.1059 3.22546 74.1626 3.34821 75.4381 2.68928C78.1405 1.29383 81.1178 0.552102 84.2219 0.554998C84.7987 0.555577 85.4142 0.570631 85.944 0.384764C87.6613 -0.218579 89.4065 0.0500886 91.1413 0.12073C92.8882 0.191949 94.649 0.246957 96.3733 0.508676C99.2916 0.952787 102.245 1.03038 105.158 1.61577C108.521 2.29149 111.891 2.97937 115.274 3.52944C124.131 4.97006 132.597 7.75922 141.017 10.7111C147.914 13.1291 154.748 15.7324 161.455 18.6385C169.34 22.0553 176.582 26.5706 183.336 31.8704C190.783 37.7139 197.971 43.8909 205.686 49.387C209.71 52.2537 213.957 54.7922 218.177 57.3636C227.31 62.9263 235.521 69.5955 242.383 77.8385C246.702 83.0266 250.203 88.7913 253.846 94.4507C258.231 101.265 263.018 107.8 267.66 114.436C270.933 119.116 273.682 124.061 275.558 129.468C277.165 134.096 278.203 138.868 277.987 143.762C277.76 148.884 277.278 154.003 275.215 158.831C274.266 161.054 273.193 163.164 272.001 165.277C270.349 168.204 268.078 170.427 265.749 172.631C261.058 177.066 255.48 180.05 249.372 182.122C245.192 183.54 240.999 184.88 236.641 185.617C229.507 186.825 222.368 187.019 215.168 186.019C205.049 184.614 195.051 185.274 185.181 188.077C180.277 189.47 175.373 190.927 170.664 192.791C160.657 196.752 150.939 201.413 141.155 205.905C133 209.649 124.75 213.177 116.002 215.382C111.52 216.511 106.99 217.432 102.408 217.922C95.2408 218.687 88.106 218.06 80.9991 216.929C72.7468 215.616 64.6081 213.854 56.6048 211.43C43.9803 207.608 33.5261 200.639 25.528 190.12C19.1535 181.737 13.0981 173.11 8.3252 163.706C1.95709 151.159 -0.602775 137.781 0.118111 123.702C0.475947 116.72 0.810044 109.739 1.53672 102.79C2.38904 94.6302 3.75554 86.547 6.37562 78.7412C8.59213 72.1357 11.152 65.6651 14.4113 59.4875C19.5884 49.6765 25.3572 40.2396 32.5035 31.7308C36.3743 27.1218 40.4691 22.6975 45.341 19.0618C47.0428 17.7914 48.5761 16.2952 50.4457 15.2489C50.4926 15.7665 50.2622 16.0109 49.8123 16.3299C48.4134 17.323 47.011 18.3444 45.9925 19.7722C45.5067 19.7219 45.154 19.8394 44.7655 20.2326C43.3845 21.6297 41.8623 22.8897 40.505 24.3077C38.8948 25.9904 37.0002 27.4275 35.848 29.5207C34.5463 30.3441 33.6934 31.5247 33.0872 32.901C34.0449 31.802 35.6609 31.2114 35.8045 29.4801C36.2903 29.391 36.6632 29.0991 36.9799 28.7552C38.6736 26.9133 40.4819 25.1907 42.2653 23.4409C43.5027 22.2261 45.2745 21.5024 45.9664 19.7444C46.6091 19.9946 46.9206 19.4596 47.3086 19.1538C49.1476 17.7034 50.964 16.2274 52.9344 14.9513C54.1098 14.1899 55.2476 13.3705 56.4027 12.5773C56.3303 12.4702 56.2574 12.363 56.185 12.2559C54.6477 13.1997 53.0896 14.1128 51.5864 15.1076C51.1695 15.3832 50.8916 15.7683 50.4092 15.2883Z" fill="#4D9EAF"/>
</svg>
