<svg width="81" height="87" viewBox="0 0 81 87" fill="none" xmlns="http://www.w3.org/2000/svg">
<path fill-rule="evenodd" clip-rule="evenodd" d="M56.3706 5.33426C56.1997 5.50579 56.057 5.6479 55.8766 5.82831C54.9468 5.72451 53.9864 5.57573 53.0205 5.52133C52.0651 5.46804 51.1037 5.50968 50.145 5.50968C49.3884 5.50968 48.5607 5.31705 47.8934 5.5613C47.1518 5.83331 46.3419 5.55131 45.7579 5.86551C45.0795 6.23077 44.2624 5.81499 43.7095 6.41841C42.5632 6.30572 41.6117 7.01294 40.5531 7.17947C39.3624 7.36655 38.2943 7.83063 37.2013 8.24697C35.9384 8.72825 34.6344 9.09352 33.4237 9.72969C32.561 10.1827 31.6307 10.5274 30.7358 10.9104C29.1437 11.5921 27.7743 12.5791 26.3826 13.5456C25.6204 14.074 24.9587 14.7457 24.2498 15.3503C23.5798 15.9231 22.8309 16.425 22.2486 17.0756C20.1897 19.3782 18.0047 21.5931 16.6691 24.4459C15.7509 25.2697 15.3812 26.451 14.9199 27.5068C14.4586 28.5626 13.7731 29.5657 13.6526 30.7648C12.6423 32.4285 12.242 34.3314 11.6891 36.1522C11.2534 37.5861 10.6078 39.0044 10.625 40.561C10.076 41.0145 10.389 41.7295 10.0904 42.3124C9.7873 42.9041 9.59578 43.6613 9.70181 44.4246C9.80229 45.149 9.2827 45.7991 9.3915 46.5713C9.4842 47.2335 9.38151 47.8947 9.15557 48.5763C8.9363 49.2358 9.18222 50.0169 8.83582 50.7202C8.752 50.8901 9.0612 51.2226 9.0934 51.4918C9.1156 51.6783 8.85192 51.972 8.92187 52.068C9.33099 52.6282 8.98571 53.2404 9.11227 53.7056C8.91188 54.0809 8.75589 54.3718 8.52995 54.7942C8.71148 54.8908 8.96239 55.0252 9.18832 55.1456C9.18832 57.1424 9.1861 58.9948 9.19721 60.8467C9.19776 60.9183 9.33099 60.9893 9.40427 61.0626C9.30657 61.1698 9.20886 61.2775 9.11116 61.3852C9.36041 62.3511 9.739 63.2809 9.73512 64.3128C9.7329 64.8763 9.88167 65.4497 10.0271 66.0021C10.3285 67.1445 10.5711 68.3086 10.7843 69.461C11.0252 70.7611 11.7108 71.8186 12.2481 72.9505C12.7777 74.0679 13.5077 75.0505 14.6496 75.7344C16.225 76.6776 17.7666 77.6857 19.4303 78.4589C20.2252 78.8281 21.0978 79.1018 21.8917 79.4526C22.7232 79.8195 23.6092 79.9789 24.4408 80.2237C25.1807 80.4407 26.0489 80.5201 26.8672 80.5934C27.5406 80.6539 28.1978 80.6061 28.8739 80.8704C29.4785 81.1063 30.2512 80.6966 30.8568 81.2046C30.8862 81.2295 30.9551 81.2079 31.0056 81.2079C33.4914 81.1907 35.975 81.8579 38.4414 81.4655C40.109 81.2007 41.8648 81.1812 43.4197 80.3574C45.8278 80.0549 47.9112 78.7354 50.2382 78.1797C50.8755 77.5757 51.777 77.508 52.5015 77.0584C53.2104 76.6182 54.0319 76.3645 54.768 75.9631C57.3699 74.5448 59.9845 73.1492 62.4692 71.5261C62.9532 71.2096 63.2969 70.7511 63.8448 70.4741C64.5242 70.1305 65.0988 69.5476 65.655 69.003C66.1746 68.4934 66.7247 68.0233 67.0861 67.3344C67.4414 66.656 68.1197 66.1897 68.596 65.548C69.7068 64.0514 70.8831 62.587 71.6186 60.8822C72.0761 59.823 72.514 58.7278 72.9037 57.627C73.2796 56.5645 73.41 55.4437 73.8569 54.3929C74.2033 53.5802 74.1183 52.5815 74.2088 51.6639C74.3193 50.5459 74.4536 49.4285 74.503 48.3077C74.5536 47.1491 74.583 45.9817 74.4947 44.8282C74.407 43.6863 74.2444 42.5494 73.9835 41.4203C73.8347 40.7791 73.6665 40.1075 73.6287 39.4496C73.5704 38.4193 73.1474 37.53 72.7639 36.6202C72.0022 34.8122 70.8964 33.2367 69.7185 31.6585C68.4178 29.916 66.5499 28.8513 65.1626 27.2431C64.5831 26.572 63.7526 26.0835 62.9655 25.6372C62.3665 25.2969 61.6415 25.2275 60.9942 24.9177C60.2004 24.538 59.3033 24.3759 58.4523 24.1145C58.3646 24.0878 58.2908 23.9935 58.2053 23.9851C57.1378 23.8763 56.0698 23.7681 55.0006 23.6826C54.5993 23.6504 54.1863 23.631 53.7921 23.6915C53.4613 23.7426 53.1687 23.198 52.8401 23.6532C52.3083 23.2441 51.8192 23.8519 51.2569 23.707C50.7628 23.5799 50.2394 23.747 49.7081 23.9335C49.1008 24.1467 48.3653 23.9113 47.7252 24.2732C47.3289 24.4975 46.8787 24.6263 46.4262 24.8089C46.3008 24.6835 46.1226 24.5047 45.9377 24.3204C45.8756 24.3671 45.7546 24.4181 45.7579 24.4609C45.7917 24.9483 45.6369 25.2636 45.1617 25.51C44.3246 25.9447 43.5385 26.4776 42.6831 26.9983C42.5376 26.9151 42.3356 26.8001 41.9664 26.5892C41.9076 26.8229 41.8404 27.0888 41.7904 27.2881C41.7188 27.2531 41.912 27.3469 42.1524 27.463C41.418 28.1841 40.6902 28.8757 39.9891 29.5929C38.3298 31.2905 36.9431 33.1923 35.814 35.2796C35.2351 36.3504 34.6133 37.404 34.1154 38.512C33.5042 39.871 32.8758 41.2232 32.4017 42.6471C32.0614 43.6685 31.6884 44.6744 31.3692 45.7053C31.171 46.3453 31.2865 46.9987 30.9756 47.6593C30.6043 48.4487 30.8252 49.4951 30.5793 50.371C30.2923 51.3941 30.3389 52.4072 30.2928 53.4325C30.279 53.7478 30.1046 54.0559 29.9997 54.3801C30.093 54.485 30.1912 54.5949 30.2906 54.7065C30.2318 54.7731 30.1685 54.8442 30.118 54.9019C30.1818 55.3127 30.2967 55.7113 30.2967 56.1104C30.2962 57.2789 30.602 58.3825 30.9079 59.4933C31.3897 61.2397 32.5982 62.3844 34.1825 63.0072C36.0405 63.7372 38.0051 64.0808 40.0163 64.3278C41.6561 64.5288 43.2737 64.4255 44.8775 64.5749C45.6302 64.0403 46.5234 63.8493 47.2945 63.3847C47.5531 63.2287 47.8873 63.141 48.1549 62.9162C49.2718 61.9736 50.4936 61.1698 51.5772 60.1694C52.0618 59.722 52.628 59.3073 53.1221 58.8394C54.6764 57.3689 55.6468 55.5348 56.3418 53.5413C56.5733 52.8785 56.6199 52.1124 56.9863 51.5457C57.4109 50.8884 56.9702 50.0613 57.558 49.5034C57.6585 48.2844 57.8733 47.0598 57.8217 45.8463C57.7856 44.9875 57.4759 44.1348 57.5525 43.245C57.5697 43.049 56.525 40.6548 56.2929 40.445C55.7889 39.9887 55.2421 39.5801 54.7136 39.1515C54.1896 39.4358 53.7705 38.728 53.136 39.0733C52.6125 39.358 51.8187 39.4097 51.2341 39.2465C50.5735 39.0622 51.0237 39.5906 50.8017 39.6961C49.0075 40.5482 47.8623 42.2302 46.2469 43.3194C46.1681 43.3721 46.1154 43.4643 46.1964 43.3721C46.0099 44.0205 46.0021 44.5756 45.7257 44.9081C44.9169 45.8823 44.7365 47.138 44.1164 48.1889C43.9798 48.4209 43.9732 48.7379 43.9354 49.0188C43.8533 49.6366 44.1286 50.3005 43.644 50.8734C43.5441 50.9911 43.5907 51.2742 43.6368 51.4646C43.7678 52.0031 43.9338 52.5327 44.1136 53.1627C46.0887 51.8188 46.8137 49.5867 48.2415 47.9291H49.3451C49.128 48.4076 48.9309 48.8417 48.6062 49.5561C49.0686 49.3585 49.2929 49.3169 49.4428 49.1881C49.7853 48.8922 50.0917 48.5536 50.4303 48.215C50.8794 48.5153 51.1203 49.0199 51.54 49.3713C51.9319 49.6982 52.059 50.3427 52.4265 51.1044C52.441 52.2335 51.4889 53.3587 51.1992 54.6904C50.6529 55.0507 50.0367 55.2639 49.9424 56.1254C49.8863 56.6361 49.3773 57.0969 49.1469 57.4605C48.4985 57.7491 47.9739 57.4893 47.431 57.8141C46.6705 58.2693 45.8573 57.4577 45.0229 57.5898C43.8455 56.8104 42.4438 56.5107 41.242 55.729C40.3383 55.1412 39.7748 54.3385 39.1675 53.5485C38.7467 53.0012 38.5463 52.2901 38.1739 51.6989C37.8053 51.1149 37.8053 50.4221 37.6398 49.8081C37.3867 48.8667 37.4122 47.7742 37.6121 46.8061C37.8957 45.4383 38.145 44.0438 38.7723 42.7526C39.555 41.1411 40.5464 39.6856 41.7832 38.4038C42.9412 37.2036 44.1064 36.0229 45.5791 35.1613C46.5334 34.6034 47.5992 34.4275 48.5751 33.9778C49.032 33.7669 49.4539 34.2987 50.0073 34.0122C50.4053 33.8069 50.9999 33.9329 51.4995 33.9828C52.0174 34.0356 52.713 34.0006 53.0022 34.3103C53.6483 35.0026 54.7747 34.6079 55.2698 35.4694C56.2346 35.4711 56.8292 36.185 57.4709 36.7151C59.1102 38.0702 60.8216 39.3891 61.5993 41.4969C61.7126 41.8039 61.8141 42.1142 61.9202 42.4195C62.0595 42.4506 62.1972 42.4811 62.321 42.5089C62.5452 43.3482 62.7628 44.1648 62.9865 45.0019C62.9488 45.0508 62.8888 45.1268 62.7795 45.2667C62.9632 45.5582 63.167 45.8818 63.4279 46.2959C63.0232 46.3597 62.7456 46.4042 62.442 46.4525C62.4325 46.604 62.4242 46.7406 62.4126 46.9354H63.0887C63.1869 47.0259 63.2236 47.0598 63.2602 47.0931C62.8405 47.4767 63.5195 47.8264 63.3057 48.18C62.805 49.0082 63.1126 49.9175 62.9971 50.7813C62.9094 51.4352 62.7701 52.093 62.558 52.7164C62.4237 53.1122 62.1133 53.4475 61.8846 53.8061C62.508 54.7259 61.3406 55.6291 61.737 56.6217C61.6248 56.645 61.4872 56.6739 61.3334 56.7061C61.0331 57.3605 60.7211 58.04 60.2787 59.0031V60.0168C59.9423 60.8273 59.5581 61.4301 58.7815 61.6511V62.3189C57.9494 63.1354 57.1478 64.0608 56.1952 64.7875C55.8172 65.0761 55.4469 65.3903 55.0644 65.6807C54.7219 65.9416 54.3195 66.1381 54.0225 66.4406C53.0305 67.4498 51.7737 68.051 50.5452 68.6594C48.8244 69.5121 46.3657 69.8907 44.4717 69.6842C43.7817 69.6092 43.1127 69.3367 42.3539 69.1329C42.189 69.1968 41.8915 69.436 41.6728 69.3778C39.2685 68.7394 36.7949 68.4418 34.459 67.4298C32.7187 66.6754 31.0317 65.8466 29.5279 64.7553C28.4315 63.9603 27.4567 62.9262 26.694 61.7271C25.8075 60.3332 24.911 58.9609 24.4596 57.3506C24.4224 57.219 24.2787 57.1118 24.2576 56.9819C24.1416 56.2692 23.9767 55.5547 23.9617 54.8381C23.9212 52.8707 23.8579 50.8967 23.9822 48.9366C24.0544 47.8086 24.3003 46.669 24.4913 45.5421C24.6756 44.4568 24.9304 43.3943 25.1358 42.3179C25.3673 41.1044 25.8341 39.9781 26.2327 38.8296C26.553 37.9081 26.8389 36.9327 27.3168 36.1078C28.1412 34.6839 28.6852 33.1329 29.5767 31.7263C30.4311 30.3779 31.2282 28.979 32.1292 27.6517C32.5877 26.975 33.0412 26.275 33.6108 25.6977C35.0075 24.2816 36.3048 22.7456 37.9723 21.6248C39.4151 20.6555 40.8251 19.6841 42.5182 19.0751C44.2035 18.4695 45.8645 18.0215 47.6386 17.9127C47.9545 17.8933 48.262 17.7223 48.589 17.6163C48.6928 17.7073 48.8038 17.8033 48.9171 17.9021C48.982 17.8477 49.0531 17.7889 49.1302 17.7251C49.4206 17.7906 49.7436 17.805 50.0073 17.9371C50.3731 18.1209 50.5658 17.5119 51.0221 17.8339C51.3285 18.0504 51.8897 17.8949 52.3355 17.9282C52.7141 17.956 53.1521 17.7639 53.4357 18.193C53.8698 17.5513 54.2645 18.3157 54.6842 18.2286C55.2382 18.1131 55.7195 18.3712 56.2263 18.5228C56.6787 18.6577 57.1495 18.7315 57.6119 18.8325C58.0749 18.9336 58.59 18.9374 58.9914 19.1523C60.685 20.0582 62.7145 20.3386 64.0651 21.8468C65.0904 21.8168 65.7261 22.5657 66.4527 23.0603C69.0546 24.8322 71.2362 27.0916 73.3645 29.3781C75.4484 31.6169 77.1893 34.146 78.2706 37.0221C78.8446 38.5476 79.4936 40.0647 79.7078 41.7395C79.8449 42.8137 80.158 43.8895 80.2474 44.9775C80.3373 46.08 80.2668 47.1958 80.2668 48.306C80.2668 49.1131 80.2746 49.9208 80.2652 50.728C80.2557 51.5479 80.3212 52.3434 79.8039 53.1189C79.5063 53.5646 79.5796 54.258 79.4858 54.8403C80.0659 55.1595 78.9706 55.7268 79.6301 56.016C79.2005 56.8515 78.7713 57.6842 78.3389 58.5252C78.1946 58.3942 78.0969 58.2732 77.9709 58.2038C77.897 58.1632 77.7777 58.2049 77.6256 58.2115C77.5229 58.584 77.957 58.6196 78.0974 58.9815V60.2139C77.9625 60.3487 77.7843 60.5275 77.5684 60.7434C77.6395 60.8361 77.7155 60.9344 77.8021 61.0465C77.1626 61.6894 77.0827 62.6258 76.6364 63.3841C76.1306 64.2429 75.6799 65.14 74.9727 65.7595C74.4814 65.6285 74.0906 65.5247 73.6998 65.4209C73.6754 65.4936 73.6509 65.5663 73.6265 65.639C73.808 65.7178 73.9896 65.7972 74.2793 65.9232C74.0051 66.1114 73.7664 66.2746 73.5283 66.4378C73.5643 66.5061 73.6004 66.5744 73.6365 66.6421C73.8746 66.5888 74.1133 66.5361 74.4436 66.4617C74.4664 66.6432 74.4986 66.8991 74.5325 67.1673C74.3143 67.2472 74.1394 67.311 73.8841 67.4043C73.9474 67.7024 74.0123 68.0122 74.1089 68.4707C73.7592 68.67 73.2879 68.9403 72.7466 69.2495C72.5229 69.7541 72.2581 70.3503 71.9939 70.9454C72.0389 70.9726 72.0844 70.9998 72.1299 71.0259C71.0285 72.1273 70.0038 73.3208 68.807 74.3055C67.3703 75.4874 65.8243 76.5499 64.2589 77.5608C62.0395 78.9946 59.7669 80.3458 57.4964 81.6986C57.2272 81.859 56.8319 81.8074 56.4267 81.864C55.9232 82.78 54.8185 82.9038 53.9642 83.4056C53.1665 83.8741 52.265 84.1678 51.3718 84.5547C51.273 84.356 51.1736 84.1561 51.0726 83.9529C50.5741 85.1681 49.304 85.1859 48.3031 85.6755C48.1693 85.6005 47.9756 85.4923 47.7086 85.3419C47.6292 85.5994 47.577 85.7715 47.5243 85.9425C47.4887 85.9786 47.4404 86.0519 47.4188 86.0441C46.7965 85.8398 46.2708 86.2356 45.7351 86.3838C43.1716 87.0977 40.557 86.8673 37.9568 86.9856C35.9584 87.076 34.0044 86.7158 32.0281 86.6131C31.2765 86.5742 30.4583 86.5009 29.7455 86.2989C29.0094 86.0902 28.2777 86.2051 27.5922 86.023C26.7234 85.7926 25.8547 85.5883 24.9792 85.3879C24.0261 85.1703 23.0807 84.8822 22.1542 84.5458C21.2316 84.2105 20.2785 83.9591 19.357 83.6227C18.4377 83.2874 17.5534 82.8566 16.6314 82.5302C13.9401 81.5776 11.6764 79.8589 9.23607 78.4562C8.12472 77.1805 6.79576 76.1263 5.73882 74.7735C4.90558 73.7082 4.19004 72.5741 3.49281 71.4428C2.74062 70.2221 2.24712 68.836 1.84521 67.4404C1.42277 65.976 1.03252 64.5066 0.924828 62.9739C0.895407 62.557 0.720544 62.1518 0.636721 61.736C0.551788 61.318 0.820466 60.8261 0.359717 60.482C0.307536 60.4431 0.336402 60.2943 0.330296 60.1972C0.229264 58.473 0.0877088 56.7499 0.0383032 55.024C-0.0122126 53.2593 0.0199843 51.4924 0.0388583 49.7265C0.0410788 49.5639 0.209835 49.4035 0.301429 49.2419C0.215386 49.1453 0.11713 49.0354 0 48.9039C0.109358 48.6485 0.339733 48.3771 0.310311 48.1372C0.127122 46.6384 0.695009 45.2034 0.641162 43.7185C0.627839 43.3432 0.476292 42.9014 0.91317 42.6244C0.44243 42.2957 0.985891 42.0004 0.955914 41.6718C0.921497 41.3026 0.883749 40.9374 1.13466 40.5388C1.45663 40.0264 1.03641 39.2703 1.54101 38.7457C1.54767 37.1437 2.29597 35.7231 2.63848 34.2065C2.90105 33.0447 3.33793 31.9833 3.80811 30.9019C4.19559 30.0121 4.41042 29.0439 4.75737 28.1186C5.58005 25.9253 6.59203 23.8236 7.62789 21.7397C8.31734 20.3536 9.35209 19.1456 10.0482 17.7445C10.9614 17.3109 11.1423 16.2712 11.8029 15.5951C12.4785 14.9045 13.0847 14.1118 13.7769 13.4118C14.4864 12.6946 15.1769 11.9557 15.9225 11.2768C17.1393 10.1671 18.5271 9.25673 19.7728 8.1959C21.0312 7.12396 22.4862 6.41008 23.8507 5.55353C25.138 4.74528 26.6168 4.18683 28.0779 3.73108C29.1065 3.41077 30.0669 2.91505 31.1349 2.68579C32.4617 2.40157 33.7484 1.93527 35.0619 1.58166C35.6125 1.43288 36.3264 1.54502 36.7178 1.22971C37.3034 0.758414 37.994 1.23915 38.5225 0.790056C38.9838 0.398697 39.7326 0.982682 40.1628 0.36539C40.1795 0.34152 40.2605 0.354843 40.3094 0.36317C41.5562 0.586883 42.7297 -0.00764946 43.9693 0.0478624C45.1778 0.101709 46.4251 -0.122004 47.5937 0.101154C49.4799 0.461426 51.4451 0.48141 53.202 1.53836C54.5249 2.3344 55.6451 3.2076 56.2374 4.65257C56.3268 4.87018 56.3312 5.12165 56.3706 5.33426Z" fill="#5B4DAF"/>
</svg>
