<svg width="123" height="66" viewBox="0 0 123 66" fill="none" xmlns="http://www.w3.org/2000/svg">
<path d="M84.9723 47.9623C83.5482 47.9623 82.29 47.6599 81.1975 47.0552C80.1246 46.4505 79.2858 45.5921 78.6811 44.4802C78.0958 43.3683 77.8032 42.0612 77.8032 40.5592C77.8032 39.0766 78.0958 37.7696 78.6811 36.6381C79.2858 35.5067 80.1246 34.6288 81.1975 34.0046C82.29 33.3608 83.5482 33.039 84.9723 33.039C86.4353 33.039 87.7033 33.3706 88.7763 34.0339C89.8492 34.6971 90.6782 35.5945 91.2635 36.7259C91.8487 37.8378 92.1413 39.0961 92.1413 40.5006C92.1413 40.7542 92.1316 40.9981 92.1121 41.2322C92.0925 41.4663 92.073 41.6516 92.0535 41.7881H81.139V38.745H88.7763L88.2788 40.0032C88.2788 38.9303 88.0057 38.0524 87.4595 37.3697C86.9328 36.6869 86.1135 36.3455 85.0015 36.3455C84.0066 36.3455 83.2068 36.6479 82.6021 37.2526C82.0169 37.8574 81.7243 38.6572 81.7243 39.6521V41.2614C81.7243 42.3344 82.0266 43.1732 82.6314 43.7779C83.2556 44.3631 84.1139 44.6558 85.2064 44.6558C86.1232 44.6558 86.845 44.4704 87.3717 44.0998C87.9179 43.7291 88.3764 43.2707 88.747 42.7245L91.6439 44.3339C91.0196 45.4848 90.1418 46.3822 89.0103 47.0259C87.8789 47.6502 86.5329 47.9623 84.9723 47.9623Z" fill="#F3F1FC"/>
<path d="M54.3662 47.6989V33.3901H57.5264L58.4043 36.2285L56.9412 36.1114C57.4289 35.5457 57.9849 35.0287 58.6091 34.5606C59.2334 34.0924 59.9161 33.7217 60.6574 33.4486C61.3987 33.1755 62.1693 33.039 62.9691 33.039C63.9249 33.039 64.6857 33.2048 65.2515 33.5364C65.8367 33.8485 66.2756 34.2875 66.5682 34.8532C66.8804 35.4189 67.0852 36.0627 67.1827 36.7844C67.2998 37.4867 67.3583 38.2182 67.3583 38.979V47.6989H63.0861V39.2131C63.0861 38.3938 62.9398 37.8574 62.6472 37.6038C62.3546 37.3306 61.9937 37.1941 61.5645 37.1941C60.9598 37.1941 60.3648 37.3794 59.7796 37.7501C59.1943 38.1012 58.6676 38.5596 58.1995 39.1254L57.4387 36.96H58.6384V47.6989H54.3662ZM71.806 47.6989V39.2131C71.806 38.3938 71.6597 37.8574 71.3671 37.6038C71.094 37.3306 70.7429 37.1941 70.3137 37.1941C69.6894 37.1941 69.0847 37.3794 68.4995 37.7501C67.9142 38.1012 67.3875 38.5596 66.9194 39.1254L65.6611 36.1114C66.1683 35.5457 66.734 35.0287 67.3583 34.5606C67.9825 34.0924 68.6555 33.7217 69.3773 33.4486C70.1186 33.1755 70.8892 33.039 71.689 33.039C72.6448 33.039 73.4154 33.2048 74.0006 33.5364C74.5859 33.8485 75.0248 34.2875 75.3174 34.8532C75.61 35.4189 75.8148 36.0627 75.9319 36.7844C76.0489 37.4867 76.1075 38.2182 76.1075 38.979V47.6989H71.806Z" fill="#F3F1FC"/>
<path d="M43.138 48.0501C42.0846 48.0501 41.2262 47.894 40.563 47.5819C39.9192 47.2698 39.412 46.8406 39.0414 46.2944C38.6902 45.7287 38.4464 45.0947 38.3098 44.3924C38.1928 43.6706 38.1343 42.9098 38.1343 42.11V33.3901H42.4064V41.8759C42.4064 42.6757 42.5723 43.2122 42.9039 43.4853C43.2355 43.7389 43.6452 43.8657 44.1329 43.8657C44.562 43.8657 44.9815 43.7974 45.3911 43.6609C45.8008 43.5048 46.2007 43.2902 46.5908 43.0171C46.981 42.7245 47.3321 42.3734 47.6442 41.9637L48.3758 44.1291H47.1761V33.3901H51.4775V47.6989H48.288L47.4102 44.8606L48.8732 44.9776C48.405 45.5238 47.8588 46.0408 47.2346 46.5285C46.6298 46.9967 45.9861 47.3673 45.3033 47.6404C44.6206 47.9135 43.8988 48.0501 43.138 48.0501Z" fill="#F3F1FC"/>
<path d="M30.606 48.1377C29.4551 48.1377 28.3724 47.9134 27.358 47.4647C26.3631 47.016 25.456 46.2455 24.6367 45.1531L27.0654 42.8121C27.7287 43.4949 28.3627 43.9826 28.9674 44.2752C29.5721 44.5678 30.2354 44.7141 30.9572 44.7141C31.3864 44.7141 31.7277 44.6264 31.9813 44.4508C32.2544 44.2557 32.391 44.0216 32.391 43.7485C32.391 43.5144 32.313 43.3193 32.1569 43.1633C32.0008 43.0072 31.7082 42.8512 31.2791 42.6951C30.8499 42.539 30.2257 42.3537 29.4063 42.1391C27.9042 41.7685 26.7826 41.232 26.0413 40.5298C25.3195 39.808 24.9586 38.8521 24.9586 37.6621C24.9586 36.8038 25.1829 36.0235 25.6316 35.3212C26.0803 34.5994 26.724 34.024 27.5629 33.5948C28.4017 33.1656 29.3966 32.951 30.5475 32.951C31.9131 32.951 33.0738 33.2144 34.0296 33.7411C34.9855 34.2483 35.7756 34.8725 36.3998 35.6138L33.7663 37.867C33.3371 37.4768 32.8202 37.1452 32.2154 36.8721C31.6107 36.599 30.9279 36.4624 30.1671 36.4624C29.7575 36.4624 29.4063 36.5404 29.1137 36.6965C28.8211 36.8526 28.6748 37.0867 28.6748 37.3988C28.6748 37.6914 28.8504 37.9352 29.2015 38.1303C29.5526 38.3254 30.2549 38.5497 31.3083 38.8033C33.0835 39.2325 34.3515 39.808 35.1123 40.5298C35.8926 41.2515 36.2828 42.2172 36.2828 43.4266C36.2828 44.363 36.0389 45.1921 35.5512 45.9139C35.0635 46.6161 34.3905 47.1623 33.5322 47.5525C32.6739 47.9427 31.6985 48.1377 30.606 48.1377Z" fill="#F3F1FC"/>
<path d="M16.3185 47.9621C14.8944 47.9621 13.6362 47.6598 12.5437 47.055C11.4708 46.4503 10.632 45.592 10.0273 44.48C9.44203 43.3681 9.14941 42.0611 9.14941 40.559C9.14941 39.0764 9.44203 37.7694 10.0273 36.638C10.632 35.5065 11.4708 34.6287 12.5437 34.0044C13.6362 33.3607 14.8944 33.0388 16.3185 33.0388C17.7815 33.0388 19.0495 33.3704 20.1225 34.0337C21.1954 34.697 22.0244 35.5943 22.6097 36.7258C23.1949 37.8377 23.4875 39.0959 23.4875 40.5005C23.4875 40.7541 23.4778 40.9979 23.4583 41.232C23.4387 41.4661 23.4192 41.6514 23.3997 41.788H12.4852V38.7448H20.1225L19.625 40.003C19.625 38.9301 19.3519 38.0523 18.8057 37.3695C18.279 36.6867 17.4597 36.3454 16.3477 36.3454C15.3528 36.3454 14.553 36.6477 13.9483 37.2525C13.3631 37.8572 13.0704 38.657 13.0704 39.6519V41.2613C13.0704 42.3342 13.3728 43.173 13.9776 43.7778C14.6018 44.363 15.4601 44.6556 16.5526 44.6556C17.4694 44.6556 18.1912 44.4703 18.7179 44.0996C19.2641 43.729 19.7225 43.2706 20.0932 42.7244L22.9901 44.3337C22.3658 45.4847 21.488 46.382 20.3565 47.0258C19.2251 47.65 17.8791 47.9621 16.3185 47.9621Z" fill="#F3F1FC"/>
<path d="M3.16023 33.39L4.27217 37.3402V47.6988H0V33.39H3.16023ZM3.3358 39.7104L2.60427 39.3886V36.082L2.86762 35.7309C3.10171 35.3992 3.43334 35.0188 3.86251 34.5897C4.31118 34.1605 4.82814 33.7996 5.41336 33.507C6.0181 33.1949 6.63259 33.0388 7.25684 33.0388C7.56896 33.0388 7.85182 33.0583 8.10542 33.0973C8.35901 33.1364 8.56385 33.2046 8.71991 33.3022V37.1939H7.75428C6.50579 37.1939 5.52066 37.3988 4.79887 37.8084C4.0966 38.1986 3.60891 38.8326 3.3358 39.7104Z" fill="#F3F1FC"/>
<path d="M99.9813 21.0706L94.2461 7.84442H98.5768L104.019 20.4268L99.9813 21.0706ZM96.9089 27.7129L105.541 7.84442H109.872L101.269 27.7129H96.9089Z" fill="#F3F1FC"/>
<path d="M71.4761 22.1531V7.8443H74.6363L75.5142 10.6827L74.0511 10.5656C74.5388 9.99989 75.0947 9.48294 75.719 9.01476C76.3432 8.54658 77.026 8.17593 77.7673 7.90282C78.5086 7.62972 79.2791 7.49316 80.0789 7.49316C81.0348 7.49316 81.7956 7.65898 82.3613 7.99061C82.9466 8.30273 83.3855 8.74165 83.6781 9.30737C83.9902 9.87309 84.195 10.5168 84.2926 11.2386C84.4096 11.9409 84.4681 12.6724 84.4681 13.4332V22.1531H80.196V13.6673C80.196 12.848 80.0497 12.3115 79.7571 12.0579C79.4644 11.7848 79.1036 11.6483 78.6744 11.6483C78.0696 11.6483 77.4747 11.8336 76.8894 12.2043C76.3042 12.5554 75.7775 13.0138 75.3093 13.5795L74.5485 11.4142H75.7482V22.1531H71.4761ZM88.9159 22.1531V13.6673C88.9159 12.848 88.7696 12.3115 88.477 12.0579C88.2039 11.7848 87.8527 11.6483 87.4236 11.6483C86.7993 11.6483 86.1946 11.8336 85.6093 12.2043C85.0241 12.5554 84.4974 13.0138 84.0292 13.5795L82.771 10.5656C83.2782 9.99989 83.8439 9.48294 84.4681 9.01476C85.0924 8.54658 85.7654 8.17593 86.4872 7.90282C87.2285 7.62972 87.999 7.49316 88.7988 7.49316C89.7547 7.49316 90.5253 7.65898 91.1105 7.99061C91.6957 8.30273 92.1346 8.74165 92.4273 9.30737C92.7199 9.87309 92.9247 10.5168 93.0417 11.2386C93.1588 11.9409 93.2173 12.6724 93.2173 13.4332V22.1531H88.9159Z" fill="#F3F1FC"/>
<path d="M53.1859 22.5043C51.8984 22.5043 50.7572 22.1922 49.7623 21.568C48.7674 20.9242 47.9871 20.0366 47.4214 18.9052C46.8752 17.7542 46.6021 16.4472 46.6021 14.9842C46.6021 13.5211 46.8849 12.2238 47.4506 11.0924C48.0164 9.96094 48.7967 9.0831 49.7915 8.45885C50.7864 7.8151 51.9276 7.49322 53.2151 7.49322C54.4831 7.49322 55.5756 7.78584 56.4924 8.37107C57.4288 8.93679 58.1506 9.77562 58.6578 10.8876C59.1845 11.9995 59.4478 13.365 59.4478 14.9842C59.4478 16.5253 59.1845 17.8615 58.6578 18.993C58.1311 20.1049 57.3995 20.973 56.4632 21.5972C55.5268 22.202 54.4344 22.5043 53.1859 22.5043ZM54.0052 18.4955C54.883 18.4955 55.6048 18.1736 56.1705 17.5299C56.7558 16.8666 57.0484 16.0181 57.0484 14.9842C57.0484 13.9698 56.7558 13.1407 56.1705 12.4969C55.6048 11.8337 54.883 11.502 54.0052 11.502C53.1274 11.502 52.3958 11.8337 51.8106 12.4969C51.2449 13.1407 50.962 13.9698 50.962 14.9842C50.962 16.0181 51.2449 16.8666 51.8106 17.5299C52.3958 18.1736 53.1274 18.4955 54.0052 18.4955ZM57.9262 22.1532L56.8436 18.4955H57.1069V11.8239H56.8436V2.22617H61.1157V22.1532H57.9262Z" fill="#F3F1FC"/>
<path d="M43.7188 22.2995C42.997 22.2995 42.3337 22.1532 41.729 21.8606C41.1243 21.568 40.6366 21.1193 40.2659 20.5146C39.8953 19.8903 39.71 19.0612 39.71 18.0273V2.22617H43.9529V16.5057C43.9529 17.2275 44.0797 17.6957 44.3333 17.9103C44.6064 18.1054 44.9478 18.2029 45.3574 18.2029V22.1532C45.1623 22.1922 44.899 22.2215 44.5674 22.241C44.2552 22.28 43.9724 22.2995 43.7188 22.2995Z" fill="#F3F1FC"/>
<path d="M36.7571 22.1532H32.4849V7.84436H36.7571V22.1532ZM32.1045 3.3381C32.1045 2.57731 32.3288 1.96281 32.7775 1.49463C33.2457 1.02645 33.8602 0.792358 34.621 0.792358C35.3818 0.792358 35.9865 1.02645 36.4352 1.49463C36.9034 1.96281 37.1375 2.57731 37.1375 3.3381C37.1375 4.07939 36.9034 4.68413 36.4352 5.15231C35.9865 5.60099 35.3818 5.82532 34.621 5.82532C33.8602 5.82532 33.2457 5.60099 32.7775 5.15231C32.3288 4.68413 32.1045 4.07939 32.1045 3.3381Z" fill="#F3F1FC"/>
<path d="M21.1985 22.5044C20.1451 22.5044 19.2868 22.3483 18.6235 22.0362C17.9798 21.7241 17.4726 21.2949 17.1019 20.7487C16.7508 20.183 16.5069 19.549 16.3704 18.8467C16.2533 18.1249 16.1948 17.3641 16.1948 16.5643V7.84442H20.467V16.3302C20.467 17.13 20.6328 17.6665 20.9644 17.9396C21.2961 18.1932 21.7057 18.32 22.1934 18.32C22.6226 18.32 23.042 18.2517 23.4517 18.1152C23.8613 17.9591 24.2612 17.7445 24.6514 17.4714C25.0415 17.1788 25.3927 16.8277 25.7048 16.418L26.4363 18.5834H25.2366V7.84442H29.538V22.1533H26.3485L25.4707 19.3149L26.9338 19.4319C26.4656 19.9782 25.9194 20.4951 25.2951 20.9828C24.6904 21.451 24.0466 21.8216 23.3639 22.0947C22.6811 22.3678 21.9593 22.5044 21.1985 22.5044Z" fill="#F3F1FC"/>
<path d="M7.92985 22.5043C6.68136 22.5043 5.58893 22.202 4.65257 21.5972C3.7162 20.973 2.98467 20.1049 2.45796 18.993C1.95076 17.8615 1.69716 16.5253 1.69716 14.9842C1.69716 13.365 1.95076 11.9995 2.45796 10.8876C2.96516 9.77562 3.67719 8.93679 4.59404 8.37107C5.53041 7.78584 6.63259 7.49322 7.90059 7.49322C9.18809 7.49322 10.3293 7.8151 11.3242 8.45885C12.3191 9.0831 13.0994 9.96094 13.6651 11.0924C14.2308 12.2238 14.5137 13.5211 14.5137 14.9842C14.5137 16.4472 14.2308 17.7542 13.6651 18.9052C13.1189 20.0366 12.3483 20.9242 11.3534 21.568C10.3781 22.1922 9.23686 22.5043 7.92985 22.5043ZM0 22.1532V2.22617H4.27217V11.8239H4.00882V18.4955H4.27217L3.1895 22.1532H0ZM7.11053 18.4955C7.98837 18.4955 8.71015 18.1736 9.27587 17.5299C9.8611 16.8666 10.1537 16.0181 10.1537 14.9842C10.1537 13.9698 9.8611 13.1407 9.27587 12.4969C8.71015 11.8337 7.98837 11.502 7.11053 11.502C6.25219 11.502 5.53041 11.8337 4.94518 12.4969C4.35995 13.1407 4.06734 13.9698 4.06734 14.9842C4.06734 16.0181 4.35995 16.8666 4.94518 17.5299C5.53041 18.1736 6.25219 18.4955 7.11053 18.4955Z" fill="#F3F1FC"/>
<path fill-rule="evenodd" clip-rule="evenodd" d="M70.9705 57.5786C72.1342 57.8509 73.2314 58.1474 74.4082 58.3724C75.6505 58.6101 76.9526 58.7929 78.3062 58.9152C79.4242 59.0164 80.5168 59.1597 81.6819 59.112C82.5588 59.3026 83.5036 59.1935 84.4162 59.2076C84.7903 59.2132 85.1688 59.1215 85.5469 59.1187C85.9548 59.1157 86.3194 59.0321 86.6798 59.0222C88.014 58.9852 89.2211 58.7299 90.5371 58.6743C90.6339 58.6702 90.7189 58.6197 90.8442 58.5797C91.2029 58.6773 91.5448 58.7704 91.9694 58.886C91.6058 58.9973 91.3453 59.077 90.9256 59.2053H92.1594C92.0214 59.3383 91.9364 59.42 91.8215 59.531C91.8659 59.5605 91.9459 59.6142 92.0816 59.7045C91.907 59.888 91.8084 60.1415 91.4688 60.3136C90.9957 60.5528 90.3671 60.7453 89.7538 60.9286C89.4924 61.0069 89.0989 61.0488 88.7715 61.043C88.0438 61.0307 87.3935 61.2254 86.6504 61.1582C86.5419 61.1483 86.3926 61.2145 86.2425 61.2503C86.1941 61.1936 86.1439 61.1345 86.0923 61.0741H81.4774C81.9338 61.1768 82.4145 61.1466 82.8853 61.1515C83.419 61.1566 83.954 61.1511 84.4881 61.153C84.9626 61.1547 85.4374 61.1601 85.9101 61.2546C84.9798 61.2546 84.0485 61.2566 83.1178 61.254C82.012 61.251 80.8841 61.3034 79.8683 61.0514C78.7576 61.0584 77.7553 60.8822 76.7138 60.7572C76.1801 60.6933 75.7903 60.5902 75.4262 60.4383C75.3679 60.4624 75.3104 60.4866 75.2032 60.5313C74.4661 60.3669 73.742 60.1647 72.946 60.042C72.3961 59.9574 72.1803 59.7092 71.5938 59.6645C71.3785 59.6482 71.1858 59.5826 70.8665 59.5147C70.5083 59.4661 69.9294 59.6258 69.5016 59.4199C69.4433 59.4438 69.3854 59.4679 69.2927 59.5063C69.1959 59.4835 69.0878 59.4576 68.9743 59.4307C68.9168 59.4896 68.8603 59.5478 68.7974 59.6121H68.389C68.4854 59.5465 68.5496 59.5023 68.6152 59.4578C68.546 59.4447 68.4551 59.4126 68.4116 59.4214C68.1032 59.4836 67.802 59.5527 67.5031 59.6228C67.2353 59.6857 66.973 59.7526 66.6465 59.833C66.5628 59.8106 66.4348 59.7764 66.2869 59.7367C66.22 59.7945 66.1436 59.8603 66.0653 59.9284C66.0002 59.9036 65.9419 59.8815 65.8772 59.8568C65.6244 59.9415 65.3874 60.0857 65.1111 60.1005C64.3531 60.1407 63.8013 60.3581 63.1048 60.4473C62.7521 60.4924 62.4472 60.6199 62.156 60.7265C61.1895 61.0806 60.1321 61.3713 58.9418 61.5725C58.8269 61.5282 58.7383 61.4942 58.6483 61.4594C58.5058 61.5187 58.3615 61.5791 58.1756 61.6567H57.1178C56.9645 61.7607 56.8247 61.8563 56.6674 61.9629H56.235C56.0934 62.0368 55.9953 62.1425 55.828 62.1662C55.0532 62.2762 54.3445 62.5027 53.4066 62.2899C53.0072 62.1993 52.3867 62.2747 51.8643 62.3587C52.3587 62.371 52.8525 62.3836 53.3469 62.3961L53.3405 62.4552H51.6848C51.6332 62.3948 51.583 62.3357 51.498 62.236C50.9182 62.4661 50.3244 62.377 49.7473 62.2732C48.936 62.1268 48.1508 61.9758 47.4381 61.737C46.5168 61.4283 45.539 61.1349 44.4161 60.9473C44.3093 60.9295 44.2202 60.8943 44.0371 60.8433H42.5935C42.546 60.8133 42.5062 60.7982 42.513 60.79C42.5252 60.7754 42.5699 60.7662 42.5948 60.7529C42.6369 60.7301 42.6744 60.7058 42.7472 60.6616H41.8644C41.8043 60.5883 41.7559 60.5294 41.6962 60.4565C41.6017 60.4499 41.489 60.4424 41.1897 60.4219C41.3398 60.5105 41.4081 60.5507 41.4836 60.5951C41.4203 60.6237 41.3421 60.6594 41.224 60.7133C41.4999 60.7359 41.7477 60.7561 41.9956 60.7767C40.3801 60.8835 38.8347 61.1491 37.1944 61.0367C36.8968 61.3838 36.2713 61.4702 35.469 61.4581C34.4211 61.8572 33.3755 62.2755 32.277 62.6683C31.1318 63.0775 29.8293 63.4162 28.3676 63.556C27.1357 63.6736 25.8322 63.8663 24.537 63.6038C24.437 63.5836 24.2932 63.5992 24.1702 63.6014C22.9188 63.6267 21.8388 63.4 20.7624 63.1873C20.312 63.0985 19.9615 62.9245 19.5155 62.8295C18.9036 62.6991 18.2302 62.6368 17.5554 62.5661C16.3479 62.4399 15.1494 62.4986 13.9487 62.4812C12.8397 62.4651 11.7556 62.5398 10.6983 62.6808C10.5866 62.6957 10.4423 62.6956 10.3333 62.6795C10.227 62.6636 10.147 62.6179 10.0289 62.5762C9.97962 62.6368 9.93258 62.6948 9.85118 62.7951C9.65625 62.7644 9.4654 62.7343 9.25193 62.7008C9.23022 62.735 9.20083 62.7807 9.15153 62.8587C8.15158 62.9771 7.33345 63.3738 6.11053 63.2935L5.74556 63.4443C5.82335 63.4802 5.90114 63.5161 6.00832 63.5657C5.42219 63.7466 4.75782 63.8958 4.27888 64.1147C3.77009 64.3473 3.29928 64.5845 2.55758 64.7944C2.49516 64.8496 2.36627 64.9631 2.21295 65.098C2.03974 65.1391 1.80592 65.1947 1.59607 65.2444C1.52687 65.5521 1.52687 65.5521 1.15602 65.7365L0.0864258 65.2942V64.4025C0.139792 64.387 0.498435 64.3348 0.511098 64.2705C0.564013 64.008 1.21843 63.9286 1.39889 63.7133C1.59019 63.4847 2.06733 63.3483 2.43954 63.177C2.94607 62.9434 3.44446 62.7062 3.92159 62.4619C4.99707 61.912 7.22174 61.3421 9.24831 61.1493C9.72726 61.1038 10.1764 61.0075 10.6508 60.9512C11.0985 60.8981 11.5901 61.0202 12.0501 60.8577C12.24 60.7907 12.6846 60.8466 12.7294 60.8466C13.1011 60.9254 13.2847 60.9643 13.5005 61.0099C13.339 61.1025 13.2499 61.1538 13.1219 61.2275H14.6293C14.2277 61.1695 14.0848 61.1489 13.8505 61.115C14.5266 60.8221 15.1738 60.5997 16.1824 60.8274C16.2787 60.8491 16.4148 60.8451 16.5329 60.8459C18.0583 60.8549 19.388 61.0698 20.6408 61.4313C21.1482 61.5776 21.8193 61.696 22.4959 61.6571C23.1594 61.6189 23.7387 61.7514 24.3687 61.7643C26.2813 61.8034 27.9416 61.5099 29.4702 61.0739C30.2802 60.8427 31.0739 60.5937 31.7903 60.3156C33.0349 59.8325 34.5292 59.5409 36.1044 59.3241C37.2369 59.1683 38.4467 59.112 39.6049 58.9947C40.8188 58.872 42.0168 58.959 43.2103 58.9025C43.9842 58.8658 44.5947 59.011 45.1759 59.1602C46.4594 59.4893 47.6782 59.8609 48.9536 60.1957C49.5406 60.3497 50.2516 60.3934 50.9295 60.4335C52.171 60.5066 53.3645 60.3693 54.5146 60.2015C55.4431 60.0665 56.3245 59.8749 57.2205 59.7027C58.7233 59.4137 60.095 59.0347 61.497 58.6715C62.909 58.3056 64.4232 57.9888 66.1291 57.8824C66.6501 57.8498 67.153 57.7582 67.6541 57.6826C68.7495 57.5171 69.8824 57.6048 70.9705 57.5786" fill="#5A4DAF"/>
<path fill-rule="evenodd" clip-rule="evenodd" d="M110.31 44.7308C110.313 44.721 110.316 44.7111 110.319 44.7014C110.172 44.6193 110.017 44.5477 109.879 44.4522C109.742 44.3569 109.604 44.2682 109.444 44.1904C109.46 44.2794 109.486 44.3393 109.555 44.3755C109.66 44.4303 109.749 44.5155 109.869 44.543C109.914 44.6276 110.018 44.5887 110.084 44.6471C110.14 44.6965 110.233 44.7044 110.31 44.7308V44.7308ZM101.03 45.9058C101.107 45.8974 101.145 45.8841 101.179 45.8911C101.281 45.9121 101.381 45.9352 101.488 45.9404C101.596 45.9456 101.704 45.947 101.81 45.9552C101.969 45.9675 102.135 45.9339 102.289 45.9978C102.292 45.999 102.301 45.9852 102.311 45.9747C102.151 45.8991 101.98 45.9129 101.815 45.8874C101.705 45.8705 101.596 45.857 101.485 45.8561C101.456 45.8559 101.427 45.8259 101.39 45.8047C101.377 45.8126 101.353 45.8326 101.325 45.8415C101.315 45.8447 101.293 45.8091 101.282 45.8122C101.254 45.8205 101.23 45.8501 101.203 45.8519C101.182 45.8533 101.158 45.8264 101.126 45.8062C101.108 45.8247 101.083 45.8508 101.03 45.9058V45.9058ZM102.028 35.676C101.92 35.6783 101.819 35.6668 101.724 35.6863C101.626 35.7064 101.521 35.7118 101.446 35.7773C101.41 35.7481 101.386 35.7282 101.335 35.6873C101.377 35.7938 101.356 35.848 101.28 35.8796C101.248 35.8932 101.215 35.9298 101.186 35.9264C101.099 35.9162 101.131 35.9789 101.112 36.0284C101.267 35.9403 101.43 35.9242 101.586 35.8905C101.741 35.857 101.874 35.7789 102.016 35.7197C102.022 35.7169 102.022 35.6979 102.028 35.676V35.676ZM106.825 43.1839C106.901 43.227 107.002 43.2141 107.059 43.2922C107.21 43.3189 107.312 43.453 107.465 43.4761C107.504 43.5484 107.595 43.5259 107.645 43.5706C107.749 43.6635 107.891 43.6836 107.999 43.7677C108.01 43.7762 108.038 43.7617 108.059 43.758C108.051 43.74 108.047 43.7178 108.034 43.7048C107.934 43.6052 107.81 43.5403 107.696 43.4601C107.595 43.3886 107.492 43.3139 107.38 43.2708C107.208 43.2045 107.024 43.1701 106.842 43.1214L106.825 43.1839ZM110.681 49.037C110.763 49.0588 110.852 49.0665 110.923 49.1062C110.995 49.1463 111.091 49.0607 111.141 49.1599C111.222 49.1062 111.29 49.1766 111.364 49.1827C111.438 49.1886 111.513 49.1946 111.587 49.205C111.702 49.2211 111.819 49.2638 111.931 49.2522C112.021 49.2427 112.095 49.2922 112.172 49.2818C112.265 49.2692 112.346 49.2962 112.43 49.3181C112.481 49.3316 112.531 49.3255 112.583 49.326C112.646 49.3265 112.703 49.3086 112.762 49.2982C112.78 49.4023 112.909 49.2629 112.924 49.3725C112.951 49.3679 112.979 49.3669 113.005 49.3579C113.03 49.349 113.054 49.3184 113.069 49.3673C113.094 49.3589 113.118 49.3506 113.141 49.3428C113.124 49.2891 113.108 49.2402 113.091 49.1846C113.047 49.2175 112.998 49.2384 112.974 49.2752C112.937 49.3304 112.936 49.2814 112.921 49.2654C112.869 49.3144 112.838 49.2494 112.797 49.2443C112.757 49.2394 112.723 49.2169 112.685 49.2158C112.621 49.214 112.546 49.1755 112.503 49.2639C112.498 49.236 112.493 49.21 112.488 49.1821C112.422 49.2349 112.382 49.1855 112.337 49.1469C112.322 49.1796 112.309 49.2104 112.291 49.2507C112.256 49.2295 112.228 49.211 112.199 49.1959C112.181 49.1867 112.158 49.1737 112.14 49.1778C112.024 49.2052 111.893 49.2109 111.803 49.1872C111.751 49.1733 111.695 49.1397 111.646 49.1488C111.527 49.1713 111.429 49.131 111.33 49.0784C111.32 49.0727 111.299 49.0683 111.293 49.0738C111.245 49.1191 111.194 49.0996 111.142 49.0853C111.043 49.0581 110.943 49.0305 110.844 49.0062C110.815 48.9994 110.769 49.016 110.756 49.0008C110.711 48.9469 110.702 49.0225 110.681 49.037V49.037ZM112.691 39.7897C112.692 39.7815 112.693 39.7732 112.695 39.765C112.65 39.753 112.603 39.7452 112.56 39.7276C112.516 39.7095 112.477 39.6818 112.413 39.6459C112.433 39.687 112.44 39.7018 112.455 39.7313C112.352 39.7224 112.258 39.709 112.163 39.7068C112.01 39.7035 111.857 39.7028 111.704 39.6883C111.625 39.6807 111.542 39.6963 111.465 39.6637C111.389 39.7236 111.314 39.6357 111.227 39.6659C111.154 39.6914 111.059 39.6481 110.973 39.6432C110.88 39.6378 110.786 39.6428 110.698 39.6059C110.632 39.6508 110.563 39.5784 110.513 39.5987C110.431 39.6314 110.374 39.5788 110.306 39.5765C110.278 39.5755 110.25 39.5801 110.222 39.5808C110.166 39.5822 110.107 39.5939 110.054 39.5813C109.935 39.5531 109.815 39.5771 109.696 39.5665C109.648 39.5622 109.596 39.5957 109.522 39.6194C109.564 39.6362 109.58 39.6498 109.595 39.6476C109.736 39.6261 109.881 39.6393 110.016 39.6566C110.239 39.6848 110.467 39.6446 110.684 39.715C110.774 39.6663 110.86 39.7386 110.955 39.7184C111.04 39.7004 111.14 39.7566 111.228 39.7422C111.309 39.7288 111.376 39.7657 111.45 39.7613C111.744 39.7439 112.036 39.7772 112.33 39.7804C112.45 39.7817 112.571 39.7865 112.691 39.7897V39.7897ZM113.042 44.7198C113.059 44.6299 113.006 44.6142 112.944 44.6059C112.879 44.5971 112.747 44.5583 112.706 44.5221C112.68 44.4996 112.664 44.4884 112.631 44.5041C112.538 44.5482 112.583 44.4565 112.559 44.4278C112.541 44.4487 112.524 44.4692 112.502 44.4951C112.43 44.4399 112.365 44.3788 112.278 44.3415C112.22 44.3165 112.158 44.348 112.109 44.3069C112.102 44.3007 112.098 44.2903 112.094 44.283C112.108 44.2727 112.121 44.2635 112.138 44.2508C112.071 44.1869 112.066 44.2802 112.048 44.2831L111.885 44.2395C111.884 44.2111 111.882 44.1916 111.881 44.1733C111.836 44.1925 111.799 44.2081 111.756 44.2267C111.737 44.1842 111.723 44.1512 111.712 44.1236C111.616 44.1562 111.543 44.1256 111.471 44.0832C111.46 44.0767 111.438 44.0671 111.436 44.0702C111.379 44.1426 111.304 44.071 111.227 44.092C111.33 44.2169 111.479 44.1902 111.613 44.2586C111.618 44.2701 111.63 44.3025 111.641 44.3315C111.747 44.316 111.754 44.3083 111.797 44.3459C111.847 44.3883 111.902 44.3442 111.951 44.3759C112.003 44.4098 112.062 44.4342 112.119 44.4587C112.131 44.4638 112.151 44.4487 112.168 44.4471C112.184 44.4457 112.204 44.4443 112.217 44.4522C112.268 44.4855 112.318 44.5224 112.368 44.5579C112.447 44.511 112.488 44.5863 112.545 44.6104C112.564 44.6179 112.589 44.6068 112.612 44.6055C112.628 44.6045 112.658 44.6009 112.66 44.6067C112.684 44.6713 112.767 44.6466 112.791 44.6836C112.834 44.7507 112.901 44.7065 112.935 44.7288C113.076 44.8205 113.243 44.818 113.391 44.8766C113.437 44.8945 113.481 44.9153 113.529 44.9364C113.532 44.9234 113.543 44.9016 113.537 44.8924C113.504 44.8431 113.416 44.8773 113.393 44.8031C113.392 44.8003 113.351 44.8141 113.33 44.812C113.31 44.81 113.28 44.802 113.274 44.7882C113.227 44.6788 113.138 44.6991 113.042 44.7198V44.7198ZM99.0923 44.4657C99.1976 44.6492 99.2864 44.8121 99.4252 44.9429C99.6187 45.1254 99.8383 45.2593 100.093 45.3364C100.133 45.3485 100.174 45.3949 100.207 45.3878C100.269 45.3742 100.308 45.3838 100.339 45.4379C100.343 45.4446 100.366 45.4495 100.371 45.4447C100.425 45.4008 100.478 45.4354 100.524 45.4529C100.658 45.5043 100.8 45.482 100.937 45.5089C100.894 45.4784 100.852 45.4434 100.804 45.4338C100.759 45.4246 100.728 45.3947 100.688 45.3823C100.636 45.3665 100.582 45.3553 100.531 45.3393C100.486 45.3255 100.436 45.3164 100.401 45.2893C100.365 45.2617 100.321 45.2711 100.283 45.2409C100.216 45.1884 100.115 45.2135 100.041 45.1435C99.9782 45.0837 99.846 45.1206 99.815 44.9996C99.784 45.0224 99.7508 45.0252 99.7166 45.0088C99.6627 44.9829 99.4502 44.7496 99.4248 44.6808C99.4057 44.6292 99.3276 44.6138 99.3439 44.5429C99.2993 44.5277 99.255 44.5119 99.2102 44.4976C99.1819 44.4886 99.1528 44.4819 99.0923 44.4657V44.4657ZM108.825 36.931C108.768 36.9126 108.735 36.8901 108.704 36.8934C108.593 36.9052 108.483 36.9248 108.373 36.9434C108.345 36.9481 108.319 36.9647 108.291 36.9679C108.219 36.9764 108.141 36.9505 108.076 36.9967C108.017 37.0394 107.921 36.9344 107.882 37.0471C107.718 37.0372 107.561 37.1016 107.4 37.1004C107.3 37.0996 107.213 37.1547 107.118 37.1412C106.959 37.1184 106.808 37.2206 106.648 37.1687C106.64 37.1662 106.628 37.1827 106.617 37.1852C106.535 37.2039 106.449 37.2439 106.371 37.2332C106.277 37.2203 106.192 37.2895 106.101 37.2474C106.098 37.2463 106.089 37.2604 106.083 37.2673C106.118 37.2951 106.153 37.3219 106.189 37.3507C106.207 37.3251 106.22 37.3069 106.234 37.2869C106.285 37.2969 106.337 37.3131 106.389 37.3156C106.442 37.318 106.515 37.2829 106.543 37.3069C106.595 37.35 106.636 37.2921 106.686 37.3198C106.719 37.338 106.792 37.3168 106.828 37.2885C106.888 37.2401 106.945 37.3338 106.964 37.3001C107.014 37.2119 107.059 37.3036 107.104 37.2901C107.152 37.2755 107.201 37.2639 107.251 37.2543C107.306 37.2436 107.361 37.2371 107.416 37.228C107.466 37.2198 107.515 37.2076 107.565 37.2024C107.621 37.1965 107.677 37.1998 107.733 37.1926C107.782 37.1861 107.831 37.1709 107.88 37.1593C107.929 37.1476 107.978 37.1344 108.028 37.1239C108.082 37.1123 108.137 37.1012 108.193 37.0932C108.242 37.086 108.294 37.0885 108.342 37.0772C108.392 37.0656 108.438 37.0396 108.488 37.0254C108.542 37.01 108.598 37.0031 108.652 36.9884C108.701 36.975 108.75 36.9562 108.825 36.931V36.931ZM106.455 33.6313C106.567 33.639 106.64 33.6298 106.701 33.6519C106.777 33.6796 106.854 33.6777 106.924 33.6661C107.037 33.6473 107.148 33.6514 107.26 33.6483C107.44 33.6434 107.62 33.6437 107.8 33.6418C107.959 33.6403 108.118 33.6053 108.275 33.6565C108.385 33.6213 108.499 33.7011 108.613 33.6377C108.655 33.6142 108.724 33.6449 108.78 33.639C108.811 33.6358 108.808 33.7346 108.846 33.6598C108.882 33.5864 108.887 33.6865 108.911 33.6674C108.997 33.601 109.097 33.6145 109.192 33.625C109.311 33.6381 109.427 33.6058 109.548 33.6132C109.644 33.6189 109.748 33.6316 109.85 33.6037C109.912 33.5865 109.986 33.5964 110.052 33.6078C110.239 33.6399 110.427 33.624 110.614 33.6281C110.818 33.6325 111.022 33.6559 111.226 33.6576C111.266 33.7051 111.339 33.6225 111.373 33.695C111.428 33.6853 111.482 33.6702 111.537 33.6672C111.594 33.6642 111.644 33.694 111.709 33.689C111.877 33.6758 112.048 33.692 112.217 33.698C112.331 33.7019 112.444 33.7124 112.558 33.7127C112.681 33.7129 112.807 33.6862 112.927 33.7042C113.144 33.7367 113.363 33.7371 113.577 33.7681C113.775 33.7964 113.978 33.8094 114.17 33.8805C114.277 33.9203 114.39 33.9437 114.502 33.9706C114.546 33.9812 114.59 33.986 114.638 33.9847C114.723 33.9824 114.816 34.0105 114.895 34.0482C115.029 34.1123 115.302 34.1988 115.465 34.2084C115.435 34.1824 115.408 34.1382 115.376 34.1339C115.232 34.1146 115.115 34.0278 114.98 33.9846C114.575 33.8544 114.149 33.8092 113.741 33.6925C113.718 33.686 113.693 33.6747 113.671 33.6774C113.493 33.6987 113.319 33.653 113.143 33.6435C113.107 33.6416 113.076 33.6274 113.042 33.6528C112.999 33.6843 112.996 33.5696 112.949 33.6204C112.881 33.6929 112.801 33.5919 112.729 33.6434C112.712 33.6551 112.659 33.6137 112.622 33.5985C112.611 33.5942 112.596 33.5914 112.587 33.5957C112.517 33.6284 112.518 33.629 112.46 33.575C112.419 33.5905 112.38 33.6526 112.336 33.5793C112.256 33.6108 112.163 33.5434 112.086 33.6112C112.077 33.6194 112.04 33.6155 112.038 33.6107C112.022 33.5564 111.991 33.5863 111.96 33.5892C111.921 33.5928 111.879 33.573 111.84 33.5788C111.709 33.5987 111.578 33.6086 111.45 33.5654C111.401 33.5486 111.36 33.5603 111.315 33.5687C111.27 33.5772 111.226 33.5961 111.179 33.5705C111.129 33.5427 111.058 33.587 111.016 33.5262C110.922 33.5774 110.823 33.5264 110.73 33.54C110.515 33.5718 110.302 33.4876 110.088 33.5407C109.976 33.5069 109.86 33.5303 109.748 33.5186C109.644 33.5076 109.535 33.5405 109.43 33.4888C109.386 33.4671 109.318 33.4805 109.265 33.4953C109.207 33.5118 109.159 33.4592 109.093 33.4949C109.047 33.5204 108.948 33.4667 108.914 33.4961C108.846 33.5557 108.817 33.4325 108.767 33.4835C108.58 33.4641 108.403 33.5564 108.216 33.5348C108.157 33.6027 108.084 33.5568 108.017 33.5613C107.944 33.5662 107.872 33.5881 107.797 33.567C107.769 33.5592 107.738 33.5674 107.709 33.5606C107.678 33.5532 107.648 33.5272 107.617 33.5269C107.561 33.5264 107.505 33.6034 107.45 33.5232C107.393 33.5393 107.337 33.559 107.279 33.5703C107.236 33.5789 107.185 33.5646 107.146 33.5817C107.067 33.6176 106.994 33.5465 106.925 33.5724C106.841 33.6041 106.779 33.5228 106.705 33.5592C106.646 33.6152 106.558 33.5751 106.455 33.6313V33.6313ZM100.736 34.6838C100.781 34.6498 100.751 34.5636 100.836 34.5901C100.843 34.5923 100.863 34.5288 100.886 34.5073C100.962 34.4388 101.031 34.3664 101.089 34.2818C101.108 34.2547 101.143 34.2361 101.175 34.2212C101.315 34.155 101.452 34.0846 101.558 33.9683C101.572 33.952 101.649 34.0146 101.609 33.9274C101.603 33.9159 101.64 33.8891 101.649 33.866C101.671 33.8024 101.713 33.7561 101.772 33.7287C101.802 33.715 101.837 33.7104 101.871 33.7078C101.949 33.7016 102.029 33.7079 102.105 33.6933C102.337 33.649 102.573 33.6452 102.806 33.6203C102.89 33.6114 102.975 33.613 103.058 33.6066C103.142 33.6003 103.226 33.5814 103.309 33.5832C103.433 33.5859 103.555 33.5697 103.677 33.554C103.794 33.5391 103.912 33.5407 104.03 33.5337C104.271 33.5195 104.513 33.5163 104.751 33.4847C104.883 33.467 105.003 33.5057 105.129 33.5099C105.137 33.5101 105.144 33.5201 105.151 33.5255C105.169 33.4285 105.25 33.4841 105.294 33.4778C105.471 33.4525 105.651 33.4499 105.829 33.4308C105.882 33.4251 105.883 33.4268 105.944 33.4829C105.963 33.4628 105.985 33.4234 106 33.4259C106.153 33.4512 106.306 33.3792 106.459 33.4312C106.477 33.4372 106.502 33.4203 106.524 33.4151C106.551 33.4086 106.583 33.3911 106.605 33.3991C106.765 33.4564 106.921 33.3868 107.079 33.3894C107.174 33.3909 107.269 33.4133 107.366 33.379C107.399 33.3673 107.45 33.4044 107.52 33.4287C107.6 33.367 107.72 33.3525 107.846 33.391C107.858 33.3945 107.871 33.4028 107.881 33.3997C108.095 33.3281 108.32 33.4155 108.535 33.3538C108.551 33.3491 108.579 33.3825 108.605 33.4008C108.691 33.3295 108.797 33.3294 108.911 33.3354C109.039 33.3423 109.169 33.3327 109.298 33.3246C109.472 33.3135 109.647 33.3056 109.822 33.318C109.877 33.3218 109.934 33.3119 109.99 33.312C110.037 33.312 110.086 33.3404 110.131 33.317C110.212 33.2749 110.29 33.372 110.368 33.3151C110.464 33.3514 110.561 33.3005 110.656 33.319C110.753 33.3382 110.853 33.3127 110.943 33.3296C111.092 33.3576 111.242 33.3434 111.39 33.3562C111.523 33.3676 111.66 33.401 111.796 33.3656C112.021 33.4144 112.249 33.3609 112.476 33.3883C112.582 33.4011 112.691 33.3887 112.799 33.3952C112.855 33.3985 112.913 33.3979 112.969 33.4106C112.987 33.4146 113.009 33.4292 113.021 33.4231C113.125 33.3709 113.226 33.3999 113.327 33.4303C113.379 33.3837 113.429 33.4305 113.48 33.434C113.53 33.4375 113.584 33.4269 113.632 33.4395C113.903 33.5106 114.182 33.5367 114.453 33.6151C114.68 33.6807 114.926 33.6804 115.146 33.7718C115.394 33.8746 115.661 33.9388 115.877 34.1125C115.98 34.1943 116.078 34.2744 116.161 34.3784C116.24 34.4768 116.303 34.582 116.364 34.69C116.43 34.8068 116.458 34.9327 116.441 35.0689C116.434 35.1239 116.439 35.1814 116.445 35.2371C116.455 35.3288 116.445 35.4185 116.44 35.5094C116.435 35.6295 116.403 35.7402 116.38 35.855C116.354 35.9895 116.257 36.0876 116.206 36.2091C116.2 36.2241 116.156 36.2234 116.145 36.226C116.138 36.262 116.141 36.2983 116.125 36.3187C116.086 36.3668 116.039 36.408 115.994 36.4505C115.956 36.4855 115.921 36.5244 115.878 36.5509C115.83 36.5802 115.77 36.5908 115.724 36.6217C115.683 36.6491 115.659 36.7046 115.617 36.7271C115.548 36.7638 115.46 36.7507 115.392 36.8015C115.366 36.8205 115.323 36.8138 115.296 36.8315C115.221 36.8808 115.132 36.8861 115.054 36.9166C114.983 36.9445 114.906 36.9049 114.836 36.9655C114.781 37.013 114.689 37.0167 114.616 37.0452C114.54 37.0748 114.469 37.1215 114.391 37.1419C114.203 37.1909 114.036 37.3006 113.841 37.3287C113.819 37.3319 113.786 37.3371 113.778 37.3521C113.72 37.459 113.594 37.4417 113.512 37.503C113.459 37.4789 113.453 37.5166 113.442 37.5528C113.438 37.5667 113.422 37.5854 113.41 37.5873C113.3 37.6035 113.227 37.6769 113.144 37.7415C113.081 37.7902 112.996 37.8085 112.923 37.8449C112.863 37.8745 112.801 37.9039 112.751 37.9459C112.703 37.9858 112.621 37.9596 112.595 38.0332C112.505 37.9919 112.473 38.1012 112.405 38.1069C112.329 38.1133 112.302 38.1967 112.216 38.1995C112.152 38.2017 112.09 38.2654 112.027 38.3017C111.959 38.3411 111.891 38.3803 111.821 38.4206C111.829 38.4355 111.836 38.4506 111.844 38.4656C111.815 38.4573 111.804 38.5376 111.76 38.4799C111.749 38.4651 111.695 38.4656 111.673 38.479C111.592 38.5293 111.489 38.5466 111.425 38.622C111.38 38.6755 111.32 38.6675 111.267 38.6877C111.168 38.7253 111.081 38.7948 110.99 38.8521C110.982 38.8574 110.978 38.8797 110.973 38.8795C110.769 38.8724 110.669 39.0656 110.5 39.1236C110.419 39.1513 110.337 39.1755 110.254 39.2018C110.297 39.2536 110.28 39.2883 110.229 39.3144C110.239 39.3225 110.246 39.3352 110.256 39.3363C110.33 39.3452 110.414 39.377 110.476 39.3532C110.563 39.3201 110.632 39.3828 110.716 39.3617C110.795 39.342 110.886 39.3703 110.972 39.3788C111.052 39.3868 111.133 39.4091 111.212 39.4029C111.41 39.3872 111.606 39.4425 111.806 39.4184C111.9 39.4068 112 39.443 112.098 39.4542C112.154 39.4606 112.217 39.4755 112.267 39.4589C112.324 39.44 112.378 39.4755 112.419 39.4609C112.472 39.4424 112.511 39.4605 112.556 39.4637C112.675 39.4721 112.794 39.4808 112.913 39.4786C113.118 39.4748 113.322 39.4622 113.525 39.4989L113.681 39.4816C113.769 39.4338 113.86 39.4853 113.951 39.4785C114.03 39.4725 114.122 39.4353 114.196 39.5073C114.204 39.5152 114.221 39.5203 114.232 39.5179C114.417 39.4798 114.687 39.469 114.841 39.4958C114.849 39.4973 114.86 39.5114 114.863 39.5095C114.966 39.4419 115.078 39.532 115.182 39.4919C115.361 39.5542 115.555 39.499 115.734 39.5633C115.753 39.5703 115.778 39.5638 115.801 39.5621C115.899 39.5546 115.996 39.5451 116.091 39.5846C116.141 39.6049 116.19 39.6026 116.244 39.591C116.293 39.5805 116.337 39.6246 116.399 39.607C116.481 39.5839 116.565 39.6316 116.654 39.6302C116.832 39.6273 117.01 39.6648 117.188 39.6868C117.339 39.7054 117.494 39.7116 117.647 39.7145C117.744 39.7163 117.84 39.7425 117.939 39.7426C118.041 39.7429 118.142 39.7711 118.245 39.753C118.261 39.7501 118.279 39.7584 118.297 39.7626C118.376 39.7821 118.452 39.8004 118.537 39.794C118.615 39.7882 118.692 39.8517 118.777 39.8162C118.941 39.86 119.105 39.9047 119.269 39.9475C119.393 39.9798 119.505 40.0262 119.615 40.1009C119.716 40.1693 119.835 40.2171 119.945 40.2772C120.109 40.3666 120.269 40.4601 120.413 40.577C120.472 40.6247 120.545 40.648 120.598 40.6938C120.745 40.8187 120.854 40.9688 120.857 41.1761C120.857 41.2522 120.858 41.3253 120.834 41.3993C120.801 41.503 120.771 41.6083 120.75 41.7148C120.722 41.8553 120.647 41.9778 120.566 42.0816C120.359 42.3451 120.124 42.584 119.787 42.6859C119.75 42.7731 119.659 42.735 119.597 42.7647C119.535 42.7944 119.469 42.8164 119.405 42.8411C119.354 42.8604 119.314 42.8363 119.274 42.8037C119.237 42.8576 119.183 42.8753 119.123 42.8982C119.028 42.9347 118.934 42.8864 118.836 42.9303C118.755 42.9666 118.648 42.9473 118.557 42.9809C118.495 42.9118 118.428 43.0328 118.365 42.9761C118.296 43.0346 118.215 42.9326 118.165 42.9768C118.111 43.0247 118.047 43.0396 117.989 43.0595C117.89 43.0933 117.774 43.0617 117.679 43.1281C117.667 43.0969 117.652 43.0819 117.616 43.1045C117.61 43.108 117.58 43.0604 117.542 43.0916C117.472 43.1486 117.389 43.1719 117.3 43.1734C117.215 43.1746 117.137 43.2088 117.046 43.1943C116.991 43.1854 116.914 43.1647 116.864 43.1934C116.807 43.2258 116.752 43.2107 116.697 43.2241C116.636 43.2389 116.576 43.2593 116.511 43.2334C116.495 43.2268 116.465 43.239 116.448 43.2518C116.415 43.2769 116.383 43.2736 116.347 43.2632C116.3 43.2499 116.246 43.2122 116.215 43.2923C116.213 43.2989 116.161 43.2812 116.133 43.2848C116 43.3022 115.868 43.3333 115.732 43.3234C115.721 43.3226 115.707 43.322 115.699 43.3275C115.616 43.3833 115.525 43.3665 115.433 43.369C115.378 43.3704 115.306 43.3447 115.25 43.4045C115.214 43.4428 115.195 43.3871 115.173 43.3635C115.102 43.4511 114.986 43.3506 114.909 43.4244C114.898 43.4353 114.865 43.4247 114.843 43.423C114.82 43.4214 114.788 43.4077 114.776 43.418C114.734 43.4526 114.696 43.4346 114.651 43.4317C114.612 43.429 114.554 43.4868 114.535 43.4736C114.487 43.4402 114.454 43.4791 114.415 43.475C114.369 43.4702 114.324 43.4648 114.278 43.4597C114.266 43.4585 114.252 43.452 114.244 43.4564C114.125 43.5188 113.982 43.4664 113.863 43.5548C113.845 43.4984 113.831 43.4573 113.817 43.4137C113.804 43.4185 113.793 43.4195 113.787 43.4257C113.758 43.4598 113.734 43.4981 113.702 43.5291C113.687 43.5434 113.647 43.5566 113.64 43.5497C113.569 43.4708 113.54 43.5391 113.503 43.5919L113.349 43.5508C113.327 43.6135 113.275 43.6314 113.241 43.5922C113.187 43.5311 113.133 43.559 113.107 43.5934C113.066 43.6478 113.026 43.653 112.969 43.6366C112.949 43.6307 112.917 43.6272 112.904 43.6385C112.833 43.7 112.752 43.6787 112.672 43.6874C112.624 43.6926 112.571 43.66 112.52 43.7052C112.484 43.7373 112.426 43.7436 112.377 43.7621C112.324 43.7828 112.268 43.8004 112.217 43.8264C112.172 43.8493 112.157 43.8268 112.131 43.7963C112.123 43.7855 112.081 43.8065 112.056 43.8029C112.015 43.797 111.976 43.7828 111.931 43.7709C111.936 43.8106 111.939 43.8403 111.943 43.8829C111.896 43.8576 111.873 43.7994 111.821 43.8448C111.798 43.8643 111.763 43.898 111.744 43.8372C111.734 43.8476 111.714 43.8586 111.715 43.8683C111.718 43.9252 111.762 43.966 111.819 43.9645C111.836 43.9641 111.851 43.9467 111.867 43.9427C111.877 43.9403 111.889 43.9494 111.903 43.9544C111.905 43.9755 111.907 43.9977 111.909 44.0247C111.93 44.0185 111.963 44.0026 111.967 44.008C112.003 44.0567 112.077 44.0206 112.093 44.0441C112.134 44.1057 112.195 44.1013 112.249 44.1177C112.311 44.1366 112.367 44.1596 112.42 44.1992C112.458 44.2277 112.509 44.2402 112.564 44.2472C112.653 44.2586 112.755 44.2639 112.821 44.3475C112.894 44.3169 112.941 44.3839 113.001 44.3998C113.085 44.4217 113.179 44.4157 113.249 44.4883C113.305 44.5466 113.416 44.5087 113.463 44.5948C113.569 44.6102 113.657 44.6787 113.756 44.7063C113.943 44.7585 114.113 44.85 114.282 44.9349C114.475 45.032 114.663 45.1469 114.838 45.2825C115.076 45.4663 115.301 45.6611 115.488 45.8932C115.609 46.0429 115.784 46.1602 115.818 46.3717C115.82 46.3834 115.846 46.3896 115.857 46.402C115.948 46.5064 115.991 46.6344 116.006 46.7668C116.011 46.8126 116.013 46.8543 116.029 46.8998C116.047 46.9511 116.062 47.0063 116.046 47.0671C116.032 47.1209 116.04 47.18 116.036 47.2367C116.031 47.2934 115.98 47.3472 116.027 47.4076C116.031 47.4135 116.021 47.4301 116.019 47.442C115.994 47.5805 115.967 47.7188 115.946 47.8578C115.937 47.9136 115.95 47.9744 115.934 48.0271C115.908 48.1154 115.861 48.1975 115.832 48.285C115.802 48.3707 115.792 48.4635 115.757 48.5466C115.721 48.6344 115.674 48.7217 115.615 48.7958C115.552 48.8751 115.524 48.9804 115.439 49.0404C115.358 49.0972 115.31 49.1926 115.232 49.2384C115.152 49.2847 115.097 49.3996 114.974 49.3618C114.964 49.3587 114.944 49.3726 114.935 49.3836C114.839 49.495 114.7 49.4921 114.574 49.513C114.503 49.5248 114.423 49.5128 114.353 49.4911C114.289 49.4711 114.306 49.5552 114.26 49.5451C114.226 49.5375 114.19 49.5234 114.156 49.526C114.059 49.5333 113.963 49.5393 113.867 49.5153C113.851 49.5112 113.832 49.5089 113.816 49.514C113.686 49.5576 113.556 49.5145 113.427 49.5094C113.37 49.5071 113.296 49.5251 113.26 49.4965C113.209 49.4554 113.158 49.4673 113.11 49.4648C112.957 49.4567 112.807 49.4067 112.65 49.4416C112.603 49.4522 112.541 49.4066 112.497 49.4213C112.447 49.4377 112.418 49.3992 112.369 49.4069C112.301 49.4178 112.222 49.4301 112.147 49.3947C112.085 49.3657 112.012 49.404 111.941 49.3784C111.879 49.356 111.805 49.3662 111.737 49.3567C111.669 49.3472 111.604 49.3037 111.531 49.3391C111.523 49.3431 111.509 49.3333 111.497 49.3308C111.288 49.2873 111.081 49.2261 110.87 49.2043C110.467 49.1626 110.092 49.0109 109.701 48.9242C109.645 48.9117 109.646 48.9089 109.548 48.9503C109.627 48.9762 109.691 48.9973 109.772 49.0243C109.754 49.0466 109.736 49.0809 109.725 49.0787C109.642 49.0616 109.559 49.0415 109.48 49.0134C109.452 49.0038 109.434 48.9689 109.412 48.9465C109.448 48.9014 109.533 49.0031 109.535 48.892C109.466 48.9076 109.397 48.8798 109.326 48.9267C109.268 48.9653 109.211 48.863 109.138 48.8747C109.136 48.875 109.134 48.8624 109.129 48.86C109.064 48.8252 109.014 48.761 108.954 48.7325C108.897 48.7055 108.812 48.738 108.74 48.7413C108.724 48.7421 108.708 48.7302 108.685 48.7217C108.702 48.7036 108.715 48.69 108.738 48.6645C108.582 48.6592 108.423 48.6765 108.329 48.5148C108.199 48.582 108.122 48.4591 108.02 48.4202C107.997 48.4114 107.993 48.3525 107.977 48.3068C107.96 48.3447 107.947 48.3755 107.933 48.4071C107.858 48.3512 107.808 48.3322 107.704 48.3135C107.682 48.3096 107.66 48.2978 107.642 48.2847C107.587 48.2455 107.532 48.225 107.459 48.2097C107.426 48.2029 107.397 48.1815 107.366 48.167C107.335 48.1523 107.3 48.1426 107.273 48.1225C107.233 48.0923 107.163 48.1621 107.145 48.0889C107.129 48.0251 107.059 48.0507 107.038 48.0073C107.031 47.9939 107.038 47.974 107.041 47.9187C107.013 47.9666 106.999 47.9922 106.983 48.0204C106.973 48.0002 106.98 48.0153 106.988 48.0305C106.903 48.0618 106.865 47.9688 106.801 47.9631C106.719 47.9558 106.71 47.8774 106.651 47.8308C106.63 47.8581 106.614 47.8785 106.594 47.9051C106.494 47.8706 106.381 47.8664 106.302 47.7688C106.259 47.7154 106.159 47.7081 106.007 47.7203C106.041 47.6933 106.057 47.6849 106.066 47.6715C106.075 47.6586 106.076 47.6405 106.082 47.6166C106.015 47.6396 105.958 47.6592 105.901 47.679C105.861 47.6286 105.822 47.5779 105.743 47.599C105.728 47.6031 105.7 47.5825 105.686 47.5663C105.655 47.5297 105.622 47.5197 105.577 47.539C105.563 47.5452 105.531 47.5465 105.529 47.5426C105.493 47.4313 105.396 47.55 105.346 47.4941C105.317 47.4613 105.286 47.4303 105.266 47.4091C105.233 47.4246 105.206 47.4387 105.179 47.4496C105.121 47.4727 105.104 47.3775 105.031 47.4037C104.983 47.4204 104.913 47.3849 104.858 47.3627C104.662 47.2843 104.446 47.3089 104.249 47.2382C104.133 47.2631 104.029 47.2095 103.921 47.1892C103.853 47.1767 103.784 47.1757 103.715 47.1708C103.652 47.1663 103.6 47.128 103.525 47.1458C103.463 47.1607 103.387 47.1063 103.317 47.1057C103.272 47.1054 103.227 47.1418 103.206 47.0723C103.161 47.1124 103.116 47.0835 103.071 47.0729C102.958 47.0462 102.844 47.0458 102.729 47.0477C102.683 47.0485 102.628 47.0413 102.592 47.0162C102.553 46.9887 102.499 47.0681 102.477 46.9918C102.408 46.9987 102.34 46.996 102.273 46.9728C102.213 46.952 102.151 46.9527 102.086 46.9553C101.959 46.9604 101.831 46.9449 101.705 46.931C101.636 46.9235 101.573 46.9031 101.499 46.9088C101.422 46.9147 101.337 46.8829 101.279 46.8163C101.261 46.7965 101.242 46.7785 101.202 46.772C101.216 46.8044 101.23 46.8367 101.245 46.869C101.154 46.8991 101.138 46.8195 101.097 46.7631C101.053 46.7858 100.991 46.7575 100.955 46.8236C100.949 46.8358 100.89 46.8245 100.857 46.8173C100.779 46.8002 100.719 46.7627 100.729 46.6574C100.684 46.726 100.642 46.7491 100.586 46.6941C100.58 46.6883 100.533 46.7098 100.516 46.7343C100.461 46.6516 100.329 46.6748 100.285 46.5562C100.283 46.5848 100.281 46.6135 100.278 46.6532C100.193 46.6217 100.083 46.6082 100.014 46.5479C99.9372 46.4806 99.8161 46.5024 99.7634 46.3913C99.7695 46.3574 99.7777 46.3126 99.7858 46.268C99.7802 46.2663 99.7744 46.2646 99.7687 46.2628C99.7544 46.2928 99.74 46.3227 99.7206 46.3633C99.6436 46.3439 99.5858 46.2923 99.5244 46.2438C99.3491 46.1052 99.2025 45.9418 99.0657 45.7651C98.9962 45.6753 98.9415 45.579 98.8796 45.4858C98.8213 45.3977 98.7547 45.3146 98.7007 45.224C98.5633 44.9932 98.433 44.7584 98.3904 44.4872C98.2933 44.3445 98.2885 44.1747 98.2553 44.0143C98.2021 43.7564 98.1835 43.4936 98.1633 43.2314C98.1526 43.0917 98.1413 42.9519 98.1382 42.8119C98.135 42.6713 98.1641 42.5304 98.1318 42.3896C98.1269 42.3686 98.137 42.3428 98.1444 42.3206C98.176 42.2252 98.1867 42.1295 98.1613 42.0305C98.1559 42.0095 98.1631 41.9852 98.1647 41.9625C98.1697 41.894 98.2182 41.8362 98.1876 41.7551C98.1683 41.7041 98.2355 41.6355 98.1958 41.5689C98.1915 41.5616 98.2007 41.5459 98.2043 41.5344C98.2791 41.2954 98.2749 41.0397 98.3605 40.8022C98.3873 40.7275 98.4153 40.6512 98.3951 40.5613C98.385 40.5164 98.3979 40.4397 98.4654 40.4096C98.4274 40.3578 98.4588 40.3079 98.4714 40.2587C98.5075 40.118 98.5503 39.9789 98.5819 39.8373C98.5979 39.7651 98.6521 39.6977 98.6079 39.6137C98.5847 39.5698 98.7034 39.5672 98.6564 39.5009C98.6975 39.4107 98.6791 39.31 98.7102 39.2163C98.7561 39.0788 98.8168 38.9365 98.817 38.7962C98.8172 38.6531 98.8681 38.53 98.896 38.3984C98.9259 38.2564 98.9724 38.1182 99.0054 37.9768C99.0167 37.9282 99.0139 37.8748 99.009 37.8247C99.0041 37.775 99.0947 37.7551 99.0448 37.6957C99.0766 37.6519 99.1245 37.6125 99.084 37.5494C99.1517 37.5215 99.0987 37.4614 99.1183 37.4205C99.138 37.3795 99.1374 37.3348 99.1762 37.295C99.2132 37.2568 99.2222 37.1868 99.2332 37.1288C99.2729 36.9189 99.3701 36.7289 99.472 36.5491C99.5711 36.3741 99.6668 36.1943 99.785 36.0294C99.8014 36.0065 99.8089 35.9748 99.8137 35.9461C99.8488 35.7347 99.9846 35.5637 100.047 35.3633C100.053 35.3445 100.081 35.3338 100.095 35.3162C100.119 35.2853 100.14 35.2522 100.163 35.2198C100.185 35.1875 100.212 35.1572 100.227 35.1217C100.24 35.0901 100.305 35.1672 100.29 35.0844C100.285 35.056 100.314 35.0168 100.335 34.9894C100.367 34.9498 100.405 34.9161 100.442 34.8808C100.519 34.8061 100.597 34.7317 100.674 34.6577C100.708 34.6258 100.723 34.6499 100.736 34.6838V34.6838Z" fill="#4D9EAF"/>
</svg>
