<svg width="108" height="40" viewBox="0 0 108 40" fill="none" xmlns="http://www.w3.org/2000/svg">
<path d="M88.8426 38.9648C85.1244 38.9648 81.8391 38.1753 78.9868 36.5964C76.1854 35.0174 73.9952 32.7763 72.4163 29.873C70.8882 26.9698 70.1242 23.5572 70.1242 19.6352C70.1242 15.7642 70.8882 12.3516 72.4163 9.3974C73.9952 6.44321 76.1854 4.15115 78.9868 2.52125C81.8391 0.840417 85.1244 0 88.8426 0C92.6627 0 95.9734 0.865886 98.7748 2.59766C101.576 4.32943 103.741 6.67241 105.269 9.6266C106.797 12.5299 107.561 15.8151 107.561 19.4824C107.561 20.1446 107.536 20.7812 107.485 21.3925C107.434 22.0037 107.383 22.4875 107.332 22.8441H78.834V14.8983H98.7748L97.476 18.1836C97.476 15.3822 96.7629 13.0901 95.3367 11.3074C93.9615 9.52474 91.8223 8.63338 88.919 8.63338C86.3214 8.63338 84.233 9.42287 82.6541 11.0018C81.126 12.5808 80.362 14.6691 80.362 17.2668V21.4689C80.362 24.2702 81.1515 26.4604 82.7305 28.0394C84.3604 29.5674 86.6015 30.3314 89.4538 30.3314C91.8477 30.3314 93.7323 29.8476 95.1075 28.8798C96.5337 27.9121 97.7307 26.7151 98.6984 25.2889L106.262 29.491C104.632 32.4962 102.34 34.8391 99.386 36.52C96.4318 38.1499 92.9174 38.9648 88.8426 38.9648Z" fill="#F3F1FC"/>
<path d="M51.182 39.194C47.3619 39.194 44.0002 38.3536 41.097 36.6728C38.2446 34.9919 36.029 32.6744 34.45 29.7202C32.8711 26.766 32.0816 23.3789 32.0816 19.5588C32.0816 15.7387 32.8711 12.3771 34.45 9.4738C36.029 6.51961 38.2446 4.20209 41.097 2.52125C44.0002 0.840417 47.3619 0 51.182 0C55.3586 0 58.9749 1.01869 62.031 3.05607C65.0871 5.09344 67.2773 7.8439 68.6016 11.3074L58.5165 15.8151C57.8035 14.2362 56.8612 13.0137 55.6897 12.1479C54.5182 11.231 53.0411 10.7726 51.2584 10.7726C49.0173 10.7726 47.1327 11.5621 45.6047 13.1411C44.0766 14.6691 43.3126 16.8084 43.3126 19.5588C43.3126 22.3093 44.0766 24.474 45.6047 26.0529C47.1327 27.581 49.0173 28.345 51.2584 28.345C53.0411 28.345 54.5182 27.9121 55.6897 27.0462C56.8612 26.1803 57.8035 24.9579 58.5165 23.3789L68.6016 27.8102C67.2773 31.2737 65.0616 34.0497 61.9546 36.138C58.8476 38.1753 55.2567 39.194 51.182 39.194Z" fill="#F3F1FC"/>
<path d="M0 15.194H23V24.194H0V15.194Z" fill="#5B4DAF"/>
<path d="M7 1.19403H30V11.194H7V1.19403Z" fill="#5B4DAF"/>
<path d="M7 29.194H30V38.194H7V29.194Z" fill="#5B4DAF"/>
</svg>
