<svg width="118" height="122" viewBox="0 0 118 122" fill="none" xmlns="http://www.w3.org/2000/svg">
<path fill-rule="evenodd" clip-rule="evenodd" d="M92.7299 80.9435L92.3505 80.7116C91.7915 81.9604 91.2326 83.2096 90.6743 84.4585C91.5203 83.3567 92.4126 82.2861 92.7299 80.9435ZM94.025 76.2361C94.7858 74.6778 95.475 72.9872 95.3732 71.0965C94.924 72.81 94.4745 74.523 94.025 76.2361ZM17.6264 32.463C17.8429 32.2194 18.0657 31.9808 18.2749 31.7306C22.5902 26.577 27.3902 21.9233 32.6298 17.7125C35.5823 15.3401 39.0783 13.7109 41.9361 11.2998C45.112 8.62036 48.2856 6.10652 52.1929 4.62291C52.2227 4.61133 52.1964 4.45027 52.1964 4.1885C44.1172 4.85942 37.0284 7.94207 30.9297 13.0971C24.7946 18.2834 19.7487 24.3642 17.6264 32.463ZM111.988 46.1314C111.885 35.3482 108.399 25.8964 100.588 18.2815C93.6531 11.5221 85.8543 6.30917 75.8418 5.35543C93.7222 13.8198 105.754 27.3677 111.988 46.1314ZM77.9208 10.4823C78.942 11.8898 80.4898 12.6133 81.7565 13.6923C89.0338 19.8917 93.9692 27.6213 97.2459 36.5636C100.477 45.3807 101.096 54.4757 100.402 63.6805C99.9675 69.4468 98.5387 75.0735 96.4578 80.5033C96.2954 80.9272 95.7701 81.4673 96.3799 81.8494C96.8884 82.1673 97.133 81.5171 97.446 81.2497C100.732 78.4425 103.371 75.0693 105.518 71.3631C107.486 67.9678 109.161 64.5069 108.922 60.2775C107.857 41.3797 100.059 26.1047 84.8869 14.691C82.7145 13.0565 80.4298 11.5743 77.9208 10.4823ZM104.851 81.2107C104.088 81.1658 103.652 81.4514 103.352 81.8259C101.717 83.867 99.6058 85.2555 97.4354 86.6739C96.1859 87.4904 94.923 88.2936 93.6419 89.0723C91.5635 90.3355 90.4525 92.4602 88.9896 94.2979C84.6381 99.7635 79.6332 104.537 73.696 108.322C66.6099 112.839 59.101 115.78 50.5654 116.154C46.0012 116.355 41.701 115.931 37.3361 114.561C30.2879 112.349 24.6051 108.212 19.7662 102.848C12.5264 94.8204 8.8276 85.0987 6.77098 74.6485C6.61553 73.8576 6.37903 73.0828 6.18007 72.3007C5.63056 74.2548 5.71302 76.1567 5.68003 78.0551C5.54353 85.983 7.64437 93.4438 11.5625 100.158C15.3796 106.699 20.9351 111.747 27.9692 114.961C34.3289 117.866 40.9795 119.276 47.9652 118.912C55.6436 118.512 62.949 116.542 69.9649 113.442C81.8646 108.185 92.1919 100.895 99.8493 90.1959C101.833 87.4252 103.547 84.486 104.851 81.2107ZM35.5377 21.6197C35.1598 21.7776 34.9388 21.8162 34.7882 21.9404C30.3609 25.5999 26.4575 29.7837 22.7696 34.1636C19.9367 37.5288 17.5243 41.2164 15.3206 45.0113C13.8227 47.5922 12.3854 50.2576 12.0524 53.3375C11.2432 60.819 11.3899 68.2553 12.898 75.6519C15.0487 86.2021 19.0037 95.8529 26.5723 103.773C30.4251 107.805 35.0184 110.682 40.303 112.296C48.8621 114.91 56.8837 112.721 64.6224 109.007C69.6294 106.603 74.0301 103.261 78.1321 99.5696C80.0006 97.8885 81.7948 96.0368 83.271 93.6127C80.6361 93.9135 78.3535 94.497 76.0088 94.7444C68.0297 95.5862 60.545 93.9717 53.5484 90.2508C44.0288 85.1887 37.6456 77.3289 34.0461 67.2258C29.4595 54.3534 29.7914 41.3571 33.3737 28.332C33.9794 26.1298 34.7717 23.9788 35.5377 21.6197ZM56.1622 9.99402C52.9669 10.5232 50.5103 11.5236 48.361 13.2623C46.1858 15.0214 44.8731 17.3864 43.4618 19.761C41.5255 23.018 40.1914 26.5386 39.1646 30.0672C38.2569 33.1853 37.6333 36.4715 37.2649 39.7816C36.3915 47.6175 36.2617 55.3478 38.5042 63.0171C40.843 71.0176 44.698 78.0335 51.0328 83.583C61.2973 92.5748 74.049 94.0991 86.101 88.6942C86.8849 88.3429 87.6064 87.9117 88.059 87.1506C91.0143 82.1854 93.1173 76.832 94.4261 71.2524C96.1989 63.6968 96.462 56.0005 95.4427 48.2765C93.9829 37.2137 89.9946 27.2695 82.3225 19.03C78.3472 14.7613 74.0195 10.8892 67.9851 9.74067C66.185 9.39819 64.1785 8.71569 62.7202 10.2105C61.1254 11.8454 59.6179 13.6893 58.5554 15.6979C54.0456 24.2248 53.0989 33.2064 55.8412 42.48C56.9072 46.0855 59.1909 48.8692 62.3809 50.9061C62.9872 51.2935 64.2368 51.5504 63.8182 52.4378C63.4494 53.2207 62.276 52.9975 61.4194 52.7519C61.1004 52.6603 60.7952 52.4919 60.5109 52.315C56.9391 50.0914 54.0074 47.2364 52.4108 43.2937C49.0218 34.9248 49.4043 26.4565 52.0423 17.9784C52.8968 15.2316 54.3035 12.7447 56.1622 9.99402ZM16.9165 22.312C16.4358 22.3235 16.2611 22.7204 16.073 23.0432C14.2985 26.0943 12.6763 29.231 11.5857 32.5895C11.212 33.7394 10.1873 34.7261 10.4744 36.143C11.1481 35.7911 11.446 35.3082 11.4769 34.6314C11.5295 33.4741 12.1162 32.4989 12.5892 31.4862C14.022 28.419 15.4508 25.3501 16.8807 22.2814C18.9191 19.6083 20.9582 16.9351 22.9966 14.2623C21.6088 15.5049 20.2568 16.7621 19.2216 18.3152C18.3654 19.5992 17.1215 20.6536 16.9165 22.312ZM0 76.8755C0.125973 71.0208 0.928832 65.2474 2.95809 59.7811C5.08875 54.0421 6.16952 48.0958 7.49557 42.1694C9.90766 31.3838 14.0479 21.3509 21.8105 13.1781C28.3008 6.34464 36.1567 1.91874 45.5187 0.534788C52.3518 -0.475452 59.1596 -0.0908661 65.8088 2.0005C66.4987 2.21735 67.2107 2.41316 67.9556 2.28753C74.4343 1.19623 80.5933 2.34684 86.5586 4.91297C93.8426 8.0465 100.289 12.3847 105.653 18.2514C109.77 22.7541 113.022 27.8502 114.931 33.6376C117.102 40.2198 118.054 46.9831 116.715 53.933C116.4 55.5664 116.528 57.3844 116.055 58.8947C115.472 60.7541 115.217 62.6774 114.61 64.5024C113.573 67.6223 113.214 70.8751 112.502 74.0574C111.607 78.0616 110.091 81.8467 108.305 85.5147C105.823 90.6118 102.693 95.35 98.665 99.3054C95.0791 102.827 91.3747 106.245 86.9084 108.827C83.717 110.672 80.6635 112.78 77.3485 114.44C66.6433 119.803 55.3657 122.62 43.3456 121.885C34.0576 121.317 25.5031 118.473 17.9636 112.936C7.43276 105.201 1.6566 94.7279 0.336162 81.7657C0.170888 80.141 0.109832 78.5058 0 76.8755Z" fill="#F3F1FC"/>
</svg>
