<svg width="431" height="226" viewBox="0 0 431 226" fill="none" xmlns="http://www.w3.org/2000/svg">
<path fill-rule="evenodd" clip-rule="evenodd" d="M45.7615 102.262C45.2513 102.143 45.0962 101.058 44.2875 101.721C44.2305 101.767 44.0052 101.726 43.9681 101.662C43.5059 100.872 42.6496 101.063 41.9665 100.875C40.6253 100.508 39.2483 100.275 37.9026 99.9217C36.5434 99.5645 35.1485 99.4134 33.8505 98.7098C32.9181 98.204 31.7403 98.0715 30.6527 97.9517C29.4882 97.8242 28.5984 96.9934 27.4793 96.8592C25.9327 96.6748 24.673 95.6242 23.12 95.4941C23.0627 95.4896 22.9955 95.4854 22.9516 95.4538C21.5525 94.452 19.8411 94.1312 18.3429 93.3428C17.7807 93.0471 17.3122 92.455 16.5515 92.6972C16.2392 93.1226 16.567 93.5444 16.5494 93.9584C16.4963 95.2158 16.7013 96.4822 16.4326 97.7319C17.0431 98.2469 16.3704 98.8798 16.5936 99.511C16.781 100.043 16.7519 100.815 16.6207 101.438C16.4885 102.062 16.9533 102.656 16.5993 103.247C17.136 104.02 16.5322 104.831 16.6899 105.678C16.9721 107.192 16.9168 108.779 17.0794 110.335C17.1741 111.237 17.4999 111.898 17.8379 112.444C18.7769 112.884 19.5682 112.674 20.2679 112.446C22.1844 111.822 24.1149 111.187 25.9351 110.333C28.783 108.996 31.7016 107.842 34.6125 106.666C36.994 105.703 39.3998 104.801 41.7996 103.884C43.1335 103.374 44.5552 103.083 45.7615 102.262ZM11.1159 110.099C10.8223 109.633 10.5752 109.239 10.3279 108.846C10.3731 108.815 10.4196 108.783 10.4648 108.752C10.5527 108.688 10.7247 108.58 10.7168 108.565C9.99802 107.168 11.1454 105.604 10.3346 104.204C10.5239 104.04 10.922 103.892 10.7823 103.604C10.5232 103.07 10.4651 102.65 11.0129 102.295C11.1135 102.23 11.1269 102.108 10.9889 102.044C10.2383 101.695 10.5179 101.186 10.6303 100.588C10.7336 100.034 10.4957 99.4245 10.4634 98.8354C10.3763 97.2585 10.7546 95.6742 10.4462 94.1052C10.3471 93.5998 11.1749 93.4882 10.8028 92.8238C10.6299 92.5158 10.4425 91.9203 10.6988 91.3786C10.9027 90.9462 10.6027 90.4396 10.6501 89.9205C10.7372 88.974 10.343 88.0982 9.45625 87.5564C9.55412 87.4948 9.65198 87.4332 9.74908 87.3722C9.67706 86.6555 9.3668 86.4041 8.70583 86.8386C8.58234 86.6415 8.45873 86.445 8.33352 86.2468C8.46786 86.1516 8.6022 86.0564 8.73119 85.9646C8.59105 85.3169 7.57567 85.2364 7.6744 84.5495C7.75535 83.9809 7.71773 83.4555 7.60202 82.9739C7.96552 82.4822 8.41681 83.1011 8.74332 82.766C8.6542 82.5158 8.32983 82.3149 8.70784 81.9089C9.14116 81.9565 9.71203 81.8775 10.0483 82.4925C10.6063 82.0096 10.8696 81.3909 11.0412 80.6714C11.2206 79.915 11.5799 79.2402 12.5268 79.1381C13.242 79.0611 13.4527 78.0465 14.3772 78.2328C14.4246 78.2861 14.5692 78.4481 14.7235 78.6018C15.3166 79.1908 15.7263 79.8081 15.7247 80.7936C15.7224 82.3377 16.2673 83.8918 16.1958 85.4235C16.1363 86.7149 16.9826 87.0175 17.7197 87.4369C18.2265 87.7258 18.819 87.9747 19.3646 88.1592C21.0518 88.73 22.5712 89.7361 24.3466 90.0578C25.3375 91.017 26.7932 90.7372 27.9157 91.4179C29.0056 92.08 30.4251 91.8961 31.5335 92.4485C33.5784 93.4682 35.814 93.6534 37.9598 94.2127C40.0939 94.7686 42.2582 95.2062 44.4087 95.6958C46.6159 96.1982 48.8026 96.9462 51.0366 97.1351C53.2817 97.3246 55.3971 97.9568 57.548 98.3154C57.9467 98.9492 58.3176 99.5387 58.638 100.048C58.2259 100.307 57.8092 100.569 57.364 100.85C57.9259 101.475 57.74 102.073 57.4725 102.425C56.3723 103.874 55.1084 105.067 53.228 105.598C50.3565 106.407 47.5432 107.428 44.7157 108.393C42.5463 109.132 40.4041 109.967 38.302 110.83C35.5942 111.942 32.8207 112.941 30.2262 114.341C29.2083 114.89 27.9654 115.055 27.0803 115.815C26.6383 116.194 26.0276 115.332 25.7733 116.198C25.6102 116.754 24.8685 116.504 24.4806 116.815C24.0334 117.174 23.4394 117.242 22.9833 117.517C22.5295 117.789 21.9875 117.687 21.5822 118.043C21.203 118.376 20.6802 118.451 20.2291 118.649C19.1731 119.109 18.0856 119.464 16.9848 119.77C15.6666 120.136 14.4755 119.795 13.4523 118.891C13.3307 118.783 13.1587 118.658 13.1039 118.565C12.8159 118.081 12.0438 118.206 11.9043 117.769C11.5572 116.684 10.8663 115.681 10.8556 114.531C10.8508 113.956 10.7217 113.453 10.5617 112.945C10.4036 112.445 10.8431 112.014 10.5724 111.459C10.3845 111.073 10.4578 110.437 11.1159 110.099Z" fill="#5B4DAF"/>
<path d="M97 0H431V49.8982H97V0Z" fill="#5B4DAF" fill-opacity="0.44"/>
<path d="M97 72.4712H431V122.369H97V72.4712Z" fill="#5B4DAF" fill-opacity="0.44"/>
<path d="M163.198 153.259H364.802V180.584H163.198V153.259Z" fill="#5B4DAF" fill-opacity="0.39"/>
<path d="M163.198 198.405H364.802V225.73H163.198V198.405Z" fill="#5B4DAF" fill-opacity="0.39"/>
</svg>
