<svg width="126" height="81" viewBox="0 0 126 81" fill="none" xmlns="http://www.w3.org/2000/svg">
<path fill-rule="evenodd" clip-rule="evenodd" d="M105.243 8.83312C105.208 8.70739 105.174 8.58107 105.139 8.45534C102.557 9.1686 99.9759 9.88127 97.3933 10.5945C97.4352 10.7429 97.4764 10.8918 97.5171 11.0412C100.093 10.3054 102.668 9.56897 105.243 8.83312ZM17.4204 68.9717C16.0832 68.1935 14.4649 67.7549 14.8628 65.8203C15.1166 64.5902 15.3304 63.2952 15.8915 62.1966C17.6243 58.8019 19.231 55.2877 21.415 52.1914C24.3153 48.0805 28.4331 45.3775 33.611 45.1747C38.5514 44.9806 43.5126 45.2384 48.4634 45.3642C55.2637 45.5363 62.0924 46.1296 68.4169 42.6659C72.4749 40.4432 75.9212 37.7415 78.0989 33.4764C80.5607 28.6534 83.1624 23.8756 86.0778 19.3162C90.1416 12.9612 95.8765 8.82078 103.544 7.73844C104.321 7.62894 105.307 7.30099 105.852 7.63415C106.773 8.19792 107.54 9.13482 108.112 10.0735C108.312 10.4008 107.908 11.471 107.491 11.7178C106.598 12.2468 105.492 12.4004 104.523 12.8216C103.754 13.1553 103.058 13.6577 102.332 14.0888C102.198 14.1682 102.062 14.3507 101.943 14.3379C99.3566 14.0488 98.1867 16.3114 96.3924 17.4239C92.2461 19.9959 89.7646 23.988 87.516 28.1383C85.3924 32.058 83.3715 36.0334 81.2072 39.9299C80.5903 41.0412 79.7672 42.1206 78.8047 42.9446C76.0107 45.3387 73.1511 47.4645 69.5874 48.9287C62.6768 51.7678 55.7359 50.9624 48.687 50.5476C44.3218 50.2903 39.9036 50.0504 35.5657 50.4375C30.0596 50.9283 26.245 54.4001 23.1948 58.8111C22.3921 59.9717 21.1728 60.8443 20.3608 61.9996C19.8229 62.7656 19.7119 63.8184 19.3349 64.7113C18.7465 66.1088 18.0953 67.4797 17.4204 68.9717Z" fill="#4D9EAF"/>
<path fill-rule="evenodd" clip-rule="evenodd" d="M16.229 33.6232C16.3062 33.7619 16.384 33.9012 16.4606 34.0398C17.7691 33.3186 19.0783 32.5974 20.3875 31.8761C20.3004 31.7189 20.2134 31.5617 20.1263 31.4044C18.8276 32.1442 17.5277 32.8834 16.229 33.6232ZM54.6326 33.5976C54.6668 33.7253 54.7011 33.8529 54.7353 33.9806C56.33 33.5489 57.9241 33.1178 59.5188 32.6861C59.4845 32.5601 59.4509 32.4348 59.4172 32.3089C57.8225 32.7389 56.2279 33.1682 54.6326 33.5976ZM88.9321 0.597643C88.6385 0.845984 88.3448 1.0949 87.891 1.47902H89.3459C90.3811 3.37697 89.7265 4.76547 88.3094 5.98629C87.0745 7.04986 85.9314 8.26139 84.1034 8.20395C83.9148 8.19815 83.6003 8.27532 83.548 8.40007C82.8534 10.0514 81.6365 9.98237 80.3221 9.38879C80.2461 10.1715 80.3459 10.9682 80.0604 11.5879C79.7534 12.2552 79.1052 12.7762 78.5719 13.328C75.4864 16.5181 74.2829 20.6454 72.7358 24.6443C71.3129 28.3213 69.3294 31.725 65.8011 33.8765C65.3398 34.1573 64.7403 34.2124 63.864 34.4735C63.2953 35.4025 62.4568 36.5519 60.652 36.722C59.6023 36.8212 58.6355 37.7385 57.5816 37.8633C54.6801 38.2062 51.7194 38.6872 48.844 38.4278C46.1775 38.187 43.5231 37.2424 40.9837 36.2874C35.4604 34.2107 29.8134 33.8933 24.1508 35.1338C21.0061 35.8232 18.0906 37.3225 15.9505 39.9701C15.3028 40.7714 14.4185 41.3766 13.6762 42.106C10.0615 45.657 7.21454 49.7401 5.2177 54.4046C4.602 55.8442 4.01531 57.2965 3.40192 58.7378C3.11235 59.4155 2.78332 59.7521 1.97553 59.2078C-0.0125997 57.8681 -0.313198 56.9919 0.255502 54.5253C2.53785 44.6213 8.55156 37.4148 16.7217 31.8143C20.3416 29.3327 24.5877 28.8267 28.8211 28.9445C31.6768 29.0245 34.5481 29.5682 37.351 30.1839C39.9647 30.7577 42.4832 31.7488 45.0673 32.47C48.208 33.3461 51.3428 32.7636 54.4584 32.2367C62.3175 30.9074 67.1805 26.2417 69.5777 18.7428C72.2355 10.4274 77.5761 4.41153 85.495 0.740381C86.4763 0.286056 87.6444 0.236736 88.7261 0C88.7952 0.199021 88.8636 0.398042 88.9321 0.597643Z" fill="#4D9EAF"/>
<path fill-rule="evenodd" clip-rule="evenodd" d="M103.09 35.6166C102.482 36.2796 101.863 36.9339 101.269 37.6084C101.013 37.8981 100.547 38.4205 100.615 38.5121C101.542 39.7574 100.568 40.7965 99.8939 41.2722C98.1653 42.4939 98.7311 44.2282 98.4919 45.7695C98.3491 46.6859 97.2008 48.1224 96.3582 48.2802C96.2894 47.8621 96.2224 47.4537 96.1559 47.0453C95.7861 47.2262 95.3509 47.3368 95.0608 47.6035C94.5615 48.0631 94.1517 48.6201 93.5709 49.2894C94.176 49.4074 94.5892 49.4881 95.0238 49.5722C95.1076 50.098 95.1885 50.6043 95.2688 51.1049C93.6882 51.6872 92.0961 51.9671 90.8853 53.3201C90.2271 54.0562 89.3157 54.4007 89.8364 55.616C89.8809 55.7191 89.2516 56.3003 89.1493 56.2473C86.6857 54.9709 85.3466 57.2449 84.5971 58.4354C83.9787 59.4163 83.2575 59.9422 82.4611 60.3166C81.8503 60.6034 80.925 60.2123 80.1367 60.1478C79.9403 60.1317 79.7362 60.2118 79.4323 60.2653C79.4681 60.7336 79.5005 61.1575 79.5311 61.5711C78.1198 62.1695 78.1198 62.1695 74.9164 61.2831C74.6321 63.0479 73.1954 63.6423 71.3357 62.6822C71.2305 63.0335 71.1311 63.3676 71.1172 63.4137C69.1945 63.3716 67.184 61.4432 65.5294 64.269C64.0736 62.6678 62.5635 63.3549 60.9119 64.193C60.1375 64.5852 59.0903 64.5242 58.1662 64.5305C54.3924 64.5559 50.6816 64.807 47.0107 65.899C45.2123 66.4341 43.6883 67.5239 41.9921 68.0187C38.3287 69.0877 36.6482 72.3276 34.0799 74.5607C32.875 75.6084 32.2612 77.3237 31.351 78.7182C30.7956 79.5683 30.557 80.9104 28.9452 80.1149C27.6975 79.4998 27.227 78.7124 27.8049 77.2016C30.4905 70.1832 34.8335 64.7309 41.9916 61.6615C47.3812 59.3518 52.9968 59.3219 58.6586 59.1687C62.3179 59.0696 65.9721 58.8121 69.6309 58.6485C70.1966 58.6238 71.1612 58.1112 70.9046 59.448L70.9109 59.4221L70.2036 59.6899C70.1978 59.7723 70.1926 59.8547 70.1868 59.937C70.5411 59.9693 70.9034 60.0626 71.2467 60.0177C71.6507 59.9652 72.0425 59.6755 72.4326 59.6899C75.5834 59.8045 78.2383 58.2834 80.8753 56.9592C83.677 55.552 86.2904 53.759 88.9274 52.0455C89.7307 51.5242 90.3421 50.7092 91.0414 50.0283L90.9952 50.0669C91.5124 49.658 92.0285 49.2485 92.8716 48.5809C91.9192 48.5216 91.4355 48.4916 90.6704 48.4444C91.706 47.1864 92.5688 45.9913 93.5906 44.9505C94.2673 44.2604 94.7343 44.5617 95.2162 45.7874C95.9877 45.7338 96.7309 45.6825 97.6215 45.6203C97.1939 45.0449 96.8332 44.5588 96.5784 44.2172C95.9022 44.1619 95.0642 44.2915 94.9267 44.0398C94.673 43.5767 94.7348 42.8717 94.84 42.2992C94.9885 41.4917 95.2382 40.6882 95.5584 39.9307C95.7508 39.4757 96.1588 39.1117 96.624 38.5063C96.3206 37.257 96.8465 35.9709 99.0726 33.1168C99.3766 33.2672 99.6974 33.425 100.094 33.6208C99.895 31.6884 100.093 31.3774 101.043 31.4563V33.4359L101.01 33.3916C101.343 34.0713 101.676 34.7503 102.046 35.5089C102.134 35.4847 102.463 35.3937 102.792 35.3021C102.891 35.407 102.991 35.5118 103.09 35.6166Z" fill="#4D9EAF"/>
<path fill-rule="evenodd" clip-rule="evenodd" d="M103.667 34.4285C103.569 34.3249 103.471 34.2213 103.373 34.1177C103.58 31.9191 103.489 31.8211 101.618 32.2293L101.65 32.2732C102.328 31.6282 103.006 30.9826 103.768 30.2567C103.288 29.9493 102.829 29.6556 102.128 29.2064C102.727 28.858 103.155 28.5961 103.597 28.3604C103.744 28.2825 103.997 28.3308 104.082 28.225C107.423 24.1073 111.855 21.6195 116.756 19.9333C119.023 19.1534 121.415 18.7383 123.755 18.1776C124.089 18.0973 124.451 18.1303 124.8 18.111L124.947 18.604C122.012 19.4659 119.077 20.3278 116.143 21.1897C116.18 21.3326 116.218 21.4755 116.256 21.6189C119.302 20.7775 122.348 19.9356 125.365 19.1021C126.425 21.4413 126.261 21.7288 124.081 22.6653C121.221 23.895 118.407 25.2322 115.563 26.4983C114.997 26.7499 114.46 27.1484 113.782 26.4528C113.506 26.171 112.7 26.4067 111.986 26.4067V25.3506C111.309 25.7793 110.728 26.1471 109.797 26.7368C110.621 26.8353 111.024 26.8831 111.412 26.9298C111.412 27.0847 111.451 27.2065 111.407 27.2629C110.914 27.8862 110.176 28.1902 110.239 29.351C110.282 30.1463 109.232 30.1195 108.763 29.3709C108.34 29.84 107.915 30.312 107.279 31.0167C107.392 32.4713 106.342 33.3224 104.386 32.7451C104.459 33.2188 104.632 33.6565 104.538 34.0254C104.489 34.2213 103.973 34.2981 103.667 34.4285Z" fill="#4D9EAF"/>
<path fill-rule="evenodd" clip-rule="evenodd" d="M84.2546 53.5187C82.0838 54.4951 79.9119 55.4709 77.7405 56.4473C77.6345 56.3009 77.5291 56.1545 77.4231 56.0081C77.7208 55.8153 77.9986 55.5941 78.3178 55.434C79.8299 54.6762 81.3414 53.9168 82.8818 53.2027C83.2133 53.0495 83.6625 53.0837 84.058 53.0316C84.1234 53.1938 84.1893 53.3565 84.2546 53.5187Z" fill="#4D9EAF"/>
<path fill-rule="evenodd" clip-rule="evenodd" d="M70.5917 58.7245C71.6343 56.6844 73.5441 57.0645 75.146 56.4474C75.0701 57.5492 73.7085 58.1841 70.6032 58.6859C70.5983 58.696 70.5917 58.7245 70.5917 58.7245Z" fill="#4D9EAF"/>
<path fill-rule="evenodd" clip-rule="evenodd" d="M91.0861 49.4973C90.4852 49.5862 89.8449 49.5923 89.2955 49.7875C88.7561 49.979 88.3094 50.3627 87.6703 50.7545C87.8196 49.5755 89.2023 48.3147 90.0964 48.4945C90.4828 48.5717 90.7265 49.1704 91.0365 49.5321C91.0383 49.5315 91.0861 49.4973 91.0861 49.4973Z" fill="#4D9EAF"/>
</svg>
