<svg width="288" height="281" viewBox="0 0 288 281" fill="none" xmlns="http://www.w3.org/2000/svg">
<path fill-rule="evenodd" clip-rule="evenodd" d="M109.252 227.705C109.051 227.482 108.86 227.346 108.773 227.161C108.399 226.369 108.085 225.545 107.445 224.91C107.653 224.333 107.057 224.095 106.877 223.688C105.921 221.526 105.064 219.319 104.026 217.062C103.866 217.4 103.755 217.634 103.645 217.868C103.839 218.352 104.395 218.551 104.54 219.109C104.672 219.618 104.74 220.149 104.988 220.637C105.093 220.843 104.89 221.246 105.018 221.392C105.779 222.264 105.765 223.493 106.484 224.393C106.886 224.897 106.977 225.625 107.459 226.113C107.971 226.632 108.043 227.459 108.696 227.877C108.763 227.921 108.849 227.935 108.927 227.963C108.994 227.909 109.062 227.856 109.252 227.705ZM89.927 152.236C89.8733 152.04 89.802 151.847 89.7692 151.647C89.7298 151.402 89.6961 151.146 89.664 150.913C89.5645 150.195 89.1179 149.626 88.9688 148.947C88.7215 147.821 88.2169 146.793 87.8085 145.726C87.1813 144.087 86.2874 142.563 85.7757 140.868C85.6427 140.428 85.5992 139.757 84.9253 139.551C85.0853 140.312 85.2933 141.03 85.3749 141.761C85.4732 142.635 86.0184 143.364 86.094 144.233C86.8659 145.039 87.0617 146.148 87.5092 147.109C87.967 148.093 88.4115 149.112 88.7527 150.166C88.9831 150.877 89.2333 151.65 89.927 152.236ZM84.1643 155.076C83.8125 153.727 83.6504 152.443 83.1437 151.314C82.3336 149.508 81.9272 147.585 81.2552 145.743C80.9757 144.977 80.7257 144.159 80.6909 143.355C80.652 142.456 79.9645 141.729 80.145 140.809C79.6705 139.092 79.3459 137.346 79.1453 135.578C79.1033 135.21 78.9534 135.03 78.6334 134.939C78.2755 135.136 78.3571 135.452 78.4324 135.736C78.6316 136.489 78.8206 137.263 78.9516 138.01C79.102 138.872 79.3739 139.691 79.5449 140.539C79.7155 141.389 79.8801 142.239 80.058 143.087C80.4621 145.015 81.1935 146.84 81.7942 148.706C82.3065 150.297 82.8288 151.894 83.2944 153.504C83.4482 154.036 83.5509 154.631 84.1643 155.076ZM77.9892 155.494C77.6746 155.21 77.5499 154.802 77.4487 154.42C77.2907 153.828 76.9623 153.217 76.9935 152.655C77.0318 151.975 76.3856 151.478 76.6618 150.807C76.2568 149.567 75.813 148.338 75.458 147.084C74.9348 145.235 74.3481 143.39 74.0221 141.503C73.6555 139.382 73.4081 137.239 72.9624 135.128C72.8804 134.74 72.8518 134.339 72.46 133.847C72.4213 134.615 72.2872 135.187 72.3832 135.719C72.7984 138.022 73.2325 140.324 73.8778 142.578C74.3507 144.231 74.7107 145.919 75.0776 147.593C75.3333 148.755 75.5645 149.947 75.941 151.056C76.4525 152.562 76.8664 154.099 77.4134 155.591C77.4373 155.655 77.5426 155.69 77.5801 155.717C77.7792 155.782 77.8264 155.627 77.9892 155.494ZM95.6317 221.283C95.1773 222.282 96.025 223.187 95.809 224.175C96.2361 224.804 96.2511 225.577 96.5311 226.248C96.892 227.113 97.3365 227.951 97.7694 228.781C98.1196 229.451 98.7808 229.959 99.3552 230.595C99.4742 229.504 98.8146 228.744 98.6256 227.844C98.4353 226.937 98.0605 226.06 97.6896 225.204C97.3137 224.336 97.2199 223.393 96.8483 222.523C96.4856 221.673 96.0516 220.85 95.8424 219.815C95.5506 220.14 95.6612 220.401 95.6188 220.622C95.5679 220.89 95.1659 220.914 95.2085 221.238C95.3331 221.251 95.4574 221.265 95.6317 221.283ZM138.594 221.226C139.853 220.23 140.447 218.705 141.406 217.451C142.154 216.472 142.686 215.346 143.418 214.347C144.168 213.32 144.804 212.205 145.529 211.165C146.237 210.149 146.796 209.039 147.578 208.062C148.078 207.438 148.467 206.689 149.043 205.906C148.207 206.215 148.082 206.958 147.607 207.333C147.081 207.749 146.964 208.442 146.414 208.812C145.934 209.134 146.081 209.976 145.296 210.173C145.309 210.372 145.327 210.634 145.345 210.883C145.051 211.149 144.689 211.334 144.553 211.625C144.185 212.413 143.6 213.059 143.165 213.802C142.758 214.496 142.294 215.245 141.735 215.815C141.131 216.429 140.825 217.287 140.067 217.748C139.894 217.852 139.929 218.046 139.862 218.192C139.727 218.487 139.538 218.791 139.362 219.025C139.19 219.252 139.222 219.817 138.69 219.724C138.756 220.364 137.923 220.424 137.871 220.941C137.799 221.664 137.279 222.036 136.835 222.451C136.912 223.286 136.281 223.8 135.951 224.486C136.778 224.324 136.769 223.447 137.294 223.138C137.83 222.823 137.792 221.956 138.558 221.919C138.569 221.699 138.58 221.479 138.594 221.226ZM67.6638 142.311C67.623 143.738 68.0925 145.077 68.4614 146.423C68.8314 147.773 68.9477 149.21 69.6593 150.634C69.9921 150.055 70.0575 149.653 69.8427 149.175C69.5747 148.58 69.2846 147.974 69.1665 147.342C69.0728 146.84 68.9978 146.388 68.7267 145.928C68.478 145.508 68.8437 144.918 68.5425 144.439C68.5033 144.377 68.5704 144.252 68.5349 144.184C67.9708 143.107 67.9643 141.879 67.646 140.735C67.4992 140.207 67.3794 139.575 67.4929 138.961C67.6026 138.366 67.179 137.743 67.5528 137.149C67.2448 135.75 67.6101 134.275 67.0631 132.904C67.1857 131.661 66.6212 130.452 66.8777 129.202C66.5704 128.765 66.942 128.125 66.3761 127.726C66.2856 127.939 66.3759 128.152 66.3486 128.349C66.2335 129.182 66.5109 130.084 65.8735 130.838C65.7367 130.999 65.7111 131.453 65.8361 131.598C66.2367 132.066 66.2266 132.497 65.9353 132.981C66.3614 134.553 66.0409 136.236 66.6765 137.786C66.8604 138.234 66.7849 138.787 66.9539 139.245C67.0282 139.447 66.1738 139.719 67.0218 139.834C67.2194 139.86 66.9404 140.427 67.2005 140.746C67.5212 141.139 67.4739 141.611 67.1794 142.042C67.1496 142.086 67.187 142.177 67.1927 142.233C67.3276 142.255 67.4518 142.276 67.6638 142.311ZM146.512 122.049C146.375 122.809 145.555 122.475 145.308 122.965C144.029 123.094 142.881 123.817 141.541 123.743C141.158 123.722 140.598 123.78 140.319 124.437C140.928 124.341 141.47 124.254 142.013 124.171C143.764 123.904 145.399 123.205 147.11 122.783C147.826 122.607 148.442 122.105 149.256 122.207C149.572 122.246 149.807 121.845 150.083 121.67C150.636 121.316 151.306 121.52 151.847 121.069C152.29 120.7 152.94 120.548 153.529 120.357C154.071 120.182 154.644 119.99 155.125 119.752C155.65 119.492 156.193 119.319 156.728 119.115C157.681 118.751 158.651 118.427 159.604 118.061C160.979 117.535 162.417 117.208 163.809 116.723C164.752 116.393 165.786 116.168 166.8 115.997C167.369 115.9 167.373 115.92 167.937 115.237C167.062 115.408 166.252 115.566 165.427 115.728C165.432 115.566 165.436 115.399 165.441 115.213C166.843 114.893 168.243 114.579 169.682 114.44C170.673 114.344 172.916 113.367 173.725 112.675C174.009 112.431 174.435 112.567 174.615 112.246C174.862 111.806 175.42 112.004 175.713 111.641C175.96 111.336 176.34 111.135 176.577 110.825C176.867 110.445 177.384 110.578 177.679 110.223C177.931 109.921 178.255 109.676 178.557 109.417C179.37 108.724 180.062 107.936 180.521 106.959C180.555 106.885 180.627 106.819 180.697 106.773C181.617 106.165 181.989 105.029 182.908 104.443C183.324 104.178 183.23 103.666 183.615 103.403C184.012 103.13 184.41 102.81 184.684 102.422C184.883 102.141 185.143 101.91 185.321 101.601C185.512 101.274 185.835 100.991 186.162 100.787C186.604 100.511 186.417 99.569 187.27 99.7646C187.304 99.1404 187.704 98.9044 188.259 98.8334C188.221 98.2137 188.699 98.2 189.11 98.1058C189.461 98.0253 189.28 97.4521 189.701 97.453C189.965 97.4534 189.726 96.9846 190.146 97.0568C190.345 97.0908 190.619 96.7271 190.85 96.5334C191.053 96.3631 191.245 96.1794 191.442 96.0019C191.639 95.824 191.847 95.657 192.031 95.4671C192.97 94.4988 194.279 94.012 195.201 93.0036C195.448 92.7316 195.929 92.6454 196.322 92.5385C196.722 92.4289 196.91 92.214 196.886 91.8048C197.489 91.8667 197.902 91.5291 198.37 91.2085C199.136 90.6841 199.802 89.9918 200.745 89.7293C200.973 89.666 201.143 89.3913 201.341 89.2134C202.161 88.4732 202.988 87.7403 203.798 86.9889C204.1 86.7086 204.535 86.5127 204.534 86.0013C205.066 86.082 205.276 85.6138 205.603 85.3579C205.95 85.0851 206.264 84.7706 206.592 84.4745C206.92 84.1787 207.232 83.8607 207.581 83.5932C207.877 83.3663 208.05 82.9434 208.545 83.0019C208.725 83.0232 208.752 82.8014 208.823 82.6401C209.11 81.9828 209.594 81.6175 210.361 81.8035C210.279 81.3434 210.668 80.9901 210.89 80.995C211.412 81.006 211.465 80.5456 211.756 80.3484C212.1 80.1147 212.147 79.507 212.663 79.4822C213.186 79.457 213.336 78.962 213.841 78.7318C213.951 78.6965 214.025 79.1007 214.308 78.9492C214.586 78.4202 214.807 77.8279 215.579 77.7226C216.027 77.6615 216.174 76.9429 216.766 77.0505C217.205 76.5313 217.961 76.6108 218.415 76.2464C218.891 75.8638 219.527 75.7794 219.914 75.3052C220.125 75.0467 220.459 75.0952 220.716 74.9907C222.683 74.1912 224.637 73.3594 226.641 72.6425C229.216 71.7217 231.865 71.1983 234.53 70.6936C235.071 70.5912 235.644 70.5772 236.163 70.5794C237.949 70.5881 239.746 70.3598 241.524 70.6293C244.288 71.048 247.003 71.6591 249.584 72.786C250.484 73.1785 251.418 73.5498 252.241 74.0362C253.297 74.6606 254.513 75.0821 255.363 76.0392C255.421 76.1038 255.476 76.2007 255.548 76.2184C256.726 76.502 257.309 77.5088 258.106 78.2686C259.073 79.1915 260.154 79.9962 260.975 81.0698C261.644 81.0822 261.572 81.7616 261.888 82.0936C262.528 82.7658 263.137 83.4668 263.759 84.1556L265.003 85.5341C264.827 86.2409 265.868 86.4038 265.705 87.1044C266.447 87.796 266.53 88.8184 266.985 89.6303C267.461 90.48 267.68 91.3886 268.061 92.2465C268.908 94.1534 269.061 96.2245 269.598 98.2016C269.687 98.526 269.434 98.9937 269.588 99.2385C269.93 99.7835 269.479 100.397 269.928 100.963C270.256 101.376 269.958 102.064 269.941 102.628C269.928 103.068 270.441 103.315 270.282 103.823C270.167 104.191 270.283 104.626 270.192 105.007C269.802 106.634 269.535 108.287 269.107 109.909C268.79 111.113 268.176 112.231 268.077 113.494C267.549 114.121 267.547 114.955 267.241 115.673C266.937 116.389 266.535 117.054 266.247 117.782C265.936 118.57 265.572 119.354 265.128 120.098C264.603 120.977 264.21 121.921 263.602 122.771C263.237 123.281 262.995 123.922 262.634 124.472C262.387 124.849 262.247 125.336 261.921 125.61C261.612 125.868 261.599 126.364 261.154 126.468C261.114 126.477 261.031 126.465 261.031 126.467C260.949 127.441 260.053 127.991 259.784 128.859C259.656 129.272 259.413 129.412 259.011 129.364C258.99 129.614 258.968 129.864 258.949 130.092C258.813 130.112 258.698 130.129 258.583 130.146C258.781 130.961 257.948 131.283 257.712 131.906C257.581 132.251 257.248 132.607 256.988 132.899C256.67 133.256 256.642 133.821 256.194 134.019C255.804 134.19 255.898 134.797 255.393 134.813C255.335 135.85 254.309 136.239 253.892 137.05C253.497 137.818 252.929 138.512 252.394 139.171C251.92 139.756 251.634 140.531 250.931 140.936C250.583 141.137 250.715 141.645 250.316 141.877C250.012 142.054 249.594 142.271 249.671 142.776C249.137 142.605 249.31 143.194 249.061 143.356C248.747 143.56 248.588 143.918 248.385 144.239C248.033 144.797 247.328 145.108 247.109 145.81C246.197 146.424 245.831 147.546 244.911 148.16C244.408 148.495 244.338 149.185 243.798 149.537C243.323 149.846 242.809 150.217 242.532 150.69C241.804 151.935 240.491 152.579 239.633 153.654C237.869 155.863 235.602 157.529 233.567 159.442C231.538 161.349 229.445 163.187 227.368 165.042C227.052 165.325 226.801 165.694 226.348 165.821C225.978 165.925 226.043 166.443 225.668 166.594C224.597 167.024 223.931 168.024 222.985 168.586C222.191 169.057 221.558 169.676 220.837 170.209C220.474 170.478 220.002 170.564 219.653 170.914C219.364 171.202 219.119 171.539 218.621 171.656C218.203 171.754 217.914 172.306 217.497 172.51C215.371 173.547 213.574 175.169 211.316 175.965C210.679 176.606 209.828 176.877 209.063 177.303C207.945 177.925 206.786 178.458 205.652 179.043C205.103 179.327 204.591 179.765 203.991 179.849C203.337 179.941 202.847 180.343 202.302 180.589C201.215 181.081 200.03 181.296 198.98 181.868C198.587 182.081 198.115 182.153 197.738 182.386C196.979 182.853 196.078 182.791 195.275 183.155C194.166 183.658 192.975 184.052 191.779 184.271C189.991 184.598 188.253 185.139 186.445 185.387C185.106 185.57 183.803 186.003 182.469 186.247C182.107 186.313 181.767 186.47 181.354 186.444C180.455 186.386 179.773 187.085 178.944 187.315C178.905 187.325 178.844 187.383 178.849 187.399C178.994 187.806 178.472 187.692 178.433 187.928C178.358 188.375 177.961 188.536 177.682 188.788C177.442 189.006 177.49 189.485 176.969 189.472C176.66 189.465 176.753 190.049 176.505 190.086C176.179 190.136 176.167 190.318 176.014 190.529C175.37 191.419 174.454 192.051 173.643 192.782C173.151 192.669 172.908 193.07 172.687 193.346C172.408 193.695 171.935 193.539 171.686 193.861C171.278 194.387 170.498 194.361 170.113 194.923C169.384 194.821 169.177 195.822 168.444 195.715C167.798 196.575 166.65 196.6 165.864 197.276C165.429 197.649 164.744 197.745 164.159 197.925C163.017 198.276 161.988 198.883 160.889 199.332C160.658 199.427 160.517 199.732 160.286 199.838C160.041 199.951 160.346 200.399 159.901 200.35C159.571 200.315 159.857 200.691 159.644 200.823C159.442 200.948 159.26 201.128 159.126 201.378C158.832 201.921 158.474 202.44 158.073 202.91C157.691 203.359 157.154 203.668 156.952 204.282C156.883 204.49 156.626 204.56 156.369 204.448C156.604 204.933 156.366 205.322 156.17 205.694C156.123 205.783 155.861 205.759 155.607 205.803C155.571 206.763 154.651 207.269 154.316 208.115C154.084 208.702 153.502 209.06 153.337 209.687C153.322 209.744 153.109 209.75 152.933 209.792C152.916 210.426 152.507 210.933 152.17 211.483C151.809 212.072 151.4 212.606 150.849 213.007C150.811 213.403 150.827 213.748 150.498 214.088C149.955 214.647 149.784 215.487 149.189 216.034C149.302 216.545 148.585 216.144 148.575 216.612C148.568 216.918 148.384 217.238 148.225 217.52C148.059 217.813 147.599 217.891 147.578 218.295C147.559 218.662 147.02 218.757 147.15 219.18C146.398 219.763 146.028 220.622 145.515 221.384C144.708 222.583 143.765 223.69 143.085 224.979C142.97 225.199 142.723 225.353 142.529 225.528C142.182 225.842 141.78 226.112 141.797 226.63C141.578 226.63 141.449 226.629 141.319 226.629C141.32 227.235 140.989 227.649 140.558 228.032C139.926 228.593 139.181 229.066 139.056 230.037C139.03 230.239 138.692 230.394 138.514 230.586C138.055 231.083 137.347 231.368 137.196 232.128C136.522 232.064 136.461 232.711 136.195 233.06C135.346 234.176 134.576 235.366 133.433 236.206C133.099 236.452 133.177 236.821 132.93 237.07C132.692 237.308 132.208 237.368 132.163 237.551C132.06 237.963 131.739 238.103 131.496 238.322C131.229 238.564 131.346 238.959 130.993 239.189C130.481 239.522 130.062 239.999 129.601 240.411C128.7 241.217 128.093 242.287 127.116 243.039C126.173 243.764 125.358 244.655 124.43 245.402C124.13 245.643 124.358 246.353 123.628 246.202C123.18 246.109 123.421 246.911 122.931 246.899C122.661 247.819 121.675 247.89 121.092 248.44C120.45 249.048 119.768 249.614 119.133 250.227C118.844 250.507 118.4 250.38 118.125 250.735C117.934 250.983 117.718 251.303 117.301 251.312C116.98 251.319 117.239 251.814 116.928 251.839C116.713 251.857 116.528 251.846 116.334 252.012C115.406 252.806 114.349 253.36 113.211 253.82C112.737 254.011 112.224 254.246 111.798 254.644C111.393 255.022 110.808 255.225 110.277 255.446C108.05 256.37 105.8 257.242 103.477 257.894C102.609 258.138 101.689 258.151 100.826 258.488C100.415 258.649 99.9267 258.514 99.5047 258.296C99.499 258.399 99.4945 258.487 99.4893 258.589C98.8581 258.717 98.2088 258.79 97.5752 258.89C96.8292 259.009 96.0496 259.078 95.2646 259.024C94.3674 258.961 93.4718 258.808 92.5446 259.013C92.0466 259.123 91.4817 258.806 90.9202 258.757C89.7421 258.653 88.5692 258.488 87.398 258.278C86.2728 258.075 85.172 257.761 84.1091 257.437C82.0832 256.819 80.0319 256.16 78.2127 255.029C77.6551 254.683 76.9823 254.507 76.5299 253.998C76.0996 253.513 75.4656 253.36 74.9691 253.012C74.3887 252.606 73.8995 252.055 73.3503 251.585C72.739 251.064 71.9837 250.713 71.4894 250.026C71.0265 249.385 70.4417 248.831 69.9044 248.244C68.6111 246.829 67.9219 245.089 67.2056 243.352C66.7065 242.143 66.3477 240.882 65.7868 239.693C65.4546 238.989 65.5235 238.162 65.2853 237.404C64.7199 235.605 64.5845 233.729 64.4029 231.86C64.3433 231.249 64.5599 230.593 64.1825 230.015C64.142 229.953 64.1556 229.849 64.1592 229.765C64.1765 229.368 64.1529 228.961 64.2316 228.576C64.3138 228.176 64.4563 227.801 64.0878 227.472C64.4789 227.146 64.0923 226.781 64.1349 226.435C64.1823 226.041 64.208 225.64 64.1977 225.244C64.1219 222.259 64.3095 219.283 64.4822 216.307C64.5362 215.369 64.7202 214.439 64.7976 213.502C64.8812 212.489 64.8107 211.455 64.9836 210.461C65.2567 208.89 65.2882 207.291 65.599 205.735C65.8724 204.367 66.1058 202.986 66.3032 201.615C66.4932 200.302 66.7709 199.003 66.9704 197.693C67.153 196.496 67.3248 195.283 67.653 194.101C67.8329 193.453 67.8385 192.748 67.9341 192.071C68.0782 191.048 68.1928 190.004 68.3593 188.992C68.7182 186.817 68.7412 184.63 68.8149 182.45C68.9116 179.606 68.6559 176.772 68.2624 173.948C67.9019 171.365 67.2249 168.851 66.7461 166.299C66.0475 162.574 64.8295 158.995 63.9664 155.321C63.5155 153.4 62.8506 151.529 62.6125 149.553C62.5667 149.171 62.3696 148.778 62.2907 148.37C62.2627 148.224 62.2185 148.026 62.1463 147.909C61.778 147.309 62.3522 146.501 61.6966 145.984C61.6855 145.355 61.5169 144.742 61.463 144.129C61.4362 143.833 61.4539 143.595 61.348 143.271C61.1597 142.699 60.8639 142.102 60.9847 141.446C61.0148 141.282 61.0385 141.061 60.9558 140.943C60.3499 140.075 60.4675 139.031 60.2373 138.075C60.0133 137.146 59.8544 136.205 59.7682 135.24C59.6902 134.365 59.5344 133.497 59.5102 132.607C59.4742 131.255 59.1504 129.923 59.5115 128.549C59.646 128.036 59.539 127.45 59.6303 126.871C59.9857 124.609 60.4185 121.819 61.9067 119.282C62.1255 117.964 63.1774 116.951 63.2566 115.582C63.8221 114.868 63.9975 113.954 64.6038 113.229C65.53 112.123 66.3657 110.954 67.4448 109.968C68.3811 109.114 68.5779 108.948 69.5932 108.548C70.5831 108.159 71.5449 107.688 72.5147 107.248C74.0408 106.555 75.5731 105.883 77.3134 105.734C79.4465 105.551 80.7615 106.061 83.1611 106.556C84.1675 106.764 85.1589 107.092 86.1195 107.462C86.993 107.798 87.8082 108.283 88.6644 108.668C89.5969 109.089 90.5306 109.487 91.4215 110.013C91.878 110.283 92.1893 110.886 92.7766 110.841C93.3964 110.793 93.4772 111.649 94.0904 111.522C94.8546 112.646 96.2769 112.977 97.1117 114.039C97.37 114.368 97.8793 114.493 98.2617 114.731C99.3509 115.407 100.437 116.083 101.449 116.881C102.356 117.598 103.317 118.257 104.308 118.854C104.788 119.142 105.33 119.423 105.925 119.437C107.222 119.465 108.331 120.036 109.435 120.618C109.795 120.807 110.2 120.51 110.534 120.777C111.744 120.445 111.733 120.56 112.727 120.662C114.377 120.832 115.766 121.751 117.345 122.098C118.322 122.313 119.287 122.586 120.264 122.803C121.617 123.103 122.992 123.321 124.329 123.68C124.989 123.858 125.666 123.879 126.325 124.008C127.68 124.273 129.081 124.616 130.463 124.428C132.118 124.203 133.805 124.749 135.427 124.148C137.211 124.257 138.887 123.699 140.59 123.31C141.278 123.556 141.912 122.767 142.61 123.202C142.693 122.549 143.319 123.061 143.538 122.779C143.85 122.378 144.266 122.616 144.624 122.524C145.02 122.422 145.441 122.353 145.791 122.161C146.061 122.014 146.264 122.153 146.512 122.049Z" fill="#5B4DAF"/>
</svg>
