<svg width="71" height="70" viewBox="0 0 71 70" fill="none" xmlns="http://www.w3.org/2000/svg">
<path fill-rule="evenodd" clip-rule="evenodd" d="M63.7295 27.1257C63.3509 27.0081 63.0129 27.233 62.7897 26.9307C62.5565 26.6146 62.361 26.2924 62.3668 25.8628C62.3854 24.5092 62.39 23.1552 62.3618 21.802C62.3556 21.4856 62.4749 21.2511 62.5975 20.9918C62.9297 20.2898 63.2842 19.6014 63.79 19.0049C64.0261 18.7262 64.299 18.4963 64.6507 18.3604C64.8379 18.2884 64.9986 18.5224 65.2413 18.2999C65.4352 18.1227 65.67 18.6234 65.9608 18.6036C66.1381 19.0505 65.7703 19.2568 65.53 19.5347C65.8374 19.6755 66.16 19.6643 66.4483 19.8366C66.7308 20.0056 66.9524 20.1593 66.8857 20.4994C66.8037 20.9198 67.1454 21.0759 67.3376 21.3269C67.2535 21.4392 67.0593 21.5121 67.1226 21.6848C67.6367 23.0918 67.2622 24.0557 66.812 25.2088C66.6873 25.5294 66.503 25.9101 66.4848 26.1851C66.4404 26.8619 65.9803 27.3494 65.8697 27.979C65.7881 28.4446 65.4849 28.7275 64.951 28.6997C64.8507 28.6943 64.7658 28.9255 64.4995 28.872C64.427 28.7946 64.1959 28.6595 64.2013 28.5336C64.2178 28.1169 64.1623 27.7905 63.7374 27.595C63.6814 27.5694 63.7295 27.3179 63.7295 27.1257Z" fill="white"/>
<path fill-rule="evenodd" clip-rule="evenodd" d="M41.2648 60.9572C41.7279 61.0744 42.3069 60.724 42.6826 61.272C42.526 61.5843 42.3728 61.8899 42.2278 62.1791C42.4275 62.3833 42.5505 62.2884 42.7381 62.2155C43.4327 61.9434 43.5963 62.0328 43.8411 62.7266C43.8767 62.8273 43.8593 62.9772 43.972 63C44.764 63.157 44.5825 63.9514 44.9118 64.4087C44.5726 64.8096 45.1409 65.2118 44.9545 65.5357C44.7441 65.9019 44.8116 66.4122 44.3788 66.6557C44.2508 66.7278 44.3158 66.8566 44.2988 66.9614C44.1505 67.8747 43.7583 68.5971 42.8118 68.9082C42.6867 68.9496 42.6292 69.1521 42.3628 69.0734C42.2431 68.8282 42.0948 68.5246 41.9461 68.2206C41.7088 68.1452 41.288 68.361 41.3514 67.7927H40.0586C39.9779 67.1776 40.0665 66.5269 39.5724 66.0638C39.5334 66.0274 39.5297 65.9052 39.5599 65.8505C39.8528 65.3228 39.6606 64.6986 39.8814 64.1776C39.9932 63.9137 40.0731 63.7203 39.9137 63.478C39.5289 62.8931 39.9174 62.4408 40.2198 62.0254C40.5035 61.6348 40.8978 61.3241 41.2648 60.9572Z" fill="white"/>
<path fill-rule="evenodd" clip-rule="evenodd" d="M52.3778 31.9821C52.2154 32.347 51.8762 32.2534 51.5212 32.3342C51.5941 32.8063 51.358 33.315 51.7366 33.7665C51.3817 33.7789 51.3817 33.7789 51.194 33.6385C50.9401 33.7863 50.8556 34.0585 50.6696 34.3256C50.7276 33.5043 50.3938 32.9124 49.8081 32.5218C49.5422 32.4696 49.5024 32.6688 49.3715 32.7194C48.9275 31.9005 48.9163 31.4917 49.2692 29.342C49.4527 28.2278 50.028 27.3095 50.842 26.3833C51.0872 26.3299 51.4885 27.0382 51.8601 26.3622C52.22 27.0013 51.5581 27.3538 51.5221 27.9693C51.8812 27.8074 52.2295 27.6773 52.5932 27.8057C52.7841 27.9705 52.5364 28.241 52.7452 28.4183C53.0749 28.6983 53.3682 29.0036 52.9159 29.4244C53.4046 29.7864 52.7953 30.1024 52.8695 30.4682C52.9407 30.8211 52.8848 31.2001 52.8848 31.5791C52.5286 31.5087 52.4627 31.0887 52.0792 31.1558C51.7499 31.5874 52.3298 31.6574 52.3778 31.9821Z" fill="white"/>
<path fill-rule="evenodd" clip-rule="evenodd" d="M10.935 55.4894C10.7917 55.2185 10.4247 55.3784 10.187 55.2757V54.7708C10.1596 54.7401 10.1257 54.6846 10.1116 54.6892C9.48947 54.8971 9.16515 54.2456 8.62089 54.1781C8.10023 54.1134 7.80201 53.7212 7.6997 53.2022C7.65911 52.9934 7.75065 52.8414 7.93621 52.7416C7.04444 51.9944 7.60278 51.2513 7.89148 50.4933C8.26177 49.522 9.0239 49.4069 9.88503 49.4541C10.0577 49.9387 9.96083 50.3405 9.63319 50.642C10.3108 51.0844 10.5121 50.4242 10.9412 50.3011C11.0808 50.5675 11.2055 50.8052 11.3161 51.0156C11.3103 51.265 10.9458 51.3528 11.1222 51.6315C11.4267 51.9948 11.5319 51.4091 11.8488 51.5048C12.275 51.8884 12.2249 52.4736 12.2141 53.0026C12.3893 53.0481 12.4912 53.075 12.649 53.116C12.5918 53.3977 12.1983 53.4789 12.2099 53.7813C12.2087 54.1097 12.5575 53.8604 12.6581 54.1035C12.1217 54.5459 11.7568 55.2094 10.935 55.4894Z" fill="white"/>
<path fill-rule="evenodd" clip-rule="evenodd" d="M37.1676 39.7423H38.0934C38.2831 39.932 38.2338 40.4406 37.9795 40.9745C38.5138 41.4111 38.7217 40.7769 39.015 40.6411C39.36 40.6249 39.3799 40.924 39.5323 40.9604C39.6297 41.2893 39.2341 41.3589 39.3617 41.699C39.5986 41.839 40.1093 41.7072 40.212 42.1115C40.2853 42.4006 40.3553 42.7792 39.9913 43.0368C40.1404 43.089 40.2708 43.1346 40.4017 43.1801C40.3723 43.5007 39.9407 43.741 40.1979 44.1568C39.7121 44.8046 38.8882 45.066 38.2558 45.5821C38.141 45.6757 37.8991 46.0009 37.579 45.7855C37.4497 45.6119 37.7479 45.6123 37.721 45.4562C37.4037 45.2565 37.0065 45.4976 36.6648 45.3211C36.5588 45.0697 36.7249 44.7011 36.3214 44.5462C35.8434 44.7756 35.3617 44.8676 34.9409 44.2082C35.4918 43.8474 36.2332 43.7244 36.3562 42.8989C35.8973 42.8856 35.6132 43.2928 35.1762 43.3549C35.0855 43.2729 34.9778 43.176 34.8316 43.0443C34.8001 43.0215 34.8564 42.9925 34.8987 42.9117C35.1542 42.4259 35.9503 42.4917 36.0066 41.8149C36.5107 41.6157 36.4722 41.054 36.5637 40.7028C36.6694 40.2965 36.8831 40.067 37.1676 39.7423Z" fill="white"/>
<path fill-rule="evenodd" clip-rule="evenodd" d="M18.0444 65.5381C18.1736 65.2378 18.4338 65.1702 18.2221 64.8219C18.0804 64.672 17.747 64.9159 17.4533 64.7544C17.4372 64.6765 17.4165 64.5738 17.3887 64.4359C17.3556 64.3816 17.2914 64.3555 17.2516 64.4143C17.1286 64.5978 16.9488 64.5929 16.7596 64.5891C16.2066 64.5788 16.0881 64.4193 16.0426 63.8552C16.0227 63.6066 16.2236 63.4956 16.2435 63.255C16.0591 63.2417 15.8815 63.2289 15.6387 63.2115C15.4598 62.3756 15.9477 61.6396 16.1047 60.8684C16.1846 60.4769 16.7881 60.2872 17.2736 60.2914C17.4504 60.3717 17.3949 60.544 17.4202 60.6124C17.5018 60.7714 17.5304 60.7416 17.6128 60.6712C17.8634 60.4566 18.1649 60.4036 18.3662 60.6989C18.5729 61.0021 18.8666 60.9562 19.1416 61.0046C19.2986 61.1662 19.1814 61.3637 19.2228 61.5377C19.3607 61.7295 19.5666 61.6114 19.7729 61.674C20.1974 61.9594 19.9945 62.5836 20.3511 62.9414C19.1632 64.8236 18.8786 65.1566 18.0444 65.5381Z" fill="white"/>
<path fill-rule="evenodd" clip-rule="evenodd" d="M31.0561 17.1386C30.9447 16.538 30.5429 16.3346 29.937 16.4916C29.3956 15.4648 29.5886 14.3954 29.7108 13.3578C29.7365 13.1374 29.8649 12.8682 29.8276 12.6342C29.7543 12.1732 30.033 11.8025 30.1068 11.3816C30.1639 11.0557 30.6568 10.9828 30.9633 10.8125C31.3746 11.1758 31.3746 11.1758 31.4873 11.7006C31.6207 11.7093 31.764 11.7184 31.6621 11.7117C32.2387 11.732 31.9984 12.1156 32.2428 12.2245C32.382 12.2867 32.5999 12.4267 32.5448 12.6466C32.4549 13.0061 32.9863 13.2534 32.7602 13.557C32.5307 13.8648 32.6653 14.2197 32.5319 14.4807C32.1902 15.15 32.0825 15.8794 31.8907 16.5828C31.7652 17.0433 31.5267 17.1717 31.0561 17.1386Z" fill="white"/>
<path fill-rule="evenodd" clip-rule="evenodd" d="M54.8961 49.9923C54.7309 49.8499 54.6174 49.6846 54.3477 49.6626C53.6622 49.6067 53.6643 49.5802 53.5007 48.8235C52.9987 48.6557 52.5277 48.8202 52.1069 49.0161C51.8932 48.8003 52.041 48.6015 51.9528 48.4138C52.109 48.36 52.2399 48.3148 52.4022 48.2589V46.9629C52.1773 47.0345 51.9669 47.1016 51.6505 47.2019C51.5291 47.2114 51.4955 46.9533 51.3212 46.8999C51.5726 46.2455 52.0966 45.8425 52.5522 45.3831C53.108 45.5053 53.7107 44.8844 54.2102 45.538C54.1895 45.577 54.1572 46.3238 54.2019 46.4754C54.0926 46.4882 53.9882 46.5027 53.8834 46.5126C53.8101 46.5197 53.7364 46.5209 53.6626 46.5251C53.48 46.6932 53.6221 46.9944 53.3686 47.1613C53.9364 46.9629 54.4302 46.7206 54.8013 46.2803C54.9583 46.4658 55.1132 46.6174 55.4015 46.5408C54.9069 46.9413 55.5705 47.4471 54.9852 47.817C55.4284 47.8356 55.4744 47.5457 55.6504 47.4844C55.8152 47.4272 56 47.4272 56.1636 47.404C56.3649 47.8203 56.6428 48.1815 56.4225 48.7207C56.1358 48.9697 55.452 48.9138 55.3402 49.6216C55.8517 49.5222 56.1889 49.2335 56.4411 48.98C56.7609 49.0388 56.7315 49.195 56.7211 49.3416C56.1495 49.301 56.2046 50.013 55.7225 50.153C55.3356 50.2653 55.0125 50.5987 54.5287 50.9235C54.5772 50.4881 54.7421 50.2409 54.8961 49.9923Z" fill="white"/>
<path fill-rule="evenodd" clip-rule="evenodd" d="M44.5254 16.1258C44.3929 16.2587 44.2599 16.3913 44.1265 16.5246C44.5188 16.7814 43.7256 17.2362 44.2843 17.4657C43.4182 18.4913 43.4071 18.5174 43.3602 19.5881H42.3082C42.2216 19.5446 42.3032 19.3611 42.2224 19.2447C41.1691 19.1221 40.9446 18.8773 40.9102 17.8207C40.9011 17.5374 40.9943 17.2251 40.6961 17.0184C40.9156 16.7131 40.7926 16.3213 41.0221 15.9845C41.4628 15.3388 42.0178 14.8119 42.5476 14.2598C42.7659 14.1533 42.9651 14.2196 43.1473 14.2399C43.2459 14.6595 42.6747 14.92 43.0732 15.3686C43.202 15.1814 43.3234 15.0041 43.4501 14.8194C43.8473 15.2982 44.5213 15.4361 44.5254 16.1258Z" fill="white"/>
<path fill-rule="evenodd" clip-rule="evenodd" d="M61.47 0.536391C61.3138 0.801479 60.9531 0.490828 60.7932 0.79071C61.1117 0.956391 61.4509 0.837929 61.8196 0.885562C61.9559 1.35609 62.2296 1.78811 62.4102 2.28142C62.7921 3.32645 62.5415 4.22734 62.1555 5.16716C62.0022 5.54118 61.7744 5.68284 61.3358 5.5913C61.2281 5.36018 61.0989 5.08266 60.9506 4.76456C60.7004 4.67178 60.3082 4.77325 60.1139 4.3226C60.1375 3.57249 60.1698 2.73746 59.626 2.02751C59.7896 1.72888 59.9379 1.45923 60.0944 1.17426C59.9693 1.12911 59.8393 1.08189 59.6425 1.01065C59.7486 0.646568 59.8774 0.299053 60.2021 0H61.1581C61.2907 0.15574 61.5247 0.261775 61.47 0.536391Z" fill="white"/>
<path fill-rule="evenodd" clip-rule="evenodd" d="M28.7703 28.2628C28.6142 28.5121 28.3723 28.4239 28.1776 28.4376C27.6379 27.9538 27.9846 27.1863 27.5807 26.6627C28.2509 25.3522 28.2509 25.3522 29.3937 24.8241C29.624 24.8812 29.7565 25.0403 29.8402 25.2507C29.9044 25.4988 29.4736 25.5543 29.6182 25.8397C29.8328 26.087 29.9931 25.9283 30.1513 25.7556C30.8012 26.0108 30.6405 26.8516 31.2063 27.195C31.1425 27.6597 31.2837 28.1422 31.1329 28.6144L30.1939 29.78C30.0461 29.7862 29.8982 29.7928 29.7528 29.7995C29.6219 29.5721 29.349 28.8418 29.3896 28.7631C29.1965 28.607 28.9961 28.445 28.7703 28.2628Z" fill="white"/>
<path fill-rule="evenodd" clip-rule="evenodd" d="M16.4159 28.6685C16.1906 28.7633 16.4035 29.0781 16.2287 29.093C15.9027 29.1639 15.7785 28.9895 15.6877 28.8466C15.4976 28.5467 15.7387 28.1404 15.5801 27.884C15.3796 27.5592 15.3025 27.3505 15.5432 27.0125C15.7432 26.7321 15.6322 26.3506 15.7992 25.9944C16.1985 25.1403 16.1761 25.072 17.1047 25.0794C17.1312 25.1059 17.1793 25.1312 17.1809 25.1594C17.188 25.3085 17.1843 25.4584 17.1843 25.6382C17.4862 25.8121 17.9485 25.6813 18.1162 26.199C18.2425 26.5888 18.648 26.863 18.5557 27.3729C18.4857 27.7618 18.5822 28.1478 18.2057 28.4846C18.018 28.6527 17.8341 28.9771 17.8486 29.342C17.8586 29.6054 17.6366 29.7674 17.3334 29.803C17.053 29.8357 16.8989 29.6692 16.7887 29.4927C16.6305 29.238 16.536 28.9431 16.4159 28.6685Z" fill="white"/>
<path fill-rule="evenodd" clip-rule="evenodd" d="M23.605 36.5725C23.926 36.5725 24.225 36.5725 24.5249 36.5725C24.7639 36.7249 24.5593 36.9937 24.6831 37.1768C24.8409 37.3255 25.0385 37.2091 25.2183 37.2555C25.4771 37.7795 25.8106 38.2852 25.9796 38.8415C26.1631 39.4429 25.8893 40.0381 25.6892 40.6039C25.2315 40.7924 25.019 40.4407 24.7606 40.1893C24.4611 40.1889 24.1629 40.1889 23.8568 40.1889C23.7031 39.7573 23.489 39.3994 22.9393 39.515C22.6821 39.2122 23.0338 38.7371 22.6216 38.5039C22.8254 38.2206 23.0172 37.9385 23.0677 37.574C23.1174 37.2182 23.3026 36.9154 23.605 36.5725Z" fill="white"/>
<path fill-rule="evenodd" clip-rule="evenodd" d="M0.0428384 40.0606C0.453312 39.5089 1.05515 39.3308 1.70627 39.2745C2.14698 39.8117 1.39603 39.9169 1.33597 40.2632C1.81893 40.7205 2.21698 39.9534 2.67384 40.2433C2.94266 40.4906 2.57899 40.5929 2.52142 40.7706C2.68296 40.9847 2.95674 40.7627 3.11911 40.8986C3.30426 41.3666 2.99444 41.8881 3.38461 42.3375C3.0168 42.6701 3.08763 43.3121 2.55787 43.5764C2.06663 43.489 1.76509 43.1216 1.3981 42.8341C1.07337 42.5802 0.548992 42.6299 0.278105 42.0041C0.44917 41.4482 -0.16302 40.8136 0.0428384 40.0606Z" fill="white"/>
<path fill-rule="evenodd" clip-rule="evenodd" d="M68.0794 38.2008C67.6992 37.9767 67.3239 37.9142 67.0771 37.4888C67.2365 37.3923 67.42 37.2813 67.6035 37.1702C67.0936 37.0128 66.6782 37.4913 66.2288 37.1516C66.4757 36.7171 67.0096 36.7221 67.3409 36.4288C67.3765 36.1666 67.2196 36.1666 67.0203 36.1033C66.6927 35.9993 66.6293 36.5117 66.3154 36.3369C66.194 36.2259 66.1393 36.0407 66.2739 35.9633C67.0009 35.5441 67.5957 34.9601 68.2339 34.432C68.6129 34.1188 68.7368 34.0339 69.3357 33.9237C69.2902 34.1553 69.0677 34.2394 68.9393 34.415C69.24 34.743 69.4919 34.4647 69.7594 34.3483C69.7984 34.8126 70.1741 35.1991 69.9922 35.8353C69.286 36.4193 68.9049 37.4494 68.0794 38.2008Z" fill="white"/>
</svg>
