<svg width="391" height="113" viewBox="0 0 391 113" fill="none" xmlns="http://www.w3.org/2000/svg">
<path d="M359.693 88.1717C353.474 88.1717 347.979 86.8512 343.208 84.2103C338.523 81.5694 334.86 77.8211 332.219 72.9652C329.663 68.1094 328.385 62.4017 328.385 55.8421C328.385 49.3676 329.663 43.6599 332.219 38.7189C334.86 33.7779 338.523 29.9443 343.208 27.2182C347.979 24.407 353.474 23.0013 359.693 23.0013C366.082 23.0013 371.619 24.4496 376.305 27.346C380.99 30.2425 384.611 34.1612 387.166 39.1022C389.722 43.9581 391 49.4528 391 55.5865C391 56.694 390.957 57.7588 390.872 58.7811C390.787 59.8034 390.702 60.6127 390.617 61.209H342.953V47.9194H376.305L374.132 53.4142C374.132 48.7287 372.94 44.8952 370.554 41.9135C368.254 38.9319 364.676 37.441 359.82 37.441C355.476 37.441 351.983 38.7615 349.342 41.4024C346.786 44.0433 345.509 47.536 345.509 51.8807V58.9089C345.509 63.5943 346.829 67.2575 349.47 69.8984C352.196 72.4541 355.944 73.732 360.715 73.732C364.719 73.732 367.871 72.9227 370.171 71.304C372.556 69.6854 374.558 67.6835 376.177 65.2982L388.828 72.3263C386.102 77.3525 382.268 81.2713 377.327 84.0825C372.386 86.8086 366.508 88.1717 359.693 88.1717Z" fill="#F3F1FC"/>
<path d="M287.835 112.579C284.512 112.579 281.105 112.067 277.612 111.045C274.204 110.108 271.052 108.447 268.156 106.062C265.259 103.761 262.831 100.695 260.872 96.861L259.85 94.6887L273.267 87.7883C275.397 91.1107 277.527 93.496 279.656 94.9443C281.871 96.3925 284.683 97.1166 288.09 97.1166C292.009 97.1166 295.204 95.8388 297.674 93.2831C300.145 90.8125 301.38 87.0642 301.38 82.038V65.1704H302.658V40.2523H301.38L306.108 24.5348H320.036V78.0766C320.036 85.403 318.759 91.6644 316.203 96.861C313.647 102.058 309.941 105.976 305.086 108.617C300.315 111.258 294.565 112.579 287.835 112.579ZM285.407 83.6992C279.784 83.6992 274.801 82.4213 270.456 79.8656C266.196 77.3099 262.789 73.732 260.233 69.1317C257.763 64.5314 256.527 59.2923 256.527 53.4142C256.527 47.4509 257.72 42.2117 260.105 37.6966C262.576 33.0964 265.983 29.5184 270.328 26.9627C274.673 24.3218 279.614 23.0013 285.151 23.0013C290.348 23.0013 294.905 24.2792 298.824 26.8349C302.743 29.3906 305.81 32.926 308.025 37.441C310.24 41.9561 311.347 47.2805 311.347 53.4142C311.347 59.7182 310.282 65.1278 308.152 69.6428C306.023 74.1579 302.998 77.6507 299.08 80.1212C295.246 82.5065 290.689 83.6992 285.407 83.6992ZM288.985 67.3427C292.903 67.3427 296.098 66.0223 298.569 63.3814C301.124 60.7405 302.402 57.4181 302.402 53.4142C302.402 49.2398 301.124 45.8323 298.569 43.1914C296.098 40.5505 292.903 39.23 288.985 39.23C285.066 39.23 281.829 40.5505 279.273 43.1914C276.803 45.8323 275.567 49.2398 275.567 53.4142C275.567 57.4181 276.803 60.7405 279.273 63.3814C281.829 66.0223 285.066 67.3427 288.985 67.3427Z" fill="#F3F1FC"/>
<path d="M213.658 88.555C208.036 88.555 203.052 87.1919 198.708 84.4658C194.363 81.6546 190.955 77.7784 188.485 72.8374C186.1 67.8112 184.907 62.1035 184.907 55.7142C184.907 49.325 186.142 43.6599 188.613 38.7188C191.083 33.7778 194.491 29.9443 198.835 27.2182C203.18 24.4069 208.164 23.0013 213.786 23.0013C219.324 23.0013 224.094 24.2791 228.098 26.8348C232.187 29.3053 235.339 32.9685 237.554 37.8243C239.854 42.6802 241.004 48.6435 241.004 55.7142C241.004 62.4442 239.854 68.2797 237.554 73.2208C235.254 78.0766 232.06 81.8675 227.97 84.5936C223.881 87.2345 219.111 88.555 213.658 88.555ZM217.236 71.0484C221.07 71.0484 224.222 69.6428 226.693 66.8315C229.248 63.9351 230.526 60.2293 230.526 55.7142C230.526 51.2844 229.248 47.6638 226.693 44.8525C224.222 41.9561 221.07 40.5078 217.236 40.5078C213.403 40.5078 210.208 41.9561 207.653 44.8525C205.182 47.6638 203.947 51.2844 203.947 55.7142C203.947 60.2293 205.182 63.9351 207.653 66.8315C210.208 69.6428 213.403 71.0484 217.236 71.0484ZM234.36 87.0215L229.632 71.0484H230.782V41.9135H229.632V0H248.288V87.0215H234.36Z" fill="#F3F1FC"/>
<path d="M148.593 88.1717C142.374 88.1717 136.879 86.8512 132.109 84.2103C127.423 81.5694 123.76 77.8211 121.119 72.9652C118.564 68.1094 117.286 62.4017 117.286 55.8421C117.286 49.3676 118.564 43.6599 121.119 38.7189C123.76 33.7779 127.423 29.9443 132.109 27.2182C136.879 24.407 142.374 23.0013 148.593 23.0013C154.982 23.0013 160.52 24.4496 165.205 27.346C169.891 30.2425 173.511 34.1612 176.067 39.1022C178.622 43.9581 179.9 49.4528 179.9 55.5865C179.9 56.694 179.858 57.7588 179.773 58.7811C179.687 59.8034 179.602 60.6127 179.517 61.209H131.853V47.9194H165.205L163.033 53.4142C163.033 48.7287 161.84 44.8952 159.455 41.9135C157.155 38.9319 153.577 37.441 148.721 37.441C144.376 37.441 140.883 38.7615 138.242 41.4024C135.687 44.0433 134.409 47.536 134.409 51.8807V58.9089C134.409 63.5943 135.729 67.2575 138.37 69.8984C141.096 72.4541 144.845 73.732 149.615 73.732C153.619 73.732 156.771 72.9227 159.071 71.304C161.457 69.6854 163.459 67.6835 165.077 65.2982L177.728 72.3263C175.002 77.3525 171.168 81.2713 166.227 84.0825C161.286 86.8086 155.408 88.1717 148.593 88.1717Z" fill="#F3F1FC"/>
<path d="M85.604 88.555C79.2148 88.555 73.5923 87.1494 68.7364 84.3381C63.9658 81.5268 60.26 77.6507 57.6191 72.7097C54.9783 67.7687 53.6578 62.1035 53.6578 55.7143C53.6578 49.325 54.9783 43.7025 57.6191 38.8467C60.26 33.9057 63.9658 30.0295 68.7364 27.2182C73.5923 24.407 79.2148 23.0013 85.604 23.0013C92.5896 23.0013 98.6381 24.7051 103.749 28.1127C108.861 31.5203 112.524 36.1206 114.739 41.9135L97.8714 49.4528C96.6787 46.8119 95.1027 44.7674 93.1433 43.3192C91.184 41.7857 88.7135 41.019 85.7318 41.019C81.9835 41.019 78.8314 42.3395 76.2757 44.9804C73.72 47.536 72.4422 51.114 72.4422 55.7143C72.4422 60.3145 73.72 63.9351 76.2757 66.576C78.8314 69.1317 81.9835 70.4096 85.7318 70.4096C88.7135 70.4096 91.184 69.6854 93.1433 68.2372C95.1027 66.789 96.6787 64.7444 97.8714 62.1035L114.739 69.5151C112.524 75.308 108.818 79.9508 103.622 83.4436C98.4251 86.8512 92.4192 88.555 85.604 88.555Z" fill="#F3F1FC"/>
<path d="M0 49.114H39V64.114H0V49.114Z" fill="url(#paint0_linear_4_227)"/>
<path d="M11 26.114H51V41.114H11V26.114Z" fill="url(#paint1_linear_4_227)"/>
<path d="M11 72.114H51V87.114H11V72.114Z" fill="url(#paint2_linear_4_227)"/>
<defs>
<linearGradient id="paint0_linear_4_227" x1="36.974" y1="41.8559" x2="22.664" y2="103.644" gradientUnits="userSpaceOnUse">
<stop stop-color="#5B4DAF"/>
<stop offset="1" stop-color="#4D9EAF"/>
</linearGradient>
<linearGradient id="paint1_linear_4_227" x1="48.9221" y1="18.8559" x2="34.9347" y2="80.8001" gradientUnits="userSpaceOnUse">
<stop stop-color="#5B4DAF"/>
<stop offset="1" stop-color="#4D9EAF"/>
</linearGradient>
<linearGradient id="paint2_linear_4_227" x1="48.9221" y1="64.8559" x2="34.9347" y2="126.8" gradientUnits="userSpaceOnUse">
<stop stop-color="#5B4DAF"/>
<stop offset="1" stop-color="#4D9EAF"/>
</linearGradient>
</defs>
</svg>
