<svg width="364" height="223" viewBox="0 0 364 223" fill="none" xmlns="http://www.w3.org/2000/svg">
<path d="M64.553 49.945C62.075 49.945 59.744 49.462 57.56 48.496C55.418 47.53 53.465 45.871 51.701 43.519L56.93 38.479C58.358 39.949 59.723 40.999 61.025 41.629C62.327 42.259 63.755 42.574 65.309 42.574C66.233 42.574 66.968 42.385 67.514 42.007C68.102 41.587 68.396 41.083 68.396 40.495C68.396 39.991 68.228 39.571 67.892 39.235C67.556 38.899 66.926 38.563 66.002 38.227C65.078 37.891 63.734 37.492 61.97 37.03C58.736 36.232 56.321 35.077 54.725 33.565C53.171 32.011 52.394 29.953 52.394 27.391C52.394 25.543 52.877 23.863 53.843 22.351C54.809 20.797 56.195 19.558 58.001 18.634C59.807 17.71 61.949 17.248 64.427 17.248C67.367 17.248 69.866 17.815 71.924 18.949C73.982 20.041 75.683 21.385 77.027 22.981L71.357 27.832C70.433 26.992 69.32 26.278 68.018 25.69C66.716 25.102 65.246 24.808 63.608 24.808C62.726 24.808 61.97 24.976 61.34 25.312C60.71 25.648 60.395 26.152 60.395 26.824C60.395 27.454 60.773 27.979 61.529 28.399C62.285 28.819 63.797 29.302 66.065 29.848C69.887 30.772 72.617 32.011 74.255 33.565C75.935 35.119 76.775 37.198 76.775 39.802C76.775 41.818 76.25 43.603 75.2 45.157C74.15 46.669 72.701 47.845 70.853 48.685C69.005 49.525 66.905 49.945 64.553 49.945ZM91.5337 49.756C89.2657 49.756 87.4177 49.42 85.9897 48.748C84.6037 48.076 83.5117 47.152 82.7137 45.976C81.9577 44.758 81.4327 43.393 81.1387 41.881C80.8867 40.327 80.7607 38.689 80.7607 36.967V18.193H89.9587V36.463C89.9587 38.185 90.3157 39.34 91.0297 39.928C91.7437 40.474 92.6257 40.747 93.6757 40.747C94.5997 40.747 95.5027 40.6 96.3847 40.306C97.2667 39.97 98.1277 39.508 98.9677 38.92C99.8077 38.29 100.564 37.534 101.236 36.652L102.811 41.314H100.228V18.193H109.489V49H102.622L100.732 42.889L103.882 43.141C102.874 44.317 101.698 45.43 100.354 46.48C99.0517 47.488 97.6657 48.286 96.1957 48.874C94.7257 49.462 93.1717 49.756 91.5337 49.756ZM115.708 49V18.193H122.512L124.402 24.304L121.252 24.052C122.302 22.834 123.499 21.721 124.843 20.713C126.187 19.705 127.657 18.907 129.253 18.319C130.849 17.731 132.508 17.437 134.23 17.437C136.288 17.437 137.926 17.794 139.144 18.508C140.404 19.18 141.349 20.125 141.979 21.343C142.651 22.561 143.092 23.947 143.302 25.501C143.554 27.013 143.68 28.588 143.68 30.226V49H134.482V30.73C134.482 28.966 134.167 27.811 133.537 27.265C132.907 26.677 132.13 26.383 131.206 26.383C129.904 26.383 128.623 26.782 127.363 27.58C126.103 28.336 124.969 29.323 123.961 30.541L122.323 25.879H124.906V49H115.708ZM153.256 49V30.73C153.256 28.966 152.941 27.811 152.311 27.265C151.723 26.677 150.967 26.383 150.043 26.383C148.699 26.383 147.397 26.782 146.137 27.58C144.877 28.336 143.743 29.323 142.735 30.541L140.026 24.052C141.118 22.834 142.336 21.721 143.68 20.713C145.024 19.705 146.473 18.907 148.027 18.319C149.623 17.731 151.282 17.437 153.004 17.437C155.062 17.437 156.721 17.794 157.981 18.508C159.241 19.18 160.186 20.125 160.816 21.343C161.446 22.561 161.887 23.947 162.139 25.501C162.391 27.013 162.517 28.588 162.517 30.226V49H153.256ZM168.303 49V18.193H175.107L176.997 24.304L173.847 24.052C174.897 22.834 176.094 21.721 177.438 20.713C178.782 19.705 180.252 18.907 181.848 18.319C183.444 17.731 185.103 17.437 186.825 17.437C188.883 17.437 190.521 17.794 191.739 18.508C192.999 19.18 193.944 20.125 194.574 21.343C195.246 22.561 195.687 23.947 195.897 25.501C196.149 27.013 196.275 28.588 196.275 30.226V49H187.077V30.73C187.077 28.966 186.762 27.811 186.132 27.265C185.502 26.677 184.725 26.383 183.801 26.383C182.499 26.383 181.218 26.782 179.958 27.58C178.698 28.336 177.564 29.323 176.556 30.541L174.918 25.879H177.501V49H168.303ZM205.851 49V30.73C205.851 28.966 205.536 27.811 204.906 27.265C204.318 26.677 203.562 26.383 202.638 26.383C201.294 26.383 199.992 26.782 198.732 27.58C197.472 28.336 196.338 29.323 195.33 30.541L192.621 24.052C193.713 22.834 194.931 21.721 196.275 20.713C197.619 19.705 199.068 18.907 200.622 18.319C202.218 17.731 203.877 17.437 205.599 17.437C207.657 17.437 209.316 17.794 210.576 18.508C211.836 19.18 212.781 20.125 213.411 21.343C214.041 22.561 214.482 23.947 214.734 25.501C214.986 27.013 215.112 28.588 215.112 30.226V49H205.851ZM230.162 49.819C227.936 49.819 225.962 49.399 224.24 48.559C222.56 47.677 221.258 46.459 220.334 44.905C219.41 43.351 218.948 41.545 218.948 39.487C218.948 37.303 219.452 35.455 220.46 33.943C221.468 32.389 222.812 31.192 224.492 30.352C226.214 29.512 228.125 29.092 230.225 29.092C233.291 29.092 235.769 29.785 237.659 31.171C239.549 32.557 240.809 34.552 241.439 37.156L237.47 36.463V29.281C237.47 28.147 237.071 27.16 236.273 26.32C235.475 25.48 234.194 25.06 232.43 25.06C231.296 25.06 229.994 25.207 228.524 25.501C227.054 25.753 225.542 26.257 223.988 27.013L221.279 20.461C223.127 19.537 225.101 18.802 227.201 18.256C229.343 17.71 231.527 17.437 233.753 17.437C236.609 17.437 239.003 17.941 240.935 18.949C242.867 19.957 244.295 21.385 245.219 23.233C246.185 25.081 246.668 27.223 246.668 29.659V49H239.171L237.344 43.015L241.439 41.755C240.767 44.275 239.486 46.249 237.596 47.677C235.706 49.105 233.228 49.819 230.162 49.819ZM232.997 43.267C234.383 43.267 235.475 42.91 236.273 42.196C237.113 41.482 237.533 40.579 237.533 39.487C237.533 38.311 237.113 37.387 236.273 36.715C235.475 36.043 234.383 35.707 232.997 35.707C231.611 35.707 230.519 36.043 229.721 36.715C228.923 37.387 228.524 38.311 228.524 39.487C228.524 40.579 228.923 41.482 229.721 42.196C230.519 42.91 231.611 43.267 232.997 43.267ZM259.256 18.193L261.65 26.698V49H252.452V18.193H259.256ZM259.634 31.801L258.059 31.108V23.989L258.626 23.233C259.13 22.519 259.844 21.7 260.768 20.776C261.734 19.852 262.847 19.075 264.107 18.445C265.409 17.773 266.732 17.437 268.076 17.437C268.748 17.437 269.357 17.479 269.903 17.563C270.449 17.647 270.89 17.794 271.226 18.004V26.383H269.147C266.459 26.383 264.338 26.824 262.784 27.706C261.272 28.546 260.222 29.911 259.634 31.801ZM284.909 46.669L272.561 18.193H281.885L293.603 45.283L284.909 46.669ZM278.294 60.97L296.879 18.193H306.203L287.681 60.97H278.294ZM67.01 116.6C65.372 116.6 63.692 116.348 61.97 115.844C60.29 115.382 58.736 114.563 57.308 113.387C55.88 112.253 54.683 110.741 53.717 108.851L53.213 107.78L59.828 104.378C60.878 106.016 61.928 107.192 62.978 107.906C64.07 108.62 65.456 108.977 67.136 108.977C69.068 108.977 70.643 108.347 71.861 107.087C73.079 105.869 73.688 104.021 73.688 101.543V93.227H74.318V80.942H73.688L76.019 73.193H82.886V99.59C82.886 103.202 82.256 106.289 80.996 108.851C79.736 111.413 77.909 113.345 75.515 114.647C73.163 115.949 70.328 116.6 67.01 116.6ZM65.813 102.362C63.041 102.362 60.584 101.732 58.442 100.472C56.342 99.212 54.662 97.448 53.402 95.18C52.184 92.912 51.575 90.329 51.575 87.431C51.575 84.491 52.163 81.908 53.339 79.682C54.557 77.414 56.237 75.65 58.379 74.39C60.521 73.088 62.957 72.437 65.687 72.437C68.249 72.437 70.496 73.067 72.428 74.327C74.36 75.587 75.872 77.33 76.964 79.556C78.056 81.782 78.602 84.407 78.602 87.431C78.602 90.539 78.077 93.206 77.027 95.432C75.977 97.658 74.486 99.38 72.554 100.598C70.664 101.774 68.417 102.362 65.813 102.362ZM67.577 94.298C69.509 94.298 71.084 93.647 72.302 92.345C73.562 91.043 74.192 89.405 74.192 87.431C74.192 85.373 73.562 83.693 72.302 82.391C71.084 81.089 69.509 80.438 67.577 80.438C65.645 80.438 64.049 81.089 62.789 82.391C61.571 83.693 60.962 85.373 60.962 87.431C60.962 89.405 61.571 91.043 62.789 92.345C64.049 93.647 65.645 94.298 67.577 94.298ZM102.437 104.567C99.3712 104.567 96.6622 103.916 94.3102 102.614C92.0002 101.312 90.1942 99.464 88.8922 97.07C87.6322 94.676 87.0022 91.862 87.0022 88.628C87.0022 85.436 87.6322 82.622 88.8922 80.186C90.1942 77.75 92.0002 75.86 94.3102 74.516C96.6622 73.13 99.3712 72.437 102.437 72.437C105.587 72.437 108.317 73.151 110.627 74.579C112.937 76.007 114.722 77.939 115.982 80.375C117.242 82.769 117.872 85.478 117.872 88.502C117.872 89.048 117.851 89.573 117.809 90.077C117.767 90.581 117.725 90.98 117.683 91.274H94.1842V84.722H110.627L109.556 87.431C109.556 85.121 108.968 83.231 107.792 81.761C106.658 80.291 104.894 79.556 102.5 79.556C100.358 79.556 98.6362 80.207 97.3342 81.509C96.0742 82.811 95.4442 84.533 95.4442 86.675V90.14C95.4442 92.45 96.0952 94.256 97.3972 95.558C98.7412 96.818 100.589 97.448 102.941 97.448C104.915 97.448 106.469 97.049 107.603 96.251C108.779 95.453 109.766 94.466 110.564 93.29L116.801 96.755C115.457 99.233 113.567 101.165 111.131 102.551C108.695 103.895 105.797 104.567 102.437 104.567ZM141.13 72.437C143.188 72.437 144.868 72.794 146.17 73.508C147.472 74.18 148.459 75.125 149.131 76.343C149.845 77.561 150.307 78.947 150.517 80.501C150.769 82.013 150.895 83.588 150.895 85.226V104H141.697V85.73C141.697 83.966 141.382 82.811 140.752 82.265C140.122 81.677 139.282 81.383 138.232 81.383C137.35 81.383 136.426 81.572 135.46 81.95C134.536 82.286 133.633 82.769 132.751 83.399C131.869 84.029 131.092 84.743 130.42 85.541L128.782 80.879H131.365V104H122.167V73.193H128.971L130.861 79.304L127.711 79.052C128.803 77.834 130.042 76.721 131.428 75.713C132.814 74.705 134.326 73.907 135.964 73.319C137.602 72.731 139.324 72.437 141.13 72.437ZM169.975 104.567C166.909 104.567 164.2 103.916 161.848 102.614C159.538 101.312 157.732 99.464 156.43 97.07C155.17 94.676 154.54 91.862 154.54 88.628C154.54 85.436 155.17 82.622 156.43 80.186C157.732 77.75 159.538 75.86 161.848 74.516C164.2 73.13 166.909 72.437 169.975 72.437C173.125 72.437 175.855 73.151 178.165 74.579C180.475 76.007 182.26 77.939 183.52 80.375C184.78 82.769 185.41 85.478 185.41 88.502C185.41 89.048 185.389 89.573 185.347 90.077C185.305 90.581 185.263 90.98 185.221 91.274H161.722V84.722H178.165L177.094 87.431C177.094 85.121 176.506 83.231 175.33 81.761C174.196 80.291 172.432 79.556 170.038 79.556C167.896 79.556 166.174 80.207 164.872 81.509C163.612 82.811 162.982 84.533 162.982 86.675V90.14C162.982 92.45 163.633 94.256 164.935 95.558C166.279 96.818 168.127 97.448 170.479 97.448C172.453 97.448 174.007 97.049 175.141 96.251C176.317 95.453 177.304 94.466 178.102 93.29L184.339 96.755C182.995 99.233 181.105 101.165 178.669 102.551C176.233 103.895 173.335 104.567 169.975 104.567ZM196.509 73.193L198.903 81.698V104H189.705V73.193H196.509ZM196.887 86.801L195.312 86.108V78.989L195.879 78.233C196.383 77.519 197.097 76.7 198.021 75.776C198.987 74.852 200.1 74.075 201.36 73.445C202.662 72.773 203.985 72.437 205.329 72.437C206.001 72.437 206.61 72.479 207.156 72.563C207.702 72.647 208.143 72.794 208.479 73.004V81.383H206.4C203.712 81.383 201.591 81.824 200.037 82.706C198.525 83.546 197.475 84.911 196.887 86.801ZM220.372 104.819C218.146 104.819 216.172 104.399 214.45 103.559C212.77 102.677 211.468 101.459 210.544 99.905C209.62 98.351 209.158 96.545 209.158 94.487C209.158 92.303 209.662 90.455 210.67 88.943C211.678 87.389 213.022 86.192 214.702 85.352C216.424 84.512 218.335 84.092 220.435 84.092C223.501 84.092 225.979 84.785 227.869 86.171C229.759 87.557 231.019 89.552 231.649 92.156L227.68 91.463V84.281C227.68 83.147 227.281 82.16 226.483 81.32C225.685 80.48 224.404 80.06 222.64 80.06C221.506 80.06 220.204 80.207 218.734 80.501C217.264 80.753 215.752 81.257 214.198 82.013L211.489 75.461C213.337 74.537 215.311 73.802 217.411 73.256C219.553 72.71 221.737 72.437 223.963 72.437C226.819 72.437 229.213 72.941 231.145 73.949C233.077 74.957 234.505 76.385 235.429 78.233C236.395 80.081 236.878 82.223 236.878 84.659V104H229.381L227.554 98.015L231.649 96.755C230.977 99.275 229.696 101.249 227.806 102.677C225.916 104.105 223.438 104.819 220.372 104.819ZM223.207 98.267C224.593 98.267 225.685 97.91 226.483 97.196C227.323 96.482 227.743 95.579 227.743 94.487C227.743 93.311 227.323 92.387 226.483 91.715C225.685 91.043 224.593 90.707 223.207 90.707C221.821 90.707 220.729 91.043 219.931 91.715C219.133 92.387 218.734 93.311 218.734 94.487C218.734 95.579 219.133 96.482 219.931 97.196C220.729 97.91 221.821 98.267 223.207 98.267ZM256.09 104.504C252.688 104.504 250 103.664 248.026 101.984C246.094 100.304 245.128 97.553 245.128 93.731V73.571L245.002 73.193L246.892 65.759H254.326V91.715C254.326 93.143 254.662 94.172 255.334 94.802C256.006 95.39 256.888 95.684 257.98 95.684C258.61 95.684 259.198 95.642 259.744 95.558C260.332 95.432 260.815 95.306 261.193 95.18V103.811C260.479 104.021 259.702 104.189 258.862 104.315C258.064 104.441 257.14 104.504 256.09 104.504ZM240.34 81.635V73.193H261.193V81.635H240.34ZM280.952 104.756C277.76 104.756 274.946 104.084 272.51 102.74C270.074 101.354 268.184 99.443 266.84 97.007C265.496 94.571 264.824 91.778 264.824 88.628C264.824 85.436 265.496 82.622 266.84 80.186C268.184 77.75 270.074 75.86 272.51 74.516C274.946 73.13 277.76 72.437 280.952 72.437C284.186 72.437 287.021 73.13 289.457 74.516C291.893 75.86 293.783 77.75 295.127 80.186C296.513 82.622 297.206 85.436 297.206 88.628C297.206 91.778 296.513 94.571 295.127 97.007C293.783 99.443 291.893 101.354 289.457 102.74C287.021 104.084 284.186 104.756 280.952 104.756ZM280.952 95.81C283.01 95.81 284.669 95.159 285.929 93.857C287.231 92.513 287.882 90.77 287.882 88.628C287.882 86.444 287.231 84.68 285.929 83.336C284.669 81.992 283.01 81.32 280.952 81.32C278.978 81.32 277.34 81.992 276.038 83.336C274.778 84.638 274.148 86.381 274.148 88.565C274.148 90.749 274.778 92.513 276.038 93.857C277.34 95.159 278.978 95.81 280.952 95.81ZM308.145 73.193L310.539 81.698V104H301.341V73.193H308.145ZM308.523 86.801L306.948 86.108V78.989L307.515 78.233C308.019 77.519 308.733 76.7 309.657 75.776C310.623 74.852 311.736 74.075 312.996 73.445C314.298 72.773 315.621 72.437 316.965 72.437C317.637 72.437 318.246 72.479 318.792 72.563C319.338 72.647 319.779 72.794 320.115 73.004V81.383H318.036C315.348 81.383 313.227 81.824 311.673 82.706C310.161 83.546 309.111 84.911 308.523 86.801Z" fill="#F3F1FC"/>
<path fill-rule="evenodd" clip-rule="evenodd" d="M25.833 27.2923C25.8106 27.2912 25.7881 27.2901 25.7658 27.2891C25.6761 27.6456 25.6125 28.0116 25.4891 28.3559C25.366 28.6991 25.2571 29.0406 25.1832 29.4202C25.3619 29.3371 25.4731 29.2473 25.5103 29.0815C25.5666 28.8295 25.6961 28.5947 25.6864 28.327C25.839 28.1836 25.6986 27.9876 25.7841 27.8149C25.8565 27.6684 25.8208 27.4685 25.833 27.2923ZM33.5458 46.1752C33.4851 46.0194 33.4356 45.9464 33.4311 45.8706C33.4173 45.6429 33.4098 45.4197 33.3603 45.1911C33.3106 44.9619 33.2524 44.7331 33.2097 44.5047C33.1457 44.1623 32.9817 43.8335 33.0289 43.4711C33.0299 43.4643 32.9956 43.453 32.9682 43.4389C32.8989 43.8175 33.0251 44.1719 33.0644 44.5335C33.0904 44.7734 33.1238 45.0111 33.1846 45.2457C33.2004 45.3071 33.1536 45.3846 33.13 45.4756C33.1541 45.4986 33.2097 45.5379 33.2441 45.591C33.2565 45.6102 33.1941 45.6768 33.2064 45.697C33.2398 45.7515 33.3157 45.7856 33.3347 45.8415C33.35 45.8863 33.3066 45.9512 33.2822 46.0306C33.3312 46.0576 33.4003 46.0954 33.5458 46.1752ZM11.4338 49.8471C11.4995 50.0731 11.5325 50.293 11.6273 50.4822C11.7248 50.6772 11.7957 50.8961 11.9757 51.0157C11.9346 51.1087 11.9066 51.1715 11.8491 51.3012C12.0496 51.1527 12.1756 51.1657 12.2849 51.3076C12.3319 51.3689 12.4273 51.4161 12.4365 51.4791C12.4642 51.6688 12.5782 51.5657 12.6934 51.5785C12.4205 51.3023 12.2945 50.9675 12.1355 50.6581C11.9772 50.3497 11.7379 50.1148 11.5329 49.8487C11.5233 49.8362 11.4833 49.8471 11.4338 49.8471ZM24.5416 35.5052C24.5895 35.3214 24.5054 35.1158 24.6378 34.9521C24.6088 34.6189 24.8335 34.3276 24.796 33.9929C24.9261 33.8694 24.8275 33.691 24.8935 33.5606C25.0305 33.2893 24.9925 32.9781 25.1087 32.7034C25.1205 32.6758 25.0739 32.6235 25.0546 32.5826C25.0212 32.6096 24.9763 32.6299 24.9563 32.6645C24.8029 32.9307 24.7367 33.2304 24.6319 33.5155C24.5385 33.7689 24.4391 34.0275 24.4115 34.2875C24.3688 34.687 24.4003 35.0944 24.4003 35.5052H24.5416ZM34.6942 24.0787C34.6942 23.8954 34.6603 23.7032 34.7037 23.5307C34.7475 23.3571 34.5132 23.2032 34.6935 23.0403C34.535 22.9013 34.645 22.7185 34.6157 22.5584C34.5864 22.3985 34.5569 22.2383 34.537 22.0768C34.5059 21.8245 34.5296 21.5535 34.4419 21.3241C34.3714 21.1403 34.4341 20.9574 34.3686 20.8012C34.2893 20.6115 34.3008 20.4265 34.2995 20.2368C34.2988 20.1211 34.2577 20.0189 34.2298 19.9107C34.195 19.776 34.1253 19.6673 34.0699 19.5477C34.2793 19.4524 33.9128 19.2586 34.1352 19.1657C34.1104 19.1113 34.0922 19.0523 34.0588 19.0039C34.0259 18.956 33.9479 18.9226 34.0423 18.8628C34.0108 18.8157 33.9794 18.7688 33.9502 18.7251C33.8467 18.7915 33.7524 18.8519 33.6454 18.9204C33.7394 18.9947 33.8107 19.0843 33.902 19.1152C34.0389 19.1614 33.9366 19.1919 33.911 19.2315C34.0439 19.3139 33.9244 19.4161 33.9369 19.5057C33.9489 19.5922 33.9208 19.6763 33.9402 19.7579C33.9723 19.8933 33.9335 20.0726 34.144 20.1134C34.088 20.1398 34.036 20.1645 33.9801 20.1909C34.1288 20.301 34.0471 20.412 33.9913 20.5298C34.0683 20.5414 34.1408 20.5524 34.2356 20.5666C34.211 20.6533 34.1876 20.7221 34.1725 20.7928C34.1633 20.8362 34.149 20.8921 34.1673 20.9259C34.2907 21.1554 34.3766 21.4281 34.3773 21.6306C34.3778 21.7493 34.3387 21.8867 34.385 21.9829C34.4998 22.2214 34.4701 22.4502 34.4151 22.6882C34.4091 22.7139 34.4114 22.7597 34.4265 22.7693C34.5492 22.8455 34.5369 22.9644 34.5361 23.082C34.5348 23.3061 34.5325 23.5304 34.5379 23.7544C34.5395 23.8183 34.6004 23.9056 34.5756 23.941C34.4875 24.0667 34.6521 24.0436 34.6942 24.0787ZM14.0811 25.0649C14.0631 25.0669 14.0451 25.0691 14.0271 25.0712C14.0271 25.1728 14.0373 25.2758 14.0242 25.3759C14.0109 25.4781 13.9749 25.5774 13.9351 25.7312C14.0103 25.6661 14.0374 25.6425 14.0916 25.5957C14.1305 25.8162 14.1557 26.0233 14.2048 26.2247C14.2841 26.5486 14.3689 26.8707 14.4245 27.2002C14.4535 27.3727 14.5326 27.537 14.5076 27.7183C14.6768 27.8446 14.5338 28.0517 14.6464 28.2177C14.7415 28.3575 14.7042 28.5831 14.7424 28.7672C14.7835 28.9658 14.8468 29.16 14.819 29.3671C14.9507 29.4801 14.837 29.6662 14.9083 29.761C15.023 29.9139 14.9445 30.0642 14.9783 30.2098C14.9919 30.2689 15.0173 30.3252 15.0346 30.3837C15.0693 30.5011 15.1272 30.6184 15.1306 30.737C15.1384 31.0039 15.2564 31.2425 15.3014 31.4995C15.3197 31.6041 15.4196 31.6946 15.5112 31.8364C15.5228 31.739 15.5421 31.6959 15.5292 31.6667C15.4044 31.3819 15.3505 31.0696 15.3104 30.7743C15.2444 30.2898 15.031 29.8323 15.0565 29.3344C14.9035 29.1735 15.0069 28.9507 14.9108 28.7615C14.8247 28.5921 14.8865 28.3498 14.807 28.1742C14.7329 28.0109 14.7729 27.849 14.7219 27.6954C14.5194 27.0861 14.4242 26.4506 14.2652 25.8305C14.2002 25.5763 14.1424 25.3201 14.0811 25.0649ZM24.2679 21.5436C24.0686 21.5573 24.0657 21.6788 24.0831 21.8137C24.1015 21.9562 24.094 22.2551 24.0413 22.3631C24.0085 22.4305 23.9934 22.469 24.0452 22.5296C24.1907 22.7009 23.9722 22.6583 23.9255 22.7255C23.9795 22.7509 24.0323 22.7756 24.0992 22.8069C24.0237 22.9903 23.9316 23.1614 23.9019 23.3651C23.8822 23.5024 23.9837 23.6149 23.9244 23.7402C23.9154 23.7591 23.8957 23.7727 23.8829 23.7868C23.853 23.7624 23.8266 23.7408 23.7899 23.7107C23.6932 23.8883 23.8926 23.8472 23.9088 23.8828V24.2503C23.8501 24.2702 23.8098 24.2837 23.7717 24.2967C23.8376 24.3807 23.8912 24.4491 23.9551 24.5308C23.8758 24.5931 23.8143 24.6414 23.7627 24.6818C23.8852 24.8641 23.8624 25.0366 23.8137 25.2121C23.8061 25.2387 23.7981 25.2895 23.8058 25.2927C23.9903 25.3709 23.8822 25.5707 23.9696 25.7199C24.1749 25.4338 24.0346 25.1352 24.1026 24.8124C24.1243 24.7971 24.1859 24.7532 24.2408 24.7142C24.1481 24.499 24.128 24.4887 24.1827 24.3755C24.2442 24.2479 24.1198 24.1557 24.1592 24.0356C24.2013 23.9066 24.2196 23.7691 24.2386 23.6339C24.2425 23.6054 24.1995 23.5725 24.1869 23.5384C24.1747 23.505 24.1603 23.4632 24.1701 23.4326C24.211 23.305 24.2609 23.1803 24.3074 23.0546C24.1641 22.9151 24.2994 22.7856 24.3176 22.6506C24.3232 22.608 24.2852 22.5603 24.2698 22.514C24.2583 22.4791 24.2339 22.4186 24.245 22.4107C24.3674 22.3235 24.2688 22.1632 24.3334 22.0924C24.4504 21.964 24.3194 21.8482 24.3472 21.7634C24.4608 21.4146 24.3613 21.0641 24.4009 20.7182C24.4129 20.6129 24.4321 20.5086 24.4492 20.3952C24.4202 20.3966 24.3676 20.3839 24.3518 20.4024C24.2669 20.5012 24.3887 20.6669 24.2451 20.7565C24.2396 20.7599 24.292 20.8384 24.2996 20.8848C24.3067 20.9277 24.3068 20.9959 24.2811 21.0161C24.077 21.1764 24.1701 21.3527 24.2679 21.5436ZM31.606 51.0707C31.9331 50.7452 32.226 50.4662 32.4233 50.1001C32.6984 49.5895 32.8566 49.0514 32.8751 48.471C32.878 48.3794 32.9525 48.2667 32.9192 48.2025C32.8552 48.0784 32.8539 47.9923 32.9503 47.8965C32.9623 47.8845 32.9594 47.8329 32.9462 47.8235C32.8233 47.735 32.8664 47.6044 32.8774 47.4976C32.9098 47.1858 32.7829 46.8998 32.7623 46.5967C32.7224 46.7041 32.6723 46.8127 32.6788 46.9178C32.6849 47.0181 32.6396 47.1006 32.6363 47.1927C32.6324 47.3111 32.6389 47.4297 32.6344 47.5478C32.6305 47.6496 32.6395 47.7601 32.6023 47.8499C32.5646 47.9414 32.6087 48.0269 32.5667 48.1249C32.4939 48.2952 32.6042 48.4949 32.4982 48.6895C32.4078 48.8557 32.5601 49.1134 32.3226 49.2469C32.3882 49.2993 32.4129 49.3677 32.3976 49.4491C32.3734 49.5772 32.002 50.1564 31.8714 50.2487C31.7734 50.3181 31.7851 50.4915 31.6266 50.4971C31.6198 50.5996 31.6114 50.7018 31.6066 50.8043C31.6035 50.869 31.606 50.9341 31.606 51.0707ZM10.2416 34.8224C10.2345 34.9515 10.2062 35.035 10.2306 35.0981C10.318 35.3251 10.4215 35.5461 10.5228 35.7676C10.5484 35.8234 10.5979 35.8685 10.6204 35.925C10.679 36.0721 10.6686 36.2519 10.8026 36.3621C10.9261 36.4637 10.7586 36.7236 11.018 36.7419C11.09 37.0936 11.3143 37.3885 11.4024 37.7274C11.4573 37.9385 11.6226 38.0914 11.6476 38.2987C11.6896 38.6475 11.9899 38.9071 11.971 39.2741C11.9702 39.2917 12.0117 39.3081 12.0234 39.3303C12.1091 39.4924 12.2415 39.6495 12.263 39.8204C12.2891 40.0262 12.4826 40.1657 12.4457 40.3823C12.4447 40.388 12.4797 40.3997 12.4976 40.4086C12.536 40.3179 12.5732 40.2306 12.6131 40.1371C12.5491 40.1136 12.5035 40.0968 12.4534 40.0783C12.4457 39.9652 12.4507 39.8477 12.4264 39.7363C12.4019 39.6241 12.2866 39.4894 12.321 39.4159C12.3829 39.2838 12.2374 39.2285 12.2678 39.1082C12.2877 39.029 12.2014 38.8856 12.1216 38.8268C11.9856 38.7268 12.1509 38.5539 12.069 38.5328C11.8553 38.4781 12.023 38.3313 11.9696 38.2454C11.9115 38.1519 11.8591 38.0544 11.8109 37.9555C11.7575 37.846 11.7123 37.7327 11.6621 37.6218C11.6168 37.5219 11.5635 37.4252 11.5243 37.3231C11.4805 37.2093 11.4555 37.088 11.4091 36.9755C11.3673 36.8741 11.3078 36.7801 11.2555 36.6831C11.2032 36.5862 11.1479 36.4907 11.0978 36.3926C11.0425 36.2839 10.9881 36.1745 10.94 36.0626C10.8968 35.962 10.873 35.852 10.8219 35.756C10.7693 35.6577 10.6885 35.5748 10.6307 35.4789C10.5678 35.3744 10.5215 35.26 10.4602 35.1546C10.4039 35.0575 10.3371 34.9666 10.2416 34.8224ZM4.62845 41.6767C4.58127 41.4353 4.52088 41.2881 4.53307 41.1473C4.54861 40.9713 4.50084 40.8095 4.43697 40.6691C4.3339 40.4425 4.2796 40.2054 4.21007 39.9717C4.09799 39.5952 3.9971 39.2156 3.89142 38.8373C3.79865 38.5041 3.63475 38.1875 3.65406 37.8279C3.51789 37.6166 3.62183 37.3319 3.42397 37.1278C3.3508 37.0521 3.3762 36.8884 3.33222 36.7741C3.30841 36.7122 3.51775 36.6613 3.33904 36.6248C3.16382 36.5889 3.37229 36.5236 3.31828 36.4826C3.13014 36.3401 3.10198 36.1212 3.07018 35.9141C3.03041 35.6557 2.89714 35.4301 2.84459 35.172C2.80249 34.9665 2.77041 34.7399 2.65427 34.5413C2.5827 34.419 2.56209 34.2586 2.54859 34.1124C2.51084 33.7015 2.37104 33.3136 2.27421 32.9178C2.16824 32.4845 2.10277 32.0436 1.99113 31.6124C2.06836 31.5008 1.85322 31.3931 1.98663 31.2806C1.93538 31.1713 1.87296 31.0654 1.8358 30.9515C1.79718 30.8332 1.83188 30.7112 1.7847 30.5775C1.66188 30.2304 1.59975 29.8618 1.51656 29.5009C1.46082 29.2598 1.41886 29.015 1.35543 28.7759C1.28618 28.5159 1.15872 28.2652 1.12896 28.0023C1.07525 27.5279 0.952431 27.0658 0.89654 26.5966C0.844859 26.1646 0.757466 25.7294 0.79913 25.2856C0.822503 25.0372 0.80755 24.7848 0.801162 24.5343C0.79884 24.4361 0.784177 24.3408 0.754127 24.2399C0.70114 24.0614 0.708108 23.8507 0.742949 23.6635C0.802324 23.3448 0.830632 22.7212 0.758773 22.372C0.720738 22.4491 0.642781 22.531 0.651927 22.6015C0.692865 22.9163 0.575857 23.2111 0.560759 23.5189C0.515611 24.4474 0.660347 25.3688 0.645249 26.2953C0.644378 26.3472 0.634506 26.405 0.652653 26.4505C0.798259 26.814 0.800001 27.2059 0.87941 27.5823C0.895378 27.6577 0.883039 27.7316 0.95606 27.7899C1.04665 27.8622 0.806679 27.9337 0.940381 28.0044C1.13114 28.1051 0.963754 28.3319 1.11299 28.4548C1.14696 28.4828 1.08991 28.6189 1.07873 28.7057C1.07568 28.7302 1.07829 28.7636 1.09267 28.7807C1.20067 28.9083 1.20183 28.9073 1.12068 29.0596C1.17628 29.1367 1.32915 29.1842 1.19937 29.3176C1.31115 29.469 1.22158 29.7027 1.40798 29.8267C1.43033 29.8416 1.44296 29.9211 1.43353 29.927C1.32828 29.9913 1.40885 30.0399 1.4328 30.1047C1.46256 30.1854 1.44441 30.285 1.47838 30.3628C1.59452 30.6283 1.68932 30.8989 1.67016 31.1913C1.66261 31.3045 1.71066 31.3855 1.75377 31.4753C1.79704 31.5653 1.86149 31.647 1.83391 31.7594C1.80386 31.8813 1.93698 32.0054 1.83275 32.1287C1.9936 32.2971 1.94221 32.5353 2.02307 32.7223C2.2115 33.1581 2.15459 33.6551 2.38701 34.075C2.37917 34.33 2.49386 34.5612 2.53218 34.8027C2.56804 35.0298 2.69855 35.2394 2.6489 35.4894C2.62799 35.5943 2.69492 35.7315 2.75589 35.8339C2.82339 35.9468 2.73978 36.0782 2.85199 36.1961C2.93213 36.28 2.87464 36.5186 2.95564 36.5729C3.11969 36.6827 2.87638 36.8132 3.01197 36.8895C3.07672 37.2946 3.37098 37.6147 3.43122 38.0216C3.60732 38.1068 3.55215 38.2878 3.59962 38.4266C3.65116 38.5776 3.73783 38.7168 3.7355 38.8855C3.73463 38.9484 3.77005 39.0111 3.77165 39.0744C3.77383 39.1455 3.73579 39.2226 3.75249 39.2873C3.78297 39.4054 3.97707 39.4811 3.8393 39.6427C3.90521 39.7529 3.97837 39.8597 4.0347 39.9747C4.07738 40.0617 4.07607 40.1775 4.13371 40.2482C4.25434 40.3956 4.14576 40.5898 4.23881 40.719C4.35291 40.8778 4.21704 41.0557 4.33564 41.1913C4.48691 41.2843 4.45178 41.4909 4.62845 41.6767ZM10.0734 53.1298C9.97626 53.054 9.81149 53.1654 9.81933 52.9707C9.81991 52.955 9.67532 52.9501 9.61653 52.9121C9.42969 52.7916 9.23807 52.6865 9.02713 52.6123C8.95949 52.5883 8.90026 52.5239 8.85119 52.4661C8.63285 52.209 8.40726 51.9603 8.1024 51.8025C8.05972 51.7805 8.14856 51.5848 7.98742 51.718C7.96608 51.7357 7.88885 51.6727 7.83557 51.6684C7.6888 51.6565 7.56773 51.5955 7.47656 51.4856C7.43084 51.4307 7.40137 51.3589 7.37698 51.2904C7.31993 51.1291 7.28784 50.9565 7.21395 50.8037C6.98966 50.3405 6.8487 49.8463 6.66448 49.3684C6.59872 49.1976 6.55429 49.0184 6.49347 48.8454C6.43293 48.6728 6.34612 48.5076 6.30286 48.3312C6.23826 48.0674 6.13562 47.8209 6.03327 47.5712C5.93616 47.3343 5.87272 47.0837 5.79156 46.84C5.62578 46.3413 5.4825 45.8331 5.28129 45.3491C5.16965 45.081 5.1833 44.8062 5.12102 44.5385C5.11725 44.5223 5.13409 44.5014 5.14149 44.4829C4.92678 44.4994 4.99835 44.2982 4.96017 44.2083C4.80687 43.8499 4.69988 43.4725 4.55906 43.1078C4.51711 42.9992 4.52059 42.9979 4.60407 42.8368C4.55122 42.8085 4.4557 42.7844 4.45251 42.7514C4.41955 42.4149 4.18118 42.132 4.20456 41.7812C4.20717 41.7406 4.15752 41.6972 4.134 41.6538C4.10497 41.6001 4.05009 41.5429 4.0543 41.4912C4.08494 41.1223 3.85019 40.8331 3.76658 40.4991C3.7162 40.2983 3.70981 40.0856 3.58279 39.9005C3.53924 39.8368 3.58889 39.7089 3.60065 39.5482C3.42513 39.4131 3.32714 39.1695 3.33716 38.8825C3.33803 38.856 3.34776 38.8226 3.33571 38.8042C3.06424 38.3942 3.12129 37.8703 2.86985 37.4519C2.85069 37.4199 2.90557 37.3432 2.92937 37.2783C2.73064 37.1369 2.67039 36.9132 2.61914 36.6711C2.56093 36.3964 2.46759 36.1284 2.37772 35.8616C2.25593 35.5001 2.14095 35.1376 2.06822 34.7622C2.04499 34.6429 1.99215 34.5296 1.96079 34.4115C1.93408 34.3117 1.96587 34.1914 1.89155 34.1108C1.75726 33.9649 1.91753 33.7449 1.75363 33.6126C1.77614 33.3903 1.61369 33.2134 1.59961 33.0048C1.58509 32.7889 1.47505 32.5926 1.45952 32.3929C1.43426 32.0626 1.32015 31.7563 1.26339 31.4366C1.21258 31.1506 1.20547 30.8424 1.0542 30.5768C1.02996 30.0748 0.788393 29.6239 0.717985 29.1307C0.685177 28.9005 0.597639 28.6779 0.550313 28.4465C0.525634 28.3263 0.491954 28.2057 0.486873 28.0803C0.485276 28.0406 0.503713 27.9859 0.48397 27.9639C0.315281 27.774 0.319491 27.5456 0.326459 27.3152C0.198854 27.2315 0.269262 27.1005 0.247922 26.9912C0.226727 26.8823 0.174175 26.7753 0.173594 26.6675C0.170546 26.0569 0.0677647 25.4533 0.0801042 24.8393C0.0904114 24.3243 -0.0493883 23.8051 0.0188421 23.2898C0.0954923 22.7097 0.0802494 22.1123 0.323701 21.5575C0.438386 21.2962 0.551765 21.0443 0.723792 20.8101C0.886674 20.5886 1.07235 20.3954 1.26557 20.2066C1.47462 20.0022 1.72358 19.8707 2.02031 19.8309C2.14037 19.8148 2.25868 19.772 2.3725 19.7273C2.55977 19.6538 2.75473 19.6255 2.94868 19.5833C3.20476 19.5274 3.45605 19.5323 3.71039 19.5148C4.00858 19.4941 4.26988 19.6431 4.55471 19.6821C4.58998 19.6869 4.61321 19.7801 4.62468 19.8009C4.70438 19.7952 4.77914 19.7676 4.83126 19.7906C4.95436 19.845 5.06789 19.9217 5.18301 19.993C5.27795 20.0519 5.37986 20.1052 5.45999 20.1808C5.54855 20.2646 5.60458 20.3838 5.69561 20.4636C5.77661 20.5347 5.90698 20.5537 5.97825 20.6303C6.09468 20.7552 6.11646 20.9472 6.26221 21.0627C6.31636 21.1054 6.32696 21.2011 6.37936 21.2477C6.52555 21.3776 6.58667 21.5611 6.69525 21.7092C6.79426 21.8437 6.75405 22.0272 6.92129 22.1412C7.05252 22.2306 7.11204 22.4212 7.21337 22.5594C7.31862 22.7027 7.45682 22.8252 7.54378 22.978C7.75326 23.3468 8.07873 23.6367 8.24786 24.0318C8.26717 24.0766 8.29649 24.1421 8.33264 24.1509C8.59075 24.2135 8.62545 24.4889 8.80096 24.6272C8.78005 24.7518 8.8628 24.7429 8.94526 24.7458C8.97691 24.747 9.02496 24.7685 9.03585 24.7935C9.13224 25.0163 9.32807 25.1292 9.51099 25.2674C9.6489 25.3715 9.73571 25.5412 9.85345 25.6745C9.94941 25.7831 10.0462 25.8968 10.1632 25.9792C10.2743 26.0576 10.2654 26.2452 10.4351 26.2588C10.3989 26.4712 10.6471 26.4769 10.6978 26.618C10.7538 26.7733 10.9453 26.7845 10.9994 26.9632C11.0401 27.0967 11.2093 27.1914 11.3213 27.3033C11.4426 27.4247 11.5639 27.5461 11.6878 27.6699C11.7151 27.6455 11.7426 27.621 11.7698 27.5967C11.7684 27.6613 11.9439 27.6398 11.8474 27.7655C11.8227 27.7976 11.8538 27.9099 11.8943 27.9482C12.0464 28.092 12.1411 28.2991 12.3357 28.3909C12.4742 28.4563 12.4906 28.5855 12.5632 28.6861C12.6982 28.8732 12.8936 29.0169 13.0659 29.1766C13.0819 29.1916 13.1307 29.1865 13.1334 29.1978C13.2333 29.631 13.6967 29.7323 13.9143 30.0559C14.0183 30.2104 14.1155 30.3695 14.2182 30.5303C14.3029 30.4109 14.3857 30.4268 14.4692 30.5187C14.4809 30.4945 14.5033 30.4708 14.5004 30.4508C14.4773 30.2896 14.4969 30.0951 14.4115 29.9769C14.2928 29.8122 14.3861 29.6326 14.2939 29.4664C14.208 29.3116 14.2163 29.1039 14.1859 28.9189C14.1575 28.7455 14.1588 28.5621 14.1012 28.3994C13.956 27.9897 13.9622 27.5474 13.7985 27.1396C13.7207 26.9468 13.7405 26.7158 13.7089 26.5031C13.6906 26.3809 13.6868 26.2418 13.6235 26.1449C13.5512 26.0345 13.5958 25.902 13.5418 25.8233C13.4731 25.7233 13.4894 25.631 13.4704 25.533C13.421 25.2779 13.3718 25.0215 13.3001 24.7723C13.1768 24.3439 13.0349 23.9208 12.9977 23.4727L12.8734 23.1543C12.7226 22.9947 12.78 22.7744 12.7145 22.5873C12.6567 22.4227 12.5268 22.2508 12.6365 22.0538C12.6486 22.032 12.6496 21.9934 12.6384 21.9713C12.454 21.6048 12.279 21.0425 12.2486 20.7028C12.247 20.6848 12.2707 20.6538 12.265 20.6485C12.0641 20.469 12.1908 20.1825 12.0476 19.9854C12.0779 19.574 11.8523 19.1967 11.8867 18.784C11.8905 18.7385 11.8628 18.6898 11.8464 18.6434C11.7752 18.4411 11.7002 18.2404 11.7296 18.0183C11.7447 17.9029 11.7116 17.7993 11.6569 17.6923C11.607 17.595 11.6751 17.4771 11.6032 17.3571C11.5084 17.1986 11.5615 16.9949 11.5078 16.8063C11.4016 16.4337 11.3798 16.0369 11.3258 15.65C11.2799 15.3214 11.2059 14.9928 11.1253 14.6678C11.0745 14.463 11.0752 14.2453 11.0199 14.0376C10.9628 13.8228 10.9653 13.594 10.8689 13.3871C10.8537 13.3544 10.8608 13.3109 10.8599 13.2723C10.8564 13.0949 10.8521 12.9243 10.7902 12.7475C10.7342 12.5872 10.8242 12.3885 10.7014 12.2294C10.7014 11.8599 10.7031 11.4903 10.7008 11.1208C10.6989 10.8411 10.7329 10.5773 10.8283 10.3035C10.9154 10.0528 10.9488 9.77451 11.0134 9.50899C11.1095 9.11456 11.2159 8.72376 11.3808 8.35416C11.4482 8.20347 11.456 8.03711 11.5222 7.89832C11.7028 7.51928 11.9571 7.20368 12.3925 7.08217C12.5525 7.0376 12.7062 6.99579 12.8753 7.00349C13.1124 7.01423 13.3512 7.01888 13.5875 7.00305C13.8991 6.98215 14.1996 7.07143 14.4642 7.18423C15.1356 7.47036 15.7718 7.83125 16.1762 8.48235C16.3812 8.51269 16.3519 8.72405 16.4496 8.83816C16.5473 8.95241 16.6308 9.07885 16.7192 9.20094C16.7886 9.2969 16.7602 9.39445 16.7142 9.49767C16.8488 9.54543 16.9163 9.6485 16.9985 9.76174C17.1291 9.9416 17.0805 10.1671 17.2278 10.3478C17.3501 10.4982 17.3698 10.7338 17.4919 10.9066C17.3816 11.0771 17.6744 11.1506 17.5905 11.3148C17.7525 11.427 17.5831 11.6542 17.7046 11.7349C17.8361 11.8224 17.9036 11.9483 17.9784 12.0599C18.1055 12.2495 18.1045 12.512 18.2976 12.6733C18.2388 12.717 18.2154 12.7557 18.2837 12.8201C18.2943 12.8299 18.2112 12.9209 18.2982 12.9834C18.4574 13.0975 18.5537 13.2604 18.6073 13.4476C18.6575 13.6242 18.7736 13.7696 18.7942 13.9691C18.8067 14.0904 18.8064 14.2638 18.8951 14.3533C18.9956 14.4548 18.9952 14.5805 19.0541 14.688C19.1196 14.8073 19.1965 14.9229 19.1786 15.074C19.1742 15.1126 19.2168 15.1691 19.2533 15.1975C19.3248 15.2533 19.3356 15.3208 19.3343 15.4038C19.3327 15.5098 19.2838 15.6451 19.4697 15.6645C19.4853 15.6663 19.4773 15.7858 19.5005 15.8421C19.6123 16.113 19.7522 16.373 19.8081 16.6649C19.8126 16.6884 19.819 16.7177 19.8354 16.732C19.9999 16.8761 20.0156 17.0759 20.0729 17.2694C20.107 17.3844 20.0935 17.5504 20.2509 17.6344C20.3519 17.6884 20.2457 17.7609 20.2079 17.8192C20.4329 17.9205 20.2862 18.2201 20.4852 18.3409C20.5145 18.3588 20.5106 18.4331 20.5197 18.4817C20.5293 18.5309 20.5184 18.6054 20.547 18.6257C20.6436 18.6941 20.6273 18.7853 20.6462 18.8804C20.6624 18.9634 20.8173 19.0544 20.8002 19.1016C20.7567 19.2212 20.8576 19.2694 20.8706 19.3532C20.8864 19.4525 20.901 19.5519 20.9161 19.6512C20.9198 19.676 20.9142 19.7094 20.9282 19.7247C21.1268 19.9398 21.0972 20.271 21.3504 20.4713C21.242 20.5418 21.163 20.5932 21.0791 20.6477C21.0965 20.6718 21.1051 20.696 21.1213 20.7037C21.2094 20.7454 21.304 20.7756 21.3871 20.8249C21.4255 20.8476 21.4763 20.926 21.4654 20.9431C21.3395 21.1383 21.4996 21.1601 21.6319 21.2093V21.5553C21.7768 21.5681 21.8434 21.6659 21.7803 21.7607C21.682 21.9082 21.7713 22.0065 21.8585 22.042C21.9964 22.0984 22.0295 22.1781 22.0271 22.3071C22.0262 22.3539 22.0371 22.4238 22.0681 22.4447C22.2374 22.558 22.2384 22.7415 22.3019 22.9052C22.3399 23.0034 22.3013 23.1337 22.4251 23.2149C22.5129 23.2724 22.5594 23.3921 22.6256 23.4833C22.6995 23.5849 22.7679 23.6918 22.8515 23.7847C22.9251 23.8664 22.8863 23.9118 22.8364 23.9823C22.8187 24.0072 22.8863 24.0826 22.8929 24.1376C22.9034 24.2264 22.8958 24.3176 22.8958 24.4181C22.977 24.3868 23.0379 24.3635 23.1251 24.3301C23.0983 24.4427 22.9887 24.5246 23.1141 24.6095C23.1677 24.6458 23.2584 24.7 23.1412 24.775C23.169 24.791 23.2031 24.8261 23.2233 24.8195C23.3413 24.7805 23.4023 24.6641 23.3668 24.5446C23.3568 24.511 23.3118 24.4892 23.294 24.4561C23.2835 24.4372 23.2956 24.4061 23.2982 24.3733C23.3416 24.3577 23.3873 24.3411 23.4429 24.3211C23.4182 24.2817 23.3661 24.2212 23.3753 24.2097C23.4577 24.1067 23.3395 23.9702 23.3802 23.9236C23.4866 23.8018 23.4428 23.6754 23.4468 23.5523C23.4518 23.4116 23.4687 23.2814 23.5223 23.1469C23.5608 23.0508 23.5586 22.9373 23.5423 22.8175C23.5161 22.6234 23.4693 22.4041 23.6084 22.2187C23.5026 22.0823 23.6174 21.9459 23.6167 21.8092C23.6157 21.6209 23.5499 21.4261 23.6633 21.2375C23.7543 21.0859 23.612 20.8743 23.7668 20.7268C23.7393 20.4939 23.8341 20.2707 23.8365 20.047C23.8407 19.6232 23.9375 19.2131 24.021 18.8097C24.1165 18.3479 24.2527 17.8883 24.4394 17.4423C24.6925 16.838 24.9755 16.2528 25.3587 15.7277C25.6059 15.3893 25.7543 14.9545 26.1805 14.7632C26.2042 14.7526 26.2025 14.6942 26.2225 14.6646C26.391 14.4137 26.6361 14.2497 26.9067 14.1436C27.0002 14.107 27.0874 14.081 27.1741 14.0209C27.2716 13.9533 27.3796 13.8908 27.5165 13.8898C27.6378 13.8889 27.7581 13.84 27.8798 13.8167C28.0016 13.7934 28.1441 13.8717 28.2449 13.7386C28.2546 13.7258 28.2957 13.7388 28.322 13.7365C28.6277 13.7107 28.9338 13.6885 29.239 13.6555C29.3614 13.6423 29.482 13.5803 29.6021 13.5839C29.803 13.5902 30.002 13.6413 30.2032 13.6548C30.4002 13.668 30.6016 13.6371 30.7961 13.6634C31.0018 13.6911 31.2119 13.7399 31.4013 13.8225C31.604 13.9107 31.8419 13.911 32.0163 14.056C32.1812 14.1932 32.4091 14.2401 32.5501 14.3805C32.6928 14.5229 32.9658 14.5737 32.9554 14.8533C32.9545 14.8763 32.995 14.9096 33.0233 14.9233C33.3121 15.0616 33.3844 15.356 33.4995 15.6098C33.5645 15.7528 33.5845 15.9289 33.5782 16.0881C33.5723 16.2345 33.7397 16.151 33.7444 16.2536C33.7479 16.3307 33.7383 16.4133 33.763 16.4834C33.8332 16.6839 33.9 16.8831 33.9035 17.0985C33.9041 17.1347 33.91 17.1768 33.9293 17.2058C34.0951 17.4565 34.0773 17.7533 34.1398 18.0295C34.167 18.1503 34.2464 18.2949 34.2063 18.3869C34.1488 18.5189 34.2027 18.6189 34.2246 18.7217C34.2937 19.0482 34.2731 19.3925 34.435 19.703C34.4842 19.7971 34.4232 19.9538 34.4789 20.0381C34.5414 20.1328 34.4769 20.2168 34.5205 20.3144C34.5822 20.4521 34.6527 20.612 34.6206 20.7904C34.5944 20.9373 34.716 21.0685 34.7022 21.2323C34.6902 21.3766 34.7532 21.5257 34.7716 21.6742C34.79 21.8234 34.735 21.9843 34.8507 22.1177C34.8638 22.1328 34.8513 22.1691 34.8528 22.1953C34.8789 22.6595 34.8668 23.1298 34.9399 23.5865C35.0797 24.4599 34.9717 25.3345 35.0097 26.2074C35.0151 26.3323 35.0088 26.3324 35.1511 26.515C35.1614 26.3347 35.1697 26.1881 35.1806 26.001C35.2379 26.0277 35.3204 26.0463 35.3217 26.0697C35.3324 26.2539 35.3368 26.4396 35.3225 26.6232C35.3177 26.6862 35.2547 26.7447 35.2197 26.8029C35.1048 26.7543 35.2708 26.5171 35.0357 26.5751C35.1074 26.7116 35.0876 26.872 35.2267 26.9959C35.341 27.0972 35.1575 27.2739 35.2231 27.4208C35.225 27.4251 35.1999 27.4375 35.1974 27.4484C35.1608 27.6051 35.0535 27.7458 35.0275 27.8889C35.003 28.0245 35.1191 28.1845 35.1672 28.3356C35.1777 28.3683 35.1618 28.4091 35.1565 28.4612C35.1088 28.4361 35.0733 28.4174 35.0062 28.3819C35.0834 28.715 35.2096 29.0403 34.9219 29.329C35.1369 29.5651 34.9216 29.7972 34.8972 30.0337C34.8915 30.0868 34.7696 30.1279 34.6823 30.1874C34.7715 30.2011 34.844 30.2123 34.9184 30.2236C34.8427 30.4123 34.8311 30.5287 34.8507 30.7591C34.8548 30.8072 34.8423 30.8599 34.8249 30.9059C34.7735 31.0438 34.7616 31.1721 34.7703 31.3337C34.7744 31.4063 34.7461 31.4806 34.733 31.5542C34.7196 31.6281 34.7188 31.7067 34.6915 31.7746C34.6507 31.8762 34.8369 31.9833 34.6929 32.0628C34.5674 32.1319 34.6611 32.2661 34.5816 32.3352C34.557 32.3564 34.5112 32.353 34.3933 32.3785C34.5097 32.4093 34.5719 32.4257 34.6402 32.4438C34.6035 32.4762 34.6309 32.452 34.6587 32.4274C34.7723 32.5873 34.5981 32.7211 34.6221 32.8581C34.6529 33.0347 34.493 33.099 34.4283 33.2498C34.4975 33.2783 34.5494 33.2996 34.6169 33.3275C34.6009 33.5585 34.6553 33.797 34.4945 34.0192C34.4065 34.1407 34.4472 34.3543 34.5588 34.6681C34.4829 34.6124 34.4559 34.5823 34.4226 34.571C34.3905 34.5601 34.3521 34.5687 34.2981 34.5687C34.3841 34.6966 34.4579 34.8059 34.5318 34.9155C34.4483 35.0283 34.3631 35.1373 34.4522 35.2927C34.4695 35.3227 34.4419 35.3927 34.4156 35.431C34.3561 35.5175 34.3537 35.5929 34.4194 35.6759C34.4409 35.7032 34.4617 35.77 34.4541 35.7751C34.2404 35.9149 34.5448 36.0509 34.4553 36.1878C34.4027 36.2678 34.3548 36.3507 34.3217 36.4051C34.373 36.4659 34.4175 36.5136 34.456 36.5654C34.5374 36.6748 34.3463 36.7631 34.4431 36.9039C34.5048 36.9936 34.4697 37.161 34.4541 37.2908C34.3995 37.7477 34.5734 38.1893 34.5357 38.6439C34.6534 38.8737 34.5991 39.1221 34.6179 39.3631C34.6293 39.5116 34.6664 39.6584 34.6947 39.8054C34.7208 39.9407 34.6698 40.0731 34.7494 40.2198C34.8159 40.3426 34.7442 40.533 34.7823 40.681C34.8073 40.7769 34.9092 40.8504 34.7749 40.935C34.8847 41.0066 34.8493 41.1179 34.8523 41.2184C34.8597 41.4706 34.9232 41.7108 34.992 41.9518C35.0197 42.0489 35.0355 42.1684 35.003 42.2584C34.9673 42.357 35.1653 42.4268 35.0165 42.5146C35.0701 42.6565 35.1026 42.8005 35.0917 42.9548C35.082 43.094 35.1181 43.2234 35.1607 43.36C35.2428 43.6239 35.2825 43.9022 35.3247 44.1767C35.3475 44.3252 35.3402 44.4704 35.3941 44.6229C35.4496 44.7802 35.4305 44.9773 35.3234 45.1383C35.2915 45.1864 35.2646 45.2379 35.2735 45.3254C35.3336 45.2769 35.3935 45.2286 35.4536 45.1803C35.5683 45.3546 35.4093 45.4321 35.3137 45.5507C35.3866 45.6315 35.362 45.7779 35.5213 45.8158C35.5509 45.8228 35.56 45.9521 35.5634 46.0256C35.5715 46.2001 35.5261 46.3469 35.299 46.3862C35.4689 46.4425 35.5413 46.518 35.4572 46.6674C35.4482 46.6832 35.5197 46.7686 35.5812 46.7915C35.4381 46.9544 35.5615 47.219 35.3366 47.3792C35.3979 47.367 35.4593 47.3548 35.5445 47.3378C35.5262 47.5349 35.5599 47.7743 35.4718 47.9538C35.3733 48.1538 35.4877 48.3964 35.2835 48.5701C35.2084 48.5764 35.1096 48.5844 35.011 48.5925C35.0106 48.6054 35.0103 48.6185 35.0098 48.6316C35.081 48.6448 35.1521 48.6581 35.2485 48.6761C35.2511 48.8493 35.175 49.0001 35.1075 49.1569C34.9146 49.6043 34.6531 50.0055 34.3582 50.3933C34.2082 50.5903 34.0362 50.7601 33.8749 50.9428C33.7222 51.1154 33.5847 51.3027 33.4243 51.4675C33.0156 51.8872 32.5946 52.2942 32.0475 52.5371C31.8017 52.8221 31.4468 52.928 31.1275 53.0884C30.6143 53.3463 30.0713 53.5337 29.5304 53.7242C29.2422 53.8255 28.954 53.9283 28.6609 54.0139C28.3665 54.1 28.0532 54.1181 27.7749 54.2658C27.7334 54.2878 27.6735 54.2812 27.6225 54.2781C27.4037 54.2653 27.1962 54.2968 27.0019 54.4063C26.9607 54.4295 26.9055 54.4281 26.8567 54.4374C26.7095 54.4655 26.5604 54.3961 26.4069 54.5063C26.3103 54.5757 26.128 54.4729 26.01 54.594C25.997 54.6072 25.9589 54.5968 25.9326 54.5958C25.3869 54.573 24.8508 54.7261 24.3022 54.68C24.1297 54.6656 23.9532 54.6498 23.7752 54.743C23.6862 54.7896 23.5174 54.8057 23.4159 54.6805C23.3282 54.7898 23.2054 54.7518 23.0946 54.7531C22.7779 54.7565 22.4608 54.7447 22.1446 54.7582C21.9835 54.7652 21.811 54.689 21.659 54.8295C21.5795 54.9032 21.5072 54.6546 21.394 54.7912C21.1808 54.7554 20.9791 54.8511 20.7642 54.8383C20.4486 54.8193 20.1146 54.7719 19.8189 54.8505C19.5175 54.931 19.2293 54.8931 18.9364 54.9087C18.6205 54.9257 18.303 54.906 17.9865 54.9163C17.8779 54.9198 17.767 54.9558 17.6641 54.9945C17.5623 55.0327 17.4691 54.8533 17.3723 54.9918C17.2621 54.9495 17.1521 54.871 17.0419 54.9918C16.9449 54.865 16.8484 55.0105 16.7511 54.9924C16.6535 54.9741 16.5598 55.0005 16.4539 54.9413C16.3526 54.8848 16.2 54.9054 16.0717 54.915C15.6072 54.9498 15.1522 54.8523 14.7158 54.7392C14.2913 54.6291 13.8586 54.529 13.4445 54.3731C13.3871 54.3514 13.3161 54.3536 13.2529 54.3597C12.7876 54.4052 12.3508 54.2156 11.8932 54.1967C11.8504 54.1949 11.8119 54.1412 11.7669 54.1221C11.6884 54.0887 11.6067 54.0633 11.526 54.0348C11.4454 54.0065 11.3663 53.9657 11.2831 53.9547C11.2092 53.945 11.3346 53.7635 11.1686 53.8417C11.1116 53.8686 11.0131 53.8313 10.9431 53.8011C10.8422 53.7574 10.7493 53.6948 10.6544 53.6378C10.4534 53.5174 10.253 53.3961 10.0531 53.274C9.96712 53.2216 10.0094 53.1766 10.0734 53.1298Z" fill="#5B4DAF"/>
<path fill-rule="evenodd" clip-rule="evenodd" d="M323.439 110.001C324.513 110.602 325.526 111.256 326.612 111.752C327.759 112.277 328.961 112.68 330.211 112.95C331.243 113.173 332.252 113.489 333.327 113.384C334.137 113.805 335.009 113.564 335.852 113.595C336.197 113.607 336.546 113.405 336.895 113.399C337.272 113.392 337.609 113.208 337.941 113.186C339.173 113.104 340.287 112.541 341.502 112.418C341.592 112.409 341.67 112.298 341.786 112.21C342.117 112.425 342.433 112.631 342.825 112.886C342.489 113.131 342.248 113.307 341.861 113.59H343C342.873 113.883 342.794 114.064 342.688 114.309C342.729 114.374 342.803 114.492 342.928 114.691C342.767 115.096 342.676 115.656 342.362 116.035C341.926 116.563 341.345 116.988 340.779 117.392C340.538 117.565 340.175 117.657 339.872 117.645C339.201 117.617 338.6 118.047 337.914 117.899C337.814 117.877 337.676 118.023 337.538 118.102C337.493 117.977 337.447 117.846 337.399 117.713H333.139C333.56 117.94 334.004 117.873 334.438 117.884C334.931 117.895 335.425 117.883 335.918 117.887C336.356 117.891 336.794 117.903 337.231 118.111C336.372 118.111 335.512 118.116 334.653 118.11C333.632 118.104 332.591 118.219 331.653 117.663C330.628 117.678 329.702 117.29 328.741 117.014C328.248 116.873 327.888 116.646 327.552 116.31C327.498 116.364 327.445 116.417 327.346 116.516C326.666 116.153 325.997 115.707 325.263 115.436C324.755 115.249 324.556 114.702 324.014 114.603C323.815 114.567 323.638 114.422 323.343 114.273C323.012 114.165 322.478 114.518 322.083 114.063C322.029 114.116 321.975 114.169 321.89 114.254C321.801 114.204 321.701 114.147 321.596 114.087C321.543 114.217 321.491 114.346 321.433 114.488H321.056C321.145 114.343 321.204 114.245 321.264 114.147C321.201 114.118 321.117 114.047 321.077 114.067C320.792 114.204 320.514 114.356 320.238 114.511C319.991 114.65 319.748 114.798 319.447 114.975C319.37 114.925 319.252 114.85 319.115 114.762C319.053 114.89 318.983 115.035 318.91 115.185C318.85 115.131 318.796 115.082 318.737 115.027C318.503 115.214 318.285 115.533 318.03 115.565C317.33 115.654 316.82 116.133 316.177 116.33C315.852 116.43 315.57 116.711 315.301 116.946C314.409 117.728 313.433 118.369 312.334 118.813C312.228 118.715 312.146 118.64 312.063 118.563C311.932 118.694 311.798 118.827 311.627 118.999H310.65C310.509 119.228 310.38 119.439 310.234 119.674H309.835C309.705 119.837 309.614 120.07 309.46 120.123C308.744 120.365 308.09 120.865 307.224 120.396C306.855 120.196 306.283 120.362 305.8 120.547C306.257 120.575 306.713 120.602 307.169 120.63L307.163 120.76H305.635C305.587 120.627 305.541 120.497 305.462 120.277C304.927 120.784 304.379 120.588 303.846 120.359C303.097 120.036 302.372 119.703 301.714 119.176C300.864 118.495 299.961 117.847 298.924 117.433C298.826 117.394 298.744 117.317 298.574 117.204H297.242C297.198 117.138 297.161 117.104 297.167 117.086C297.179 117.054 297.22 117.034 297.243 117.005C297.282 116.954 297.316 116.901 297.384 116.803H296.569C296.513 116.641 296.468 116.511 296.413 116.35C296.326 116.336 296.222 116.32 295.946 116.274C296.084 116.47 296.147 116.558 296.217 116.656C296.159 116.719 296.086 116.798 295.977 116.917C296.232 116.967 296.461 117.012 296.69 117.057C295.198 117.293 293.772 117.879 292.257 117.631C291.983 118.397 291.405 118.587 290.665 118.56C289.697 119.441 288.732 120.364 287.718 121.23C286.661 122.133 285.458 122.881 284.109 123.189C282.971 123.449 281.768 123.874 280.572 123.295C280.48 123.25 280.347 123.284 280.234 123.289C279.078 123.345 278.081 122.845 277.088 122.376C276.672 122.18 276.348 121.796 275.937 121.586C275.372 121.298 274.75 121.161 274.127 121.005C273.012 120.727 271.906 120.856 270.797 120.818C269.774 120.782 268.773 120.947 267.797 121.258C267.694 121.291 267.56 121.291 267.46 121.255C267.362 121.22 267.288 121.119 267.179 121.027C267.133 121.161 267.09 121.289 267.015 121.51C266.835 121.443 266.658 121.376 266.461 121.302C266.441 121.378 266.414 121.478 266.369 121.651C265.446 121.912 264.69 122.787 263.561 122.61L263.224 122.943C263.296 123.022 263.368 123.101 263.467 123.21C262.926 123.61 262.313 123.939 261.87 124.422C261.401 124.935 260.966 125.458 260.281 125.921C260.224 126.043 260.105 126.294 259.963 126.591C259.803 126.682 259.587 126.804 259.394 126.914C259.33 127.593 259.33 127.593 258.987 128L258 127.024V125.057C258.049 125.023 258.38 124.907 258.392 124.765C258.441 124.186 259.045 124.011 259.212 123.536C259.388 123.032 259.829 122.731 260.172 122.353C260.64 121.837 261.1 121.314 261.541 120.775C262.533 119.562 264.587 118.305 266.458 117.879C266.9 117.779 267.315 117.566 267.753 117.442C268.166 117.325 268.62 117.594 269.045 117.236C269.22 117.088 269.63 117.211 269.672 117.211C270.015 117.385 270.184 117.471 270.384 117.572C270.235 117.776 270.152 117.889 270.034 118.052H271.426C271.055 117.924 270.923 117.878 270.707 117.804C271.331 117.157 271.928 116.667 272.859 117.169C272.948 117.217 273.074 117.208 273.183 117.21C274.591 117.229 275.819 117.704 276.975 118.501C277.444 118.824 278.063 119.085 278.688 118.999C279.301 118.915 279.835 119.207 280.417 119.236C282.183 119.322 283.715 118.675 285.127 117.713C285.874 117.203 286.607 116.653 287.268 116.04C288.417 114.974 289.797 114.33 291.251 113.852C292.297 113.508 293.413 113.384 294.483 113.125C295.603 112.855 296.709 113.047 297.811 112.922C298.526 112.841 299.089 113.161 299.626 113.491C300.811 114.217 301.936 115.036 303.113 115.775C303.655 116.115 304.312 116.211 304.937 116.3C306.083 116.461 307.185 116.158 308.247 115.788C309.104 115.49 309.918 115.067 310.745 114.687C312.132 114.05 313.399 113.214 314.693 112.412C315.997 111.605 317.394 110.906 318.969 110.671C319.45 110.599 319.915 110.397 320.377 110.23C321.388 109.865 322.434 110.059 323.439 110.001Z" fill="#4D9EAF"/>
<path d="M38.7047 178.434C37.5267 178.434 36.514 178.227 35.6667 177.814C34.8194 177.401 34.1684 176.812 33.7137 176.047C33.2797 175.262 33.0627 174.332 33.0627 173.257C33.0627 172.265 33.29 171.387 33.7447 170.622C34.1994 169.837 34.8504 169.217 35.6977 168.762C36.545 168.307 37.5474 168.08 38.7047 168.08C40.1514 168.08 41.3087 168.411 42.1767 169.072C43.0654 169.713 43.6854 170.601 44.0367 171.738H42.3007V167.863C42.3007 167.222 42.0837 166.633 41.6497 166.096C41.2157 165.559 40.451 165.29 39.3557 165.29C38.777 165.29 38.1364 165.362 37.4337 165.507C36.7517 165.631 36.0387 165.858 35.2947 166.189L34.3647 163.802C35.212 163.389 36.0904 163.079 36.9997 162.872C37.909 162.665 38.7977 162.562 39.6657 162.562C40.9677 162.562 42.0424 162.8 42.8897 163.275C43.737 163.75 44.3674 164.391 44.7807 165.197C45.194 165.982 45.4007 166.871 45.4007 167.863V178H43.1687L42.3937 175.241L44.0367 174.776C43.6647 175.995 43.0034 176.915 42.0527 177.535C41.102 178.134 39.986 178.434 38.7047 178.434ZM39.2627 175.675C40.172 175.675 40.9057 175.468 41.4637 175.055C42.0217 174.621 42.3007 174.022 42.3007 173.257C42.3007 172.472 42.0217 171.872 41.4637 171.459C40.9057 171.046 40.172 170.839 39.2627 170.839C38.3534 170.839 37.6197 171.046 37.0617 171.459C36.5037 171.872 36.2247 172.472 36.2247 173.257C36.2247 174.022 36.5037 174.621 37.0617 175.055C37.6197 175.468 38.3534 175.675 39.2627 175.675ZM63.6583 178.31C62.1083 178.31 60.7649 177.979 59.6283 177.318C58.4916 176.636 57.6133 175.706 56.9933 174.528C56.3733 173.35 56.0633 171.986 56.0633 170.436C56.0633 168.886 56.3733 167.522 56.9933 166.344C57.6133 165.166 58.4916 164.246 59.6283 163.585C60.7649 162.903 62.1083 162.562 63.6583 162.562C65.1256 162.562 66.4586 162.965 67.6573 163.771C68.8559 164.556 69.7239 165.61 70.2613 166.933L67.3163 168.173C66.9856 167.305 66.4896 166.654 65.8283 166.22C65.1669 165.765 64.4126 165.538 63.5653 165.538C62.3253 165.538 61.2919 165.972 60.4653 166.84C59.6386 167.687 59.2253 168.886 59.2253 170.436C59.2253 171.986 59.6386 173.195 60.4653 174.063C61.2919 174.91 62.3253 175.334 63.5653 175.334C64.4126 175.334 65.1669 175.117 65.8283 174.683C66.4896 174.228 66.9856 173.567 67.3163 172.699L70.2613 173.939C69.7033 175.262 68.8249 176.326 67.6263 177.132C66.4483 177.917 65.1256 178.31 63.6583 178.31ZM72.6107 178V156.889H75.7107V178H72.6107ZM82.7477 178V168.328C82.7477 167.253 82.4997 166.53 82.0037 166.158C81.5284 165.786 80.9601 165.6 80.2987 165.6C79.6374 165.6 78.9657 165.734 78.2837 166.003C77.6017 166.272 76.9921 166.633 76.4547 167.088C75.9174 167.543 75.5041 168.049 75.2147 168.607L74.8427 165.631C75.4214 164.97 76.0517 164.412 76.7337 163.957C77.4157 163.502 78.1391 163.161 78.9037 162.934C79.6684 162.686 80.4537 162.562 81.2597 162.562C82.3344 162.562 83.1817 162.748 83.8017 163.12C84.4217 163.471 84.8764 163.957 85.1657 164.577C85.4551 165.176 85.6411 165.858 85.7237 166.623C85.8064 167.388 85.8477 168.173 85.8477 168.979V178H82.7477ZM91.8859 162.872L92.6299 166.964V178H89.5299V162.872H91.8859ZM92.1649 168.235L91.4209 167.894V165.631L91.6999 165.29C91.9066 164.918 92.2269 164.525 92.6609 164.112C93.1156 163.678 93.6426 163.316 94.2419 163.027C94.8413 162.717 95.4509 162.562 96.0709 162.562C96.3809 162.562 96.6703 162.583 96.9389 162.624C97.2283 162.665 97.4453 162.738 97.5899 162.841V165.631H96.6289C95.2236 165.631 94.2006 165.848 93.5599 166.282C92.9193 166.695 92.4543 167.346 92.1649 168.235ZM105.792 178.31C104.262 178.31 102.909 177.99 101.731 177.349C100.573 176.688 99.6743 175.768 99.0336 174.59C98.393 173.412 98.0726 172.038 98.0726 170.467C98.0726 168.876 98.393 167.491 99.0336 166.313C99.6743 165.135 100.573 164.215 101.731 163.554C102.909 162.893 104.262 162.562 105.792 162.562C107.342 162.562 108.695 162.893 109.853 163.554C111.01 164.215 111.909 165.135 112.55 166.313C113.211 167.491 113.542 168.876 113.542 170.467C113.542 172.038 113.211 173.412 112.55 174.59C111.909 175.768 111.01 176.688 109.853 177.349C108.695 177.99 107.342 178.31 105.792 178.31ZM105.792 175.334C107.176 175.334 108.282 174.89 109.109 174.001C109.956 173.092 110.38 171.914 110.38 170.467C110.38 169 109.956 167.811 109.109 166.902C108.282 165.993 107.176 165.538 105.792 165.538C104.428 165.538 103.322 165.993 102.475 166.902C101.648 167.791 101.235 168.969 101.235 170.436C101.235 171.903 101.648 173.092 102.475 174.001C103.322 174.89 104.428 175.334 105.792 175.334ZM116.315 178V162.872H118.671L119.322 165.538L118.547 165.631C119.105 164.97 119.694 164.412 120.314 163.957C120.934 163.502 121.595 163.161 122.298 162.934C123 162.686 123.734 162.562 124.499 162.562C125.573 162.562 126.421 162.748 127.041 163.12C127.661 163.471 128.115 163.957 128.405 164.577C128.694 165.176 128.88 165.858 128.963 166.623C129.045 167.388 129.087 168.173 129.087 168.979V178H125.987V168.328C125.987 167.253 125.739 166.53 125.243 166.158C124.767 165.786 124.199 165.6 123.538 165.6C122.587 165.6 121.678 165.9 120.81 166.499C119.942 167.078 119.311 167.78 118.919 168.607V166.871H119.415V178H116.315ZM135.659 178V168.328C135.659 167.253 135.411 166.53 134.915 166.158C134.439 165.786 133.871 165.6 133.21 165.6C132.259 165.6 131.35 165.9 130.482 166.499C129.614 167.078 128.983 167.78 128.591 168.607L128.219 165.631C128.777 164.97 129.366 164.412 129.986 163.957C130.606 163.502 131.267 163.161 131.97 162.934C132.672 162.686 133.406 162.562 134.171 162.562C135.245 162.562 136.093 162.748 136.713 163.12C137.333 163.471 137.787 163.957 138.077 164.577C138.366 165.176 138.552 165.858 138.635 166.623C138.717 167.388 138.759 168.173 138.759 168.979V178H135.659ZM148.765 178.31C147.297 178.31 146.006 177.99 144.89 177.349C143.774 176.688 142.906 175.768 142.286 174.59C141.666 173.412 141.356 172.038 141.356 170.467C141.356 168.876 141.666 167.491 142.286 166.313C142.906 165.135 143.774 164.215 144.89 163.554C146.006 162.893 147.297 162.562 148.765 162.562C150.253 162.562 151.555 162.893 152.671 163.554C153.787 164.215 154.655 165.135 155.275 166.313C155.895 167.491 156.205 168.876 156.205 170.467C156.205 170.612 156.194 170.767 156.174 170.932C156.174 171.077 156.163 171.211 156.143 171.335H144.301V168.669H153.911L153.043 170.467C153.043 168.896 152.691 167.605 151.989 166.592C151.286 165.579 150.211 165.073 148.765 165.073C147.483 165.073 146.46 165.486 145.696 166.313C144.931 167.119 144.549 168.183 144.549 169.506V171.118C144.549 172.503 144.921 173.608 145.665 174.435C146.409 175.241 147.442 175.644 148.765 175.644C149.984 175.644 150.924 175.386 151.586 174.869C152.247 174.352 152.826 173.712 153.322 172.947L155.647 174.404C154.944 175.706 154.035 176.688 152.919 177.349C151.823 177.99 150.439 178.31 148.765 178.31ZM173.339 178.31C171.872 178.31 170.58 177.99 169.464 177.349C168.348 176.688 167.48 175.768 166.86 174.59C166.24 173.412 165.93 172.038 165.93 170.467C165.93 168.876 166.24 167.491 166.86 166.313C167.48 165.135 168.348 164.215 169.464 163.554C170.58 162.893 171.872 162.562 173.339 162.562C174.827 162.562 176.129 162.893 177.245 163.554C178.361 164.215 179.229 165.135 179.849 166.313C180.469 167.491 180.779 168.876 180.779 170.467C180.779 170.612 180.769 170.767 180.748 170.932C180.748 171.077 180.738 171.211 180.717 171.335H168.875V168.669H178.485L177.617 170.467C177.617 168.896 177.266 167.605 176.563 166.592C175.861 165.579 174.786 165.073 173.339 165.073C172.058 165.073 171.035 165.486 170.27 166.313C169.506 167.119 169.123 168.183 169.123 169.506V171.118C169.123 172.503 169.495 173.608 170.239 174.435C170.983 175.241 172.017 175.644 173.339 175.644C174.559 175.644 175.499 175.386 176.16 174.869C176.822 174.352 177.4 173.712 177.896 172.947L180.221 174.404C179.519 175.706 178.609 176.688 177.493 177.349C176.398 177.99 175.013 178.31 173.339 178.31ZM191.98 178L188.105 172.017H189.221L185.377 178H181.626L187.33 169.661V171.211L181.626 162.872H185.377L189.221 168.855H188.136L191.98 162.872H195.731L190.027 171.211V169.661L195.731 178H191.98ZM203.675 178.279C202.353 178.279 201.299 177.897 200.513 177.132C199.749 176.347 199.366 175.138 199.366 173.505V163.058V162.872L199.955 159.462H202.466V173.567C202.466 174.146 202.611 174.58 202.9 174.869C203.21 175.158 203.593 175.303 204.047 175.303C204.399 175.303 204.709 175.282 204.977 175.241C205.246 175.2 205.484 175.148 205.69 175.086V177.969C205.422 178.052 205.122 178.124 204.791 178.186C204.481 178.248 204.109 178.279 203.675 178.279ZM197.041 165.724V162.872H205.69V165.724H197.041ZM215.257 178.31C213.79 178.31 212.498 177.99 211.382 177.349C210.266 176.688 209.398 175.768 208.778 174.59C208.158 173.412 207.848 172.038 207.848 170.467C207.848 168.876 208.158 167.491 208.778 166.313C209.398 165.135 210.266 164.215 211.382 163.554C212.498 162.893 213.79 162.562 215.257 162.562C216.745 162.562 218.047 162.893 219.163 163.554C220.279 164.215 221.147 165.135 221.767 166.313C222.387 167.491 222.697 168.876 222.697 170.467C222.697 170.612 222.687 170.767 222.666 170.932C222.666 171.077 222.656 171.211 222.635 171.335H210.793V168.669H220.403L219.535 170.467C219.535 168.896 219.184 167.605 218.481 166.592C217.779 165.579 216.704 165.073 215.257 165.073C213.976 165.073 212.953 165.486 212.188 166.313C211.424 167.119 211.041 168.183 211.041 169.506V171.118C211.041 172.503 211.413 173.608 212.157 174.435C212.901 175.241 213.935 175.644 215.257 175.644C216.477 175.644 217.417 175.386 218.078 174.869C218.74 174.352 219.318 173.712 219.814 172.947L222.139 174.404C221.437 175.706 220.527 176.688 219.411 177.349C218.316 177.99 216.931 178.31 215.257 178.31ZM234.104 162.562C235.179 162.562 236.026 162.748 236.646 163.12C237.266 163.471 237.721 163.957 238.01 164.577C238.3 165.176 238.486 165.858 238.568 166.623C238.651 167.388 238.692 168.173 238.692 168.979V178H235.592V168.328C235.592 167.253 235.344 166.53 234.848 166.158C234.373 165.786 233.805 165.6 233.143 165.6C232.482 165.6 231.81 165.734 231.128 166.003C230.446 166.272 229.837 166.633 229.299 167.088C228.762 167.543 228.349 168.049 228.059 168.607V166.871H228.555V178H225.455V162.872H227.811L228.462 165.538L227.687 165.631C228.266 164.97 228.896 164.412 229.578 163.957C230.26 163.502 230.984 163.161 231.748 162.934C232.513 162.686 233.298 162.562 234.104 162.562ZM247.059 178.31C246.005 178.31 244.961 178.062 243.928 177.566C242.915 177.07 242.078 176.223 241.417 175.024L243.773 173.474C244.352 174.239 244.899 174.797 245.416 175.148C245.933 175.479 246.604 175.644 247.431 175.644C248.092 175.644 248.599 175.479 248.95 175.148C249.322 174.797 249.508 174.373 249.508 173.877C249.508 173.546 249.415 173.257 249.229 173.009C249.064 172.761 248.764 172.534 248.33 172.327C247.896 172.1 247.276 171.883 246.47 171.676C244.982 171.283 243.835 170.767 243.029 170.126C242.223 169.485 241.82 168.473 241.82 167.088C241.82 166.261 242.027 165.507 242.44 164.825C242.853 164.143 243.453 163.595 244.238 163.182C245.023 162.769 245.953 162.562 247.028 162.562C248.309 162.562 249.405 162.831 250.314 163.368C251.223 163.885 251.936 164.505 252.453 165.228L250.066 166.995C249.777 166.623 249.353 166.261 248.795 165.91C248.237 165.538 247.534 165.352 246.687 165.352C246.17 165.352 245.695 165.497 245.261 165.786C244.827 166.075 244.61 166.478 244.61 166.995C244.61 167.512 244.806 167.935 245.199 168.266C245.612 168.576 246.356 168.855 247.431 169.103C249.25 169.537 250.541 170.105 251.306 170.808C252.071 171.49 252.453 172.399 252.453 173.536C252.453 174.528 252.195 175.386 251.678 176.109C251.182 176.812 250.521 177.359 249.694 177.752C248.888 178.124 248.01 178.31 247.059 178.31ZM258.611 178H255.511V162.872H258.611V178ZM255.046 158.222C255.046 157.623 255.222 157.137 255.573 156.765C255.945 156.372 256.441 156.176 257.061 156.176C257.66 156.176 258.146 156.372 258.518 156.765C258.89 157.137 259.076 157.623 259.076 158.222C259.076 158.801 258.89 159.286 258.518 159.679C258.146 160.051 257.66 160.237 257.061 160.237C256.441 160.237 255.945 160.051 255.573 159.679C255.222 159.286 255.046 158.801 255.046 158.222ZM269.319 178.31C267.79 178.31 266.436 177.99 265.258 177.349C264.101 176.688 263.202 175.768 262.561 174.59C261.92 173.412 261.6 172.038 261.6 170.467C261.6 168.876 261.92 167.491 262.561 166.313C263.202 165.135 264.101 164.215 265.258 163.554C266.436 162.893 267.79 162.562 269.319 162.562C270.869 162.562 272.223 162.893 273.38 163.554C274.537 164.215 275.436 165.135 276.077 166.313C276.738 167.491 277.069 168.876 277.069 170.467C277.069 172.038 276.738 173.412 276.077 174.59C275.436 175.768 274.537 176.688 273.38 177.349C272.223 177.99 270.869 178.31 269.319 178.31ZM269.319 175.334C270.704 175.334 271.809 174.89 272.636 174.001C273.483 173.092 273.907 171.914 273.907 170.467C273.907 169 273.483 167.811 272.636 166.902C271.809 165.993 270.704 165.538 269.319 165.538C267.955 165.538 266.849 165.993 266.002 166.902C265.175 167.791 264.762 168.969 264.762 170.436C264.762 171.903 265.175 173.092 266.002 174.001C266.849 174.89 267.955 175.334 269.319 175.334ZM288.491 162.562C289.566 162.562 290.413 162.748 291.033 163.12C291.653 163.471 292.108 163.957 292.397 164.577C292.686 165.176 292.872 165.858 292.955 166.623C293.038 167.388 293.079 168.173 293.079 168.979V178H289.979V168.328C289.979 167.253 289.731 166.53 289.235 166.158C288.76 165.786 288.191 165.6 287.53 165.6C286.869 165.6 286.197 165.734 285.515 166.003C284.833 166.272 284.223 166.633 283.686 167.088C283.149 167.543 282.735 168.049 282.446 168.607V166.871H282.942V178H279.842V162.872H282.198L282.849 165.538L282.074 165.631C282.653 164.97 283.283 164.412 283.965 163.957C284.647 163.502 285.37 163.161 286.135 162.934C286.9 162.686 287.685 162.562 288.491 162.562ZM305.806 178V161.384C305.806 160.289 305.982 159.39 306.333 158.687C306.684 157.984 307.18 157.468 307.821 157.137C308.462 156.786 309.226 156.61 310.115 156.61C310.528 156.61 310.9 156.641 311.231 156.703C311.562 156.765 311.861 156.837 312.13 156.92V159.803C311.903 159.762 311.675 159.731 311.448 159.71C311.241 159.669 310.993 159.648 310.704 159.648C310.249 159.648 309.836 159.803 309.464 160.113C309.092 160.402 308.906 160.909 308.906 161.632V178H305.806ZM311.82 165.724H303.481V162.872H311.82V165.724ZM320.921 178.31C319.391 178.31 318.038 177.99 316.86 177.349C315.702 176.688 314.803 175.768 314.163 174.59C313.522 173.412 313.202 172.038 313.202 170.467C313.202 168.876 313.522 167.491 314.163 166.313C314.803 165.135 315.702 164.215 316.86 163.554C318.038 162.893 319.391 162.562 320.921 162.562C322.471 162.562 323.824 162.893 324.982 163.554C326.139 164.215 327.038 165.135 327.679 166.313C328.34 167.491 328.671 168.876 328.671 170.467C328.671 172.038 328.34 173.412 327.679 174.59C327.038 175.768 326.139 176.688 324.982 177.349C323.824 177.99 322.471 178.31 320.921 178.31ZM320.921 175.334C322.305 175.334 323.411 174.89 324.238 174.001C325.085 173.092 325.509 171.914 325.509 170.467C325.509 169 325.085 167.811 324.238 166.902C323.411 165.993 322.305 165.538 320.921 165.538C319.557 165.538 318.451 165.993 317.604 166.902C316.777 167.791 316.364 168.969 316.364 170.436C316.364 171.903 316.777 173.092 317.604 174.001C318.451 174.89 319.557 175.334 320.921 175.334ZM333.8 162.872L334.544 166.964V178H331.444V162.872H333.8ZM334.079 168.235L333.335 167.894V165.631L333.614 165.29C333.82 164.918 334.141 164.525 334.575 164.112C335.029 163.678 335.556 163.316 336.156 163.027C336.755 162.717 337.365 162.562 337.985 162.562C338.295 162.562 338.584 162.583 338.853 162.624C339.142 162.665 339.359 162.738 339.504 162.841V165.631H338.543C337.137 165.631 336.114 165.848 335.474 166.282C334.833 166.695 334.368 167.346 334.079 168.235ZM109.384 215H97.1705V193.889H100.27V212.52L99.8985 212.086H109.384V215ZM115.148 215H112.048V199.872H115.148V215ZM111.583 195.222C111.583 194.623 111.758 194.137 112.11 193.765C112.482 193.372 112.978 193.176 113.598 193.176C114.197 193.176 114.683 193.372 115.055 193.765C115.427 194.137 115.613 194.623 115.613 195.222C115.613 195.801 115.427 196.286 115.055 196.679C114.683 197.051 114.197 197.237 113.598 197.237C112.978 197.237 112.482 197.051 112.11 196.679C111.758 196.286 111.583 195.801 111.583 195.222ZM127.685 199.562C128.759 199.562 129.607 199.748 130.227 200.12C130.847 200.471 131.301 200.957 131.591 201.577C131.88 202.176 132.066 202.858 132.149 203.623C132.231 204.388 132.273 205.173 132.273 205.979V215H129.173V205.328C129.173 204.253 128.925 203.53 128.429 203.158C127.953 202.786 127.385 202.6 126.724 202.6C126.062 202.6 125.391 202.734 124.709 203.003C124.027 203.272 123.417 203.633 122.88 204.088C122.342 204.543 121.929 205.049 121.64 205.607V203.871H122.136V215H119.036V199.872H121.392L122.043 202.538L121.268 202.631C121.846 201.97 122.477 201.412 123.159 200.957C123.841 200.502 124.564 200.161 125.329 199.934C126.093 199.686 126.879 199.562 127.685 199.562ZM138.249 207.374V206.94L144.821 199.872H148.479L141.101 207.963L140.822 205.917L148.541 215H144.821L138.249 207.374ZM135.955 193.889H138.993V215H135.955V193.889ZM156.084 215.31C154.616 215.31 153.325 214.99 152.209 214.349C151.093 213.688 150.225 212.768 149.605 211.59C148.985 210.412 148.675 209.038 148.675 207.467C148.675 205.876 148.985 204.491 149.605 203.313C150.225 202.135 151.093 201.215 152.209 200.554C153.325 199.893 154.616 199.562 156.084 199.562C157.572 199.562 158.874 199.893 159.99 200.554C161.106 201.215 161.974 202.135 162.594 203.313C163.214 204.491 163.524 205.876 163.524 207.467C163.524 207.612 163.513 207.767 163.493 207.932C163.493 208.077 163.482 208.211 163.462 208.335H151.62V205.669H161.23L160.362 207.467C160.362 205.896 160.01 204.605 159.308 203.592C158.605 202.579 157.53 202.073 156.084 202.073C154.802 202.073 153.779 202.486 153.015 203.313C152.25 204.119 151.868 205.183 151.868 206.506V208.118C151.868 209.503 152.24 210.608 152.984 211.435C153.728 212.241 154.761 212.644 156.084 212.644C157.303 212.644 158.243 212.386 158.905 211.869C159.566 211.352 160.145 210.712 160.641 209.947L162.966 211.404C162.263 212.706 161.354 213.688 160.238 214.349C159.142 214.99 157.758 215.31 156.084 215.31ZM172.327 215.31C170.942 215.31 169.723 214.979 168.669 214.318C167.615 213.657 166.798 212.737 166.22 211.559C165.641 210.36 165.352 208.976 165.352 207.405C165.352 205.834 165.641 204.46 166.22 203.282C166.798 202.104 167.615 201.195 168.669 200.554C169.723 199.893 170.942 199.562 172.327 199.562C173.691 199.562 174.879 199.893 175.892 200.554C176.904 201.195 177.69 202.104 178.248 203.282C178.826 204.46 179.116 205.834 179.116 207.405C179.116 208.976 178.826 210.36 178.248 211.559C177.69 212.737 176.904 213.657 175.892 214.318C174.879 214.979 173.691 215.31 172.327 215.31ZM172.792 212.644C174.073 212.644 175.096 212.169 175.861 211.218C176.646 210.267 177.039 209.007 177.039 207.436C177.039 205.865 176.646 204.605 175.861 203.654C175.096 202.703 174.073 202.228 172.792 202.228C171.51 202.228 170.477 202.703 169.692 203.654C168.906 204.605 168.514 205.855 168.514 207.405C168.514 208.976 168.906 210.247 169.692 211.218C170.477 212.169 171.51 212.644 172.792 212.644ZM177.628 215L176.884 211.962H177.194V203.344H176.884V193.889H179.984V215H177.628ZM186.968 215H183.868V199.872H186.968V215ZM183.403 195.222C183.403 194.623 183.579 194.137 183.93 193.765C184.302 193.372 184.798 193.176 185.418 193.176C186.018 193.176 186.503 193.372 186.875 193.765C187.247 194.137 187.433 194.623 187.433 195.222C187.433 195.801 187.247 196.286 186.875 196.679C186.503 197.051 186.018 197.237 185.418 197.237C184.798 197.237 184.302 197.051 183.93 196.679C183.579 196.286 183.403 195.801 183.403 195.222ZM199.505 199.562C200.58 199.562 201.427 199.748 202.047 200.12C202.667 200.471 203.122 200.957 203.411 201.577C203.701 202.176 203.887 202.858 203.969 203.623C204.052 204.388 204.093 205.173 204.093 205.979V215H200.993V205.328C200.993 204.253 200.745 203.53 200.249 203.158C199.774 202.786 199.206 202.6 198.544 202.6C197.883 202.6 197.211 202.734 196.529 203.003C195.847 203.272 195.238 203.633 194.7 204.088C194.163 204.543 193.75 205.049 193.46 205.607V203.871H193.956V215H190.856V199.872H193.212L193.863 202.538L193.088 202.631C193.667 201.97 194.297 201.412 194.979 200.957C195.661 200.502 196.385 200.161 197.149 199.934C197.914 199.686 198.699 199.562 199.505 199.562ZM221.377 212.551C222.39 212.551 223.155 212.251 223.671 211.652C224.209 211.032 224.477 210.195 224.477 209.141V193.889H227.639V209.141C227.639 210.402 227.381 211.507 226.864 212.458C226.348 213.409 225.614 214.153 224.663 214.69C223.733 215.207 222.648 215.465 221.408 215.465C220.148 215.465 219.042 215.227 218.091 214.752C217.161 214.277 216.438 213.574 215.921 212.644C215.405 211.714 215.146 210.577 215.146 209.234V207.963H218.308V209.048C218.308 210.267 218.577 211.156 219.114 211.714C219.652 212.272 220.406 212.551 221.377 212.551ZM238.323 215.31C236.793 215.31 235.44 214.99 234.262 214.349C233.104 213.688 232.205 212.768 231.565 211.59C230.924 210.412 230.604 209.038 230.604 207.467C230.604 205.876 230.924 204.491 231.565 203.313C232.205 202.135 233.104 201.215 234.262 200.554C235.44 199.893 236.793 199.562 238.323 199.562C239.873 199.562 241.226 199.893 242.384 200.554C243.541 201.215 244.44 202.135 245.081 203.313C245.742 204.491 246.073 205.876 246.073 207.467C246.073 209.038 245.742 210.412 245.081 211.59C244.44 212.768 243.541 213.688 242.384 214.349C241.226 214.99 239.873 215.31 238.323 215.31ZM238.323 212.334C239.707 212.334 240.813 211.89 241.64 211.001C242.487 210.092 242.911 208.914 242.911 207.467C242.911 206 242.487 204.811 241.64 203.902C240.813 202.993 239.707 202.538 238.323 202.538C236.959 202.538 235.853 202.993 235.006 203.902C234.179 204.791 233.766 205.969 233.766 207.436C233.766 208.903 234.179 210.092 235.006 211.001C235.853 211.89 236.959 212.334 238.323 212.334ZM256.503 215.31C255.139 215.31 253.95 214.979 252.938 214.318C251.925 213.657 251.129 212.737 250.551 211.559C249.993 210.36 249.714 208.976 249.714 207.405C249.714 205.834 249.993 204.46 250.551 203.282C251.129 202.104 251.925 201.195 252.938 200.554C253.95 199.893 255.139 199.562 256.503 199.562C257.908 199.562 259.127 199.893 260.161 200.554C261.215 201.195 262.031 202.104 262.61 203.282C263.188 204.46 263.478 205.834 263.478 207.405C263.478 208.976 263.188 210.36 262.61 211.559C262.031 212.737 261.215 213.657 260.161 214.318C259.127 214.979 257.908 215.31 256.503 215.31ZM248.846 215V193.889H251.946V203.344H251.636V211.962H251.946L251.202 215H248.846ZM256.038 212.644C257.319 212.644 258.352 212.169 259.138 211.218C259.923 210.247 260.316 208.976 260.316 207.405C260.316 205.855 259.923 204.605 259.138 203.654C258.352 202.703 257.319 202.228 256.038 202.228C254.777 202.228 253.754 202.703 252.969 203.654C252.183 204.605 251.791 205.865 251.791 207.436C251.791 209.007 252.183 210.267 252.969 211.218C253.754 212.169 254.777 212.644 256.038 212.644ZM270.904 215.31C269.85 215.31 268.806 215.062 267.773 214.566C266.76 214.07 265.923 213.223 265.262 212.024L267.618 210.474C268.196 211.239 268.744 211.797 269.261 212.148C269.777 212.479 270.449 212.644 271.276 212.644C271.937 212.644 272.443 212.479 272.795 212.148C273.167 211.797 273.353 211.373 273.353 210.877C273.353 210.546 273.26 210.257 273.074 210.009C272.908 209.761 272.609 209.534 272.175 209.327C271.741 209.1 271.121 208.883 270.315 208.676C268.827 208.283 267.68 207.767 266.874 207.126C266.068 206.485 265.665 205.473 265.665 204.088C265.665 203.261 265.871 202.507 266.285 201.825C266.698 201.143 267.297 200.595 268.083 200.182C268.868 199.769 269.798 199.562 270.873 199.562C272.154 199.562 273.249 199.831 274.159 200.368C275.068 200.885 275.781 201.505 276.298 202.228L273.911 203.995C273.621 203.623 273.198 203.261 272.64 202.91C272.082 202.538 271.379 202.352 270.532 202.352C270.015 202.352 269.54 202.497 269.106 202.786C268.672 203.075 268.455 203.478 268.455 203.995C268.455 204.512 268.651 204.935 269.044 205.266C269.457 205.576 270.201 205.855 271.276 206.103C273.094 206.537 274.386 207.105 275.151 207.808C275.915 208.49 276.298 209.399 276.298 210.536C276.298 211.528 276.039 212.386 275.523 213.109C275.027 213.812 274.365 214.359 273.539 214.752C272.733 215.124 271.854 215.31 270.904 215.31Z" fill="#F3F1FC"/>
</svg>
